<svg width="32" height="32" viewBox="0 0 32 32" fill="none" xmlns="http://www.w3.org/2000/svg">
<path fill-rule="evenodd" clip-rule="evenodd" d="M9.46782 0.0846137C7.92861 0.408009 6.28897 1.80925 6.27876 2.80996C6.27685 2.99623 6.17664 3.06272 5.73867 3.16772C5.05603 3.33154 4.14584 3.9378 3.3848 4.73565C2.39834 5.76988 1.91484 6.99016 1.91484 8.44576C1.91484 9.2034 1.90899 9.21946 1.42698 9.77977C0.328821 11.0564 0 12.0941 0 14.283C0 15.9926 0.106486 16.5821 0.586686 17.5305C0.808169 17.9678 0.825615 18.1143 0.776361 19.1262C0.736575 19.9427 0.768276 20.4361 0.894762 20.973C1.26762 22.5544 2.3211 23.9637 3.76723 24.8153C4.43434 25.2082 4.51083 25.2911 4.74689 25.8791C5.28719 27.2245 6.42407 28.3863 7.92531 29.1274C9.14017 29.7271 9.94121 29.9042 11.1698 29.8446C12.3498 29.7874 12.9508 29.5654 13.6917 28.9132C13.9595 28.6775 14.221 28.4848 14.273 28.4848C14.325 28.4848 14.6101 28.6765 14.9066 28.9108C15.4616 29.3495 15.5178 29.372 16.4622 29.5316L17.0206 29.6259L16.1392 28.7627C15.6545 28.2881 15.0394 27.6366 14.7722 27.315L14.2867 26.7303L13.6362 27.3326C12.851 28.0595 12.0656 28.3948 10.9944 28.4604C9.6176 28.5447 8.28924 28.0626 7.18373 27.0772C6.61215 26.5677 5.63814 25.3256 5.63814 25.1061C5.63814 24.9306 6.05164 24.8708 7.27682 24.8693L8.43678 24.8679L8.81284 25.3072C9.72207 26.3693 11.129 26.2729 12.1277 25.0801C12.5582 24.5661 12.5633 24.5636 13.1682 24.5827L13.7762 24.6019L13.8082 24.0466C13.8506 23.3138 13.7075 23.0465 13.3151 23.125C12.8812 23.2118 12.143 22.9875 11.5991 22.6039C10.5557 21.8675 9.06602 22.1786 8.60104 23.2297L8.39402 23.6977H6.50503H4.61604L4.14307 23.3964C2.67578 22.4618 1.93261 20.715 2.20313 18.8371C2.31855 18.0357 2.31419 18.0016 2.02079 17.4205C1.59038 16.5678 1.36645 15.7113 1.40379 15.0604L1.43613 14.4958L3.20704 14.4667C4.56647 14.4443 5.00667 14.403 5.10145 14.2889C5.16932 14.2071 5.41708 13.7426 5.65197 13.2568C6.13249 12.2632 6.87991 11.1649 7.30107 10.8337C7.48841 10.6863 7.73712 10.6129 8.04946 10.6129C8.70795 10.6129 9.17059 10.3884 9.79143 9.76753L10.329 9.23H11.9729H13.6166V11.749C13.6166 14.2492 13.7016 14.9745 13.9948 14.9745C14.1836 14.9745 14.6702 14.4833 14.7879 14.1738C14.8459 14.0215 14.8932 12.8492 14.8932 11.5685V9.2401L16.6219 9.20851C17.5727 9.19106 18.3681 9.21734 18.3895 9.26691C18.4109 9.31648 18.578 9.52743 18.7609 9.73573C19.4245 10.4916 20.422 10.7025 21.2739 10.2672C21.993 9.89966 22.1725 9.57839 22.218 8.57672C22.2692 7.44909 22.0971 6.86676 21.5414 6.28678C21.1177 5.84456 21.0741 5.82584 20.4697 5.82626C19.4229 5.8269 18.834 6.30476 18.6027 7.34175L18.4662 7.95344H16.678H14.8898L14.9181 5.01841L14.9464 2.08339L15.5847 1.80829C16.4988 1.41415 17.9922 1.35085 19.0186 1.66265C19.916 1.9352 20.6471 2.53274 20.903 3.20314C21.0483 3.58356 21.1898 3.72579 21.7359 4.03972C22.0976 4.2478 22.5645 4.48949 22.7733 4.57672C23.9866 5.08362 24.682 6.40731 24.9905 8.79724C25.0904 9.57031 25.1767 9.81275 25.6165 10.5525C25.8971 11.0245 26.2615 11.6901 26.4263 12.0315C26.7412 12.6838 27.1862 13.0585 27.6471 13.0593C27.8904 13.0597 27.8988 13.0355 27.8427 12.5012C27.759 11.7023 27.4297 10.9047 26.7565 9.87062C26.198 9.01256 26.1694 8.935 26.1677 8.27492C26.1652 7.36622 25.9362 6.31391 25.5729 5.54255C25.0354 4.40098 23.6438 3.26101 22.5765 3.08783C22.3761 3.05528 22.1913 2.95304 22.1619 2.85837C21.6598 1.23937 20.1698 0.235992 17.9676 0.0339768C16.8786 -0.065914 15.985 0.107805 14.932 0.624386L14.0667 1.04895L13.6664 0.77736C12.7807 0.176313 10.6807 -0.170166 9.46782 0.0846137ZM12.3621 1.59723L13.6159 1.94297L13.6163 4.9482L13.6166 7.95344H11.849H10.0815L9.69483 7.53887C8.75093 6.52656 7.34618 6.36752 6.56673 7.18463C6.02323 7.75429 5.89537 8.74863 6.27089 9.48499L6.47801 9.89136L6.16547 10.1543C5.75505 10.4997 4.75285 12.0139 4.48892 12.6873L4.28052 13.2192L2.77577 13.2488L1.27103 13.2783L1.34039 12.9829C1.52262 12.2056 2.04856 11.1615 2.45706 10.7659C3.06513 10.1772 3.19119 9.88317 3.193 9.04915C3.19768 6.87559 4.13935 5.38234 6.10632 4.42981C6.86002 4.06472 7.03225 3.93419 7.12459 3.65813C7.27097 3.22027 8.51263 1.94765 9.07613 1.65808C10.0487 1.15809 10.7243 1.14565 12.3621 1.59723ZM20.7123 7.26229C21.2183 7.61674 21.2824 8.61065 20.8303 9.09192C20.5196 9.42265 20.1525 9.39935 19.7785 9.02543C18.9916 8.23853 19.8343 6.6473 20.7123 7.26229ZM8.66784 8.183C8.88039 8.43566 8.93369 8.58746 8.88252 8.79469C8.7955 9.14744 8.7271 9.21319 8.32902 9.32744C7.91754 9.44542 7.55011 9.27553 7.36022 8.87947C6.95161 8.02726 8.04616 7.4443 8.66784 8.183ZM21.7015 12.7937C19.9627 13.9555 18.2128 14.747 15.8263 15.4508C15.2162 15.6307 14.8605 15.7943 14.7891 15.9277C14.7212 16.0545 14.6804 17.4949 14.6804 19.7659C14.6804 23.6715 14.7166 24.0093 15.2695 25.2591C16.2974 27.5835 18.7968 29.9059 21.9979 31.5109L22.9734 32L23.6406 31.72C25.2443 31.0469 26.9054 29.8641 28.3544 28.3636C29.4542 27.2247 29.8466 26.6867 30.4356 25.5098C31.1985 23.9856 31.2821 23.4567 31.3849 19.5036C31.4428 17.2765 31.4387 15.9313 31.3735 15.8094C31.2201 15.5228 30.931 15.4026 29.7461 15.1323C28.4976 14.8475 27.075 14.3817 25.8409 13.8535C24.9421 13.4687 23.0411 12.3966 22.9251 12.209C22.8261 12.0489 22.7917 12.0652 21.7015 12.7937ZM24.4759 14.5823C26.1988 15.456 27.6548 16.0073 29.1481 16.3512L30.1587 16.5839L30.1261 19.7412C30.0946 22.7875 30.084 22.9265 29.8257 23.6969C28.9693 26.2514 26.5501 28.8414 23.7092 30.2452L22.898 30.646L22.0663 30.1461C20.5833 29.2548 19.548 28.4538 18.4062 27.3146C17.2677 26.1786 16.7953 25.5078 16.2916 24.3124L16.0102 23.6445L15.9783 20.18L15.9464 16.7155L16.5091 16.5856C17.4287 16.3734 19.6298 15.4474 21.2228 14.6026C22.0419 14.1683 22.7638 13.8109 22.827 13.8086C22.8902 13.8062 23.6322 14.1544 24.4759 14.5823ZM6.77162 15.5491C5.8892 15.8769 5.43144 16.6237 5.42772 17.7421C5.42378 18.9242 6.08579 19.7439 7.12523 19.8437C8.08062 19.9355 9.12368 19.3116 9.31953 18.531L9.38718 18.2619L11.4393 18.2792C12.5679 18.2887 13.5434 18.2643 13.6072 18.225C13.7966 18.1078 13.7529 17.1364 13.5547 17.0603C13.4622 17.0248 12.5287 16.9957 11.4803 16.9957C10.2539 16.9957 9.5742 16.957 9.5742 16.8871C9.5742 16.6359 9.00783 15.9517 8.61891 15.7332C8.07945 15.4299 7.30118 15.3524 6.77162 15.5491ZM8.12371 16.8711C8.63401 17.3286 8.54699 17.9944 7.9268 18.3777C7.46341 18.6641 7.06821 18.6481 6.75034 18.3303C6.11302 17.693 6.78109 16.4479 7.65936 16.6362C7.80563 16.6676 8.01456 16.7732 8.12371 16.8711ZM10.9837 23.5671C11.2495 23.8005 11.2244 24.3833 10.937 24.6509C10.437 25.1168 9.64515 24.7959 9.64515 24.1275C9.64515 23.4051 10.4266 23.078 10.9837 23.5671Z" fill="#3C0483"/>
</svg>
