<svg width="31" height="32" viewBox="0 0 31 32" fill="none" xmlns="http://www.w3.org/2000/svg">
<path fill-rule="evenodd" clip-rule="evenodd" d="M9.79477 0.0402027C4.71484 0.263801 0.852273 1.72871 0.107488 3.71429C0.0347143 3.90826 0.000306798 7.43853 0.000306798 14.7046C0.000306798 26.3551 -0.0321722 25.6849 0.571228 26.476C0.723473 26.6756 1.13271 27.0421 1.48074 27.2903C3.84968 28.9809 8.15762 29.8025 13.5502 29.5924C14.8094 29.5434 15.5719 29.4748 15.5585 29.4118C15.5466 29.356 15.1675 29.0991 14.7161 28.841L13.8953 28.3718L10.9823 28.3194C8.59954 28.2767 7.83842 28.2264 6.80061 28.0434C3.82969 27.5195 1.62527 26.4622 1.30992 25.41C1.19625 25.0305 1.20975 20.8097 1.32505 20.6947C1.3558 20.6639 1.77245 20.8351 2.2509 21.0753C4.31505 22.1112 7.42989 22.7577 10.3784 22.762L11.571 22.7638V22.2687C11.571 21.9939 11.5145 21.729 11.4441 21.6732C11.3744 21.618 10.655 21.5413 9.84552 21.5029C6.4203 21.3401 2.86364 20.3698 1.63979 19.2642L1.21827 18.8832V16.2562C1.21827 14.8113 1.23025 13.629 1.24476 13.629C1.25938 13.629 1.74372 13.8341 2.32104 14.0847C4.69383 15.1146 6.80203 15.5928 9.55027 15.7245C10.309 15.7609 11.0512 15.7601 11.1996 15.7228C11.4389 15.6627 11.4693 15.6065 11.468 15.2257C11.4653 14.5046 11.4852 14.5126 9.47232 14.4265C7.69764 14.3507 6.69028 14.2179 5.37782 13.8868C3.43111 13.3958 1.59107 12.58 1.34667 12.0994C1.20711 11.8249 1.15687 6.47968 1.29439 6.5415C1.33631 6.56037 1.75874 6.76753 2.23324 7.00209C4.88089 8.31029 8.50941 8.96149 12.3829 8.82366C16.1137 8.6908 19.8334 7.83914 21.766 6.67547C22.0895 6.4807 22.3911 6.32125 22.4361 6.32125C22.4812 6.32125 22.4996 6.56108 22.4771 6.85411C22.3618 8.35637 22.353 9.00848 22.4446 9.25096C22.5919 9.64111 23.0439 10.0766 23.3015 10.0766C23.5235 10.0766 23.5253 10.0615 23.5989 7.60691C23.6811 4.86781 23.6277 4.04061 23.3281 3.40544C22.2618 1.1448 16.6129 -0.259823 9.79477 0.0402027ZM16.1891 1.54307C18.9995 1.91841 20.9735 2.55885 21.829 3.37266C22.182 3.70841 22.2282 3.80706 22.2282 4.22452C22.2282 4.89927 21.7623 5.38646 20.5614 5.96753C17.0561 7.66355 10.5951 8.12323 5.83639 7.01508C3.89566 6.56322 2.07978 5.77296 1.52175 5.13738C1.12154 4.68156 1.10622 4.13561 1.48115 3.68994C2.27932 2.74145 5.14062 1.7488 7.91708 1.4573C8.50322 1.3957 9.11982 1.32668 9.28729 1.30384C10.1185 1.19027 14.7503 1.35083 16.1891 1.54307ZM20.5535 11.2641C18.8881 12.3375 16.3252 13.3702 14.1591 13.8408C13.6009 13.962 13.0154 14.1267 12.858 14.2067L12.5717 14.3521L12.6109 18.4311C12.6539 22.8961 12.6648 22.9859 13.3493 24.54C14.1349 26.3231 16.1966 28.706 18.0668 29.9922C19.0965 30.7004 21.3322 32 21.5209 32C21.7424 32 24.0159 30.7837 24.7844 30.2539C25.9827 29.428 27.6568 27.8875 28.3413 26.9811C29.0901 25.9893 29.7671 24.6184 30.0479 23.525C30.3209 22.4619 30.4445 20.4966 30.4473 17.1754C30.4489 15.1291 30.4179 14.4366 30.3183 14.3004C30.2271 14.1758 29.8063 14.0454 28.9414 13.8734C28.2563 13.7373 27.2067 13.4679 26.6091 13.2747C25.4623 12.9039 23.0554 11.7582 22.1432 11.149C21.8452 10.9499 21.5255 10.7914 21.4327 10.7967C21.3399 10.8018 20.9442 11.0122 20.5535 11.2641ZM22.7329 12.9261C24.702 14.0287 26.6956 14.7703 28.4535 15.0538L29.2486 15.1821L29.2043 18.8461C29.1564 22.7849 29.1377 22.943 28.5632 24.2475C28.1041 25.2899 27.2648 26.4268 26.1714 27.4875C24.9873 28.6363 24.2878 29.1561 22.7026 30.0654L21.6036 30.6957L20.5167 30.0705C17.1154 28.1142 14.944 25.8522 14.0931 23.3789C13.9189 22.8727 13.9013 22.4773 13.8987 19.0122L13.8959 15.2022L14.6872 15.0187C16.4366 14.6133 18.1108 14.0005 19.7346 13.1716C20.6315 12.7136 21.4254 12.3324 21.4987 12.3243C21.5721 12.3162 22.1274 12.587 22.7329 12.9261ZM20.3015 16.9801C19.6988 17.2617 19.516 17.4391 19.2051 18.0442C19.0013 18.4408 18.9344 18.7457 18.8992 19.4397C18.8666 20.0795 18.8168 20.3278 18.7214 20.3278C18.6486 20.3278 18.4943 20.4482 18.3787 20.5953C18.1802 20.8476 18.1683 20.99 18.1683 23.1214C18.1683 25.1936 18.1843 25.4 18.3621 25.6198L18.5561 25.8594L21.5705 25.8892C24.1697 25.9148 24.6183 25.8971 24.8275 25.76L25.0701 25.601V23.3263C25.0701 22.0451 25.0254 20.9342 24.9679 20.7827C24.903 20.6122 24.7257 20.459 24.4828 20.3636L24.1 20.2131L24.1392 19.5185C24.1874 18.6662 24.0409 18.1921 23.5677 17.6683C23.0231 17.0654 22.5203 16.8483 21.5684 16.8047C20.9039 16.7742 20.6738 16.8061 20.3015 16.9801ZM22.323 18.0916C22.591 18.2283 22.7815 18.4301 22.928 18.7325C23.217 19.3297 23.2037 19.7267 22.8845 20.0265C22.6483 20.2485 22.5246 20.2715 21.3621 20.3102L20.0967 20.3523V19.7377C20.0967 19.041 20.2143 18.6586 20.5349 18.3122C20.9636 17.8488 21.6752 17.761 22.323 18.0916ZM23.943 23.0683L23.9332 24.6922H21.6597H19.3862V23.0683V21.4443H21.6695H23.9528L23.943 23.0683Z" fill="#3C0483"/>
</svg>
