<svg width="24" height="24" viewBox="0 0 24 24" fill="none" xmlns="http://www.w3.org/2000/svg">
<path d="M17.836 10.1642L13.836 6.16424M2.33594 21.6642L5.72031 21.2882C6.1338 21.2423 6.34054 21.2193 6.53378 21.1567C6.70523 21.1012 6.86838 21.0228 7.01882 20.9236C7.18839 20.8118 7.33548 20.6647 7.62966 20.3705L20.836 7.16424C21.9405 6.05968 21.9405 4.26881 20.836 3.16424C19.7314 2.05967 17.9405 2.05967 16.836 3.16424L3.62967 16.3705C3.33548 16.6647 3.18839 16.8118 3.07657 16.9814C2.97737 17.1318 2.89895 17.295 2.84345 17.4664C2.78089 17.6596 2.75792 17.8664 2.71198 18.2799L2.33594 21.6642Z" stroke="black" stroke-width="2" stroke-linecap="round" stroke-linejoin="round"/>
</svg>
