<svg width="33" height="33" viewBox="0 0 33 33" fill="none" xmlns="http://www.w3.org/2000/svg">
<path d="M21.6667 21.6667C21.359 20.5167 20.6916 19.4952 19.7621 18.7516C18.8325 18.0079 17.6895 17.5811 16.5 17.5333C15.3105 17.5811 14.1675 18.0079 13.2379 18.7516C12.3084 19.4952 11.641 20.5167 11.3333 21.6667M22.7014 5.75333C24.5888 6.84482 26.1566 8.41262 27.248 10.3M27.248 22.7C26.1566 24.5874 24.5888 26.1552 22.7014 27.2467M10.3014 27.2467C8.414 26.1552 6.8462 24.5874 5.75471 22.7M5.75471 10.3C6.8462 8.41262 8.414 6.84482 10.3014 5.75333M13.4 13.4C13.3913 13.8125 13.465 14.2226 13.6169 14.6062C13.7687 14.9899 13.9956 15.3393 14.2843 15.6342C14.573 15.929 14.9176 16.1632 15.2979 16.3231C15.6783 16.483 16.0867 16.5654 16.4993 16.5654C16.9119 16.5654 17.3204 16.483 17.7007 16.3231C18.0811 16.1632 18.4257 15.929 18.7143 15.6342C19.003 15.3393 19.2299 14.9899 19.3817 14.6062C19.5336 14.2226 19.6073 13.8125 19.5986 13.4C19.5815 12.5893 19.2475 11.8176 18.6681 11.2503C18.0887 10.6831 17.3102 10.3654 16.4993 10.3654C15.6885 10.3654 14.9099 10.6831 14.3305 11.2503C13.7511 11.8176 13.4171 12.5893 13.4 13.4ZM13.9167 3.58333C13.9167 4.26848 14.1888 4.92556 14.6733 5.41003C15.1578 5.89449 15.8149 6.16667 16.5 6.16667C17.1851 6.16667 17.8422 5.89449 18.3267 5.41003C18.8112 4.92556 19.0833 4.26848 19.0833 3.58333C19.0833 2.89819 18.8112 2.24111 18.3267 1.75664C17.8422 1.27217 17.1851 1 16.5 1C15.8149 1 15.1578 1.27217 14.6733 1.75664C14.1888 2.24111 13.9167 2.89819 13.9167 3.58333ZM26.8333 16.5C26.8333 17.1851 27.1055 17.8422 27.59 18.3267C28.0744 18.8112 28.7315 19.0833 29.4167 19.0833C30.1018 19.0833 30.7589 18.8112 31.2434 18.3267C31.7278 17.8422 32 17.1851 32 16.5C32 15.8149 31.7278 15.1578 31.2434 14.6733C30.7589 14.1888 30.1018 13.9167 29.4167 13.9167C28.7315 13.9167 28.0744 14.1888 27.59 14.6733C27.1055 15.1578 26.8333 15.8149 26.8333 16.5ZM13.9167 29.4167C13.9167 30.1018 14.1888 30.7589 14.6733 31.2434C15.1578 31.7278 15.8149 32 16.5 32C17.1851 32 17.8422 31.7278 18.3267 31.2434C18.8112 30.7589 19.0833 30.1018 19.0833 29.4167C19.0833 28.7315 18.8112 28.0744 18.3267 27.59C17.8422 27.1055 17.1851 26.8333 16.5 26.8333C15.8149 26.8333 15.1578 27.1055 14.6733 27.59C14.1888 28.0744 13.9167 28.7315 13.9167 29.4167ZM1 16.5C1 17.1851 1.27217 17.8422 1.75664 18.3267C2.24111 18.8112 2.89819 19.0833 3.58333 19.0833C4.26848 19.0833 4.92556 18.8112 5.41003 18.3267C5.89449 17.8422 6.16667 17.1851 6.16667 16.5C6.16667 15.8149 5.89449 15.1578 5.41003 14.6733C4.92556 14.1888 4.26848 13.9167 3.58333 13.9167C2.89819 13.9167 2.24111 14.1888 1.75664 14.6733C1.27217 15.1578 1 15.8149 1 16.5Z" stroke="#3C0483" stroke-width="2" stroke-linecap="round" stroke-linejoin="round"/>
</svg>
