<svg width="24" height="24" viewBox="0 0 24 24" fill="none" xmlns="http://www.w3.org/2000/svg">
<g clip-path="url(#clip0_36_8143)">
<path d="M16.2002 2.22998C17.0236 2.22998 17.7016 2.22896 18.252 2.27393C18.814 2.31985 19.3311 2.41828 19.8164 2.66553C20.5689 3.04899 21.181 3.66108 21.5645 4.41357C21.8117 4.89888 21.9101 5.41597 21.9561 5.97803C22.001 6.52841 22 7.2063 22 8.02979V13.4302C22 14.2537 22.001 14.9316 21.9561 15.4819C21.9101 16.044 21.8117 16.5611 21.5645 17.0464C21.181 17.7989 20.5689 18.411 19.8164 18.7944C19.3311 19.0417 18.814 19.1401 18.252 19.186C17.7016 19.231 17.0236 19.23 16.2002 19.23H13.6836C13.0198 19.23 12.8263 19.2349 12.6504 19.271C12.474 19.3072 12.303 19.3668 12.1426 19.4487C11.9826 19.5305 11.8281 19.6482 11.3096 20.063L8.9248 21.9712C8.73235 22.1252 8.53419 22.2846 8.36133 22.3989C8.20393 22.503 7.89873 22.6894 7.50195 22.6899C7.04527 22.6904 6.61309 22.4823 6.32812 22.1255C6.08068 21.8155 6.03468 21.461 6.01758 21.2729C5.99884 21.0667 6 20.8123 6 20.5659V19.2192C5.60826 19.2063 5.27226 19.1756 4.96484 19.0933C3.58451 18.7234 2.50658 17.6455 2.13672 16.2651C1.99184 15.7244 2 15.0956 2 14.23V8.02979C2 7.2063 1.99898 6.52841 2.04395 5.97803C2.08987 5.41598 2.18828 4.89887 2.43555 4.41357C2.819 3.66109 3.43112 3.049 4.18359 2.66553C4.66887 2.41826 5.18602 2.31986 5.74805 2.27393C6.29841 2.22896 6.97635 2.22998 7.7998 2.22998H16.2002ZM7.7998 4.22998C6.94346 4.22998 6.36116 4.23033 5.91113 4.26709C5.47277 4.30291 5.24819 4.36807 5.0918 4.44775C4.71557 4.63949 4.4095 4.94555 4.21777 5.32178C4.13809 5.47818 4.07293 5.70273 4.03711 6.14111C4.00035 6.59115 4 7.1734 4 8.02979V14.23C4 15.2243 4.00881 15.5253 4.06836 15.7476C4.25329 16.4377 4.79228 16.9767 5.48242 17.1616C5.70469 17.2212 6.00572 17.23 7 17.23C7.55228 17.23 8 17.6777 8 18.23V20.1489L10.0605 18.5005C10.5164 18.1358 10.8499 17.8629 11.2324 17.6675C11.5533 17.5036 11.8951 17.3845 12.248 17.312C12.6689 17.2256 13.0997 17.23 13.6836 17.23H16.2002C17.0565 17.23 17.6388 17.2296 18.0889 17.1929C18.5272 17.1571 18.7518 17.0919 18.9082 17.0122C19.2844 16.8205 19.5905 16.5144 19.7822 16.1382C19.8619 15.9818 19.9271 15.7573 19.9629 15.3188C19.9997 14.8688 20 14.2866 20 13.4302V8.02979C20 7.1734 19.9997 6.59115 19.9629 6.14111C19.9271 5.7027 19.8619 5.47818 19.7822 5.32178C19.5905 4.94554 19.2844 4.63948 18.9082 4.44775C18.7518 4.36808 18.5272 4.3029 18.0889 4.26709C17.6388 4.23034 17.0565 4.22998 16.2002 4.22998H7.7998ZM15 11.23C15.5523 11.23 16 11.6777 16 12.23C16 12.7823 15.5523 13.23 15 13.23H7C6.44775 13.2299 6 12.7822 6 12.23C6 11.6777 6.44775 11.23 7 11.23H15ZM12 7.72998C12.5523 7.72998 13 8.1777 13 8.72998C13 9.28227 12.5523 9.72998 12 9.72998H7C6.44775 9.72994 6 9.28224 6 8.72998C6 8.17772 6.44775 7.73003 7 7.72998H12Z" fill="black"/>
</g>
<defs>
<clipPath id="clip0_36_8143">
<rect width="24" height="24" fill="white"/>
</clipPath>
</defs>
</svg>
