<svg width="32" height="32" viewBox="0 0 32 32" fill="none" xmlns="http://www.w3.org/2000/svg">
<path fill-rule="evenodd" clip-rule="evenodd" d="M13.5554 0.113509C12.6925 0.293274 11.3923 0.728924 10.7552 1.05185C9.36824 1.75465 7.87089 3.12812 3.64087 7.57753C1.30643 10.033 1.0421 10.4356 1.04366 11.5332C1.04596 13.0898 2.25093 14.1233 3.94577 14.0225C4.89673 13.966 5.58649 13.6233 6.76028 12.6245C8.53166 11.117 8.80746 10.9021 9.28023 10.6612C9.72422 10.4348 9.76906 10.4307 10.1144 10.5846C10.3942 10.7092 11.0512 10.763 12.9298 10.8152C15.7202 10.8927 15.9199 10.9317 17.9348 11.7939C19.3853 12.4144 20.5773 12.8111 21.5889 13.0095C22.4987 13.1879 24.6884 13.1641 26.2735 12.9587C26.9887 12.866 27.6104 12.7901 27.6551 12.7901C27.6998 12.7901 27.8303 12.6963 27.945 12.5816C28.1466 12.3799 28.1535 12.234 28.1535 8.16614C28.1535 4.09535 28.1467 3.95323 27.9455 3.77107C27.782 3.623 27.4041 3.55397 26.1781 3.44824C23.7159 3.23573 23.3255 3.10425 20.0203 1.37395C18.0899 0.363345 17.0384 0.0460447 15.4844 0.00516999C14.7068 -0.0152674 13.9767 0.0257116 13.5554 0.113509ZM17.1187 1.58114C18.0021 1.7608 18.8557 2.14014 20.7502 3.19496C22.7875 4.32934 23.8652 4.66343 25.9912 4.81942L27.0065 4.89398V8.20337V11.5129L25.6446 11.6437C23.8401 11.8171 21.8798 11.7325 20.8545 11.4367C20.4243 11.3127 19.4624 10.9382 18.7169 10.6047C16.3808 9.55922 16.2777 9.53753 13.323 9.46475L10.7444 9.40125L10.4615 9.11825C10.2242 8.88062 10.18 8.74903 10.1869 8.29878C10.1929 7.89629 10.2508 7.70672 10.4188 7.53915C10.6397 7.31872 10.6949 7.3158 14.5903 7.3158C18.3259 7.3158 18.5497 7.30517 18.7577 7.11716C19.0114 6.88797 19.0438 6.45535 18.8292 6.16266C18.6866 5.96819 18.5253 5.96058 14.7365 5.96829C11.9769 5.97392 10.6587 6.01438 10.3477 6.10301C9.33988 6.39028 8.78619 7.28421 8.89495 8.44862L8.95657 9.10824L8.51884 9.35401C8.27807 9.48915 7.6588 10.0051 7.14265 10.5005C5.2986 12.2705 4.51207 12.7901 3.67685 12.7901C2.97426 12.7901 2.48095 12.4321 2.34185 11.8212C2.21996 11.2862 2.93693 10.3118 5.31163 7.78503C7.92177 5.00774 9.07231 3.88316 10.0623 3.14158C10.9598 2.46912 11.3549 2.26871 12.6111 1.8485C14.199 1.31744 15.4552 1.24288 17.1187 1.58114ZM10.5836 14.4715C10.1792 14.6988 10.1144 14.8901 10.114 15.86C10.1138 16.3796 10.083 17.4732 10.0457 18.2905L9.97771 19.7763H8.71643H7.45505L7.09031 19.2861C6.56623 18.5818 5.90713 18.2688 4.96138 18.2752C4.12011 18.2809 3.65589 18.4471 3.08781 18.9458C2.32037 19.6196 1.97815 20.684 2.19358 21.7268C2.51473 23.2817 3.50939 24.2868 4.74439 24.3047C6.38219 24.3282 7.54024 23.2678 7.55359 21.732L7.55974 21.0286L8.83708 21.0281L10.1144 21.0276V23.0524C10.1144 24.166 10.1436 25.1531 10.1792 25.2459C10.3268 25.6306 10.7689 25.7199 12.5335 25.721C13.4683 25.7216 14.4092 25.7512 14.6242 25.7868L15.0152 25.8514V26.9105V27.9696L14.545 28.3626C13.6216 29.1346 13.4564 29.9212 14.017 30.8778C14.4274 31.5782 14.9154 31.9035 15.6331 31.9554C17.2735 32.0741 18.2792 30.4059 17.4853 28.8833C17.301 28.5299 16.8955 28.1664 16.5707 28.0633C16.3897 28.0058 16.3707 27.8919 16.3707 26.8599V25.7199H18.4074C20.597 25.7199 20.9865 25.6483 21.31 25.1863C21.4613 24.9703 21.4801 24.4101 21.4801 20.1129C21.4801 14.9078 21.4744 14.8499 20.9316 14.5398C20.614 14.3584 10.8991 14.2942 10.5836 14.4715ZM20.2288 20.037V24.4686H15.8136H11.3984L11.3299 22.7314C11.2923 21.776 11.2614 19.7818 11.2614 18.2998V15.6054H15.7451H20.2288V20.037ZM14.2948 18.2163C13.8171 18.4175 13.7708 18.5881 13.7673 20.1597C13.7639 21.6344 13.7647 21.6386 14.0387 21.8542C14.2856 22.0484 14.455 22.0703 15.7117 22.0703C17.0574 22.0703 17.1197 22.0606 17.366 21.8143C17.6133 21.5672 17.622 21.5087 17.622 20.1121C17.622 18.6921 17.6171 18.661 17.353 18.4129C17.1024 18.1774 16.9971 18.1584 15.815 18.1353C15.1171 18.1217 14.433 18.1581 14.2948 18.2163ZM26.0159 18.3054C24.5878 18.6761 23.6832 19.9375 23.8001 21.3953C23.8971 22.6037 24.5713 23.6896 25.4903 24.1175C27.2938 24.9573 29.4048 23.4635 29.4048 21.3474C29.4048 20.3098 28.9187 19.318 28.0875 18.6597C27.7588 18.3993 27.5537 18.3277 27.0054 18.2814C26.6332 18.2499 26.188 18.2607 26.0159 18.3054ZM5.4013 19.6107C6.06666 19.9582 6.46488 20.6123 6.46488 21.3575C6.46488 22.6323 5.15699 23.4358 4.16025 22.7733C3.41137 22.2756 3.09386 20.958 3.54474 20.2186C3.9515 19.5513 4.77285 19.2823 5.4013 19.6107ZM16.3707 20.1413V20.8191H15.6408H14.9109V20.1413V19.4635H15.6408H16.3707V20.1413ZM26.9737 19.5748C27.6433 19.8285 28.1535 20.6149 28.1535 21.3936C28.1535 22.9551 26.3262 23.6909 25.4506 22.4821C25.0804 21.9711 24.876 21.2485 24.966 20.7689C25.1317 19.8854 26.1675 19.2694 26.9737 19.5748ZM25.5988 24.6847C24.3879 24.888 23.325 25.4824 22.7561 26.2745C22.1466 27.1232 21.9721 27.8622 21.9198 29.817C21.8778 31.3866 21.8921 31.5891 22.0577 31.7721C22.2868 32.0254 22.7492 32.0365 22.9674 31.7937C23.1004 31.6459 23.1381 31.2651 23.1661 29.7865C23.1999 27.9988 23.2066 27.9515 23.4965 27.4583C24.062 26.4963 25.2182 25.9877 26.8501 25.9834C28.0888 25.98 28.7948 26.1851 29.2707 26.6867C29.9473 27.3998 30.1347 28.1594 30.1347 30.1888C30.1347 31.8038 30.1959 31.983 30.753 31.9988C31.3685 32.0163 31.4081 31.8656 31.3601 29.6822C31.3117 27.4863 31.1835 26.9761 30.4444 26.0412C29.5897 24.9598 27.4795 24.3691 25.5988 24.6847ZM3.38885 24.836C2.44143 25.045 1.82591 25.3489 1.2399 25.8969C0.24796 26.8248 0 27.6454 0 30.0001C0 31.4201 0.0185605 31.5777 0.208545 31.7677C0.323244 31.8823 0.510934 31.9762 0.625634 31.9762C0.740333 31.9762 0.928023 31.8823 1.04272 31.7677C1.22812 31.5823 1.25168 31.4174 1.25471 30.2818C1.2618 27.6042 1.47639 27.0242 2.67865 26.4324C3.37321 26.0903 3.40699 26.0848 4.79652 26.0848C6.18282 26.0848 6.2213 26.0911 6.90647 26.4284C8.10727 27.0195 8.33907 27.5587 8.43239 29.9776C8.4912 31.4995 8.51977 31.6963 8.70058 31.8284C8.91924 31.9881 9.26292 32.0194 9.44707 31.8964C9.74643 31.6965 9.78428 31.3773 9.69774 29.7825C9.60243 28.0286 9.48982 27.3777 9.1744 26.7595C8.36941 25.1817 5.75812 24.3135 3.38885 24.836ZM16.3631 29.4356C16.6499 29.8 16.6361 30.1562 16.3233 30.4689C16.0442 30.7482 15.7528 30.7911 15.3993 30.605C15.0951 30.4449 15.0188 30.314 15.0168 29.9496C15.013 29.2308 15.9275 28.8817 16.3631 29.4356Z" fill="#3C0483"/>
</svg>
