<svg width="33" height="33" viewBox="0 0 33 33" fill="none" xmlns="http://www.w3.org/2000/svg">
<path d="M21.8913 12.4565L14.4783 19.8696L11.1087 16.5M26.9273 20.7273C26.7397 21.1523 26.6837 21.6237 26.7666 22.0808C26.8495 22.5379 27.0674 22.9597 27.3923 23.2918L27.4768 23.3764C27.7388 23.6381 27.9467 23.9489 28.0885 24.291C28.2304 24.6332 28.3034 24.9999 28.3034 25.3702C28.3034 25.7406 28.2304 26.1073 28.0885 26.4494C27.9467 26.7915 27.7388 27.1024 27.4768 27.3641C27.2151 27.6261 26.9043 27.834 26.5622 27.9758C26.22 28.1176 25.8533 28.1906 25.483 28.1906C25.1126 28.1906 24.7459 28.1176 24.4038 27.9758C24.0616 27.834 23.7508 27.6261 23.4891 27.3641L23.4045 27.2795C23.0725 26.9547 22.6507 26.7368 22.1936 26.6539C21.7365 26.571 21.265 26.627 20.84 26.8145C20.4232 26.9932 20.0678 27.2898 19.8174 27.6678C19.5671 28.0458 19.4327 28.4888 19.4309 28.9423V29.1818C19.4309 29.9292 19.134 30.6461 18.6055 31.1746C18.077 31.7031 17.3602 32 16.6127 32C15.8653 32 15.1485 31.7031 14.62 31.1746C14.0915 30.6461 13.7945 29.9292 13.7945 29.1818V29.055C13.7836 28.5886 13.6327 28.1363 13.3613 27.7568C13.0899 27.3773 12.7106 27.0883 12.2727 26.9273C11.8477 26.7397 11.3763 26.6837 10.9192 26.7666C10.4621 26.8495 10.0403 27.0674 9.70818 27.3923L9.62364 27.4768C9.3619 27.7388 9.05109 27.9467 8.70897 28.0885C8.36685 28.2304 8.00013 28.3034 7.62977 28.3034C7.25942 28.3034 6.8927 28.2304 6.55058 28.0885C6.20846 27.9467 5.89764 27.7388 5.63591 27.4768C5.37388 27.2151 5.16602 26.9043 5.0242 26.5622C4.88237 26.22 4.80937 25.8533 4.80937 25.483C4.80937 25.1126 4.88237 24.7459 5.0242 24.4038C5.16602 24.0616 5.37388 23.7508 5.63591 23.4891L5.72045 23.4045C6.0453 23.0725 6.26322 22.6507 6.3461 22.1936C6.42898 21.7365 6.37303 21.265 6.18545 20.84C6.00683 20.4232 5.71025 20.0678 5.3322 19.8174C4.95416 19.5671 4.51115 19.4327 4.05773 19.4309H3.81818C3.07075 19.4309 2.35394 19.134 1.82543 18.6055C1.29691 18.077 1 17.3602 1 16.6127C1 15.8653 1.29691 15.1485 1.82543 14.62C2.35394 14.0915 3.07075 13.7945 3.81818 13.7945H3.945C4.4114 13.7836 4.86373 13.6327 5.24319 13.3613C5.62265 13.0899 5.91169 12.7106 6.07273 12.2727C6.2603 11.8477 6.31625 11.3763 6.23337 10.9192C6.15049 10.4621 5.93257 10.0403 5.60773 9.70818L5.52318 9.62364C5.26116 9.3619 5.05329 9.05109 4.91147 8.70897C4.76965 8.36685 4.69665 8.00013 4.69665 7.62977C4.69665 7.25942 4.76965 6.8927 4.91147 6.55058C5.05329 6.20846 5.26116 5.89764 5.52318 5.63591C5.78492 5.37388 6.09573 5.16602 6.43785 5.0242C6.77997 4.88237 7.14669 4.80937 7.51705 4.80937C7.8874 4.80937 8.25412 4.88237 8.59624 5.0242C8.93836 5.16602 9.24918 5.37388 9.51091 5.63591L9.59545 5.72045C9.92755 6.0453 10.3493 6.26322 10.8064 6.3461C11.2635 6.42898 11.735 6.37303 12.16 6.18545H12.2727C12.6895 6.00683 13.0449 5.71025 13.2953 5.3322C13.5457 4.95416 13.68 4.51115 13.6818 4.05773V3.81818C13.6818 3.07075 13.9787 2.35394 14.5072 1.82543C15.0358 1.29691 15.7526 1 16.5 1C17.2474 1 17.9642 1.29691 18.4928 1.82543C19.0213 2.35394 19.3182 3.07075 19.3182 3.81818V3.945C19.32 4.39843 19.4543 4.84143 19.7047 5.21947C19.9551 5.59752 20.3105 5.89411 20.7273 6.07273C21.1523 6.2603 21.6237 6.31625 22.0808 6.23337C22.5379 6.15049 22.9597 5.93257 23.2918 5.60773L23.3764 5.52318C23.6381 5.26116 23.9489 5.05329 24.291 4.91147C24.6332 4.76965 24.9999 4.69665 25.3702 4.69665C25.7406 4.69665 26.1073 4.76965 26.4494 4.91147C26.7915 5.05329 27.1024 5.26116 27.3641 5.52318C27.6261 5.78492 27.834 6.09573 27.9758 6.43785C28.1176 6.77997 28.1906 7.14669 28.1906 7.51705C28.1906 7.8874 28.1176 8.25412 27.9758 8.59624C27.834 8.93836 27.6261 9.24918 27.3641 9.51091L27.2795 9.59545C26.9547 9.92755 26.7368 10.3493 26.6539 10.8064C26.571 11.2635 26.627 11.735 26.8145 12.16V12.2727C26.9932 12.6895 27.2898 13.0449 27.6678 13.2953C28.0458 13.5457 28.4888 13.68 28.9423 13.6818H29.1818C29.9292 13.6818 30.6461 13.9787 31.1746 14.5072C31.7031 15.0358 32 15.7526 32 16.5C32 17.2474 31.7031 17.9642 31.1746 18.4928C30.6461 19.0213 29.9292 19.3182 29.1818 19.3182H29.055C28.6016 19.32 28.1586 19.4543 27.7805 19.7047C27.4025 19.9551 27.1059 20.3105 26.9273 20.7273Z" stroke="#3C0483" stroke-width="2" stroke-linecap="round" stroke-linejoin="round"/>
</svg>
