<svg width="32" height="28" viewBox="0 0 32 28" fill="none" xmlns="http://www.w3.org/2000/svg">
<path fill-rule="evenodd" clip-rule="evenodd" d="M14.0232 0.0321632C9.96571 0.549151 6.05552 2.6115 2.37906 6.17339C1.64653 6.88317 1.01777 7.55669 0.981727 7.67023C0.905898 7.90914 1.18844 8.27738 1.44761 8.27738C1.54058 8.27738 1.89562 7.99297 2.23654 7.6453C3.86064 5.98953 6.00847 4.44594 8.4271 3.19611C11.0436 1.84406 12.7856 1.39553 15.4774 1.38088C17.0172 1.37247 17.3045 1.4002 18.3042 1.65335C21.1157 2.36531 23.8083 3.76264 26.1247 5.71207C27.1384 6.5652 28.6364 8.0582 29.4281 9.00451C29.8344 9.49013 30.2156 9.92184 30.2751 9.9638C30.6092 10.1989 31.0588 9.8915 31.0588 9.42812C31.0588 9.03152 30.253 7.98715 28.7791 6.47338C25.3177 2.91814 22.1038 1.05212 18.1137 0.280945C17.0261 0.0708048 14.7881 -0.0653758 14.0232 0.0321632ZM13.0364 4.68547C11.7504 4.99305 10.4208 5.47368 9.63279 5.91577C7.70559 6.99701 2.54588 11.0218 0.992115 12.6559L0 13.6993V14.3012V14.9032L1.62295 16.4763C3.65652 18.4473 4.9077 19.497 6.47809 20.5494C8.00735 21.5743 8.92155 22.037 10.8358 22.7555C13.1237 23.6144 14.0292 23.793 15.7651 23.7278C16.8293 23.6879 17.4499 23.6066 18.2098 23.4076C19.4791 23.075 20.6907 22.503 20.9768 22.1013C21.1845 21.8097 21.1856 21.7892 21.0093 21.4794C20.7627 21.0463 20.4875 21.0628 19.3906 21.5768C18.1498 22.1583 17.0958 22.4182 15.7371 22.4778C14.2422 22.5434 13.1126 22.3102 11.1147 21.5235C8.00537 20.2992 6.69934 19.3846 2.58567 15.5506C1.82052 14.8375 1.18106 14.2245 1.16455 14.1882C1.12227 14.0952 2.88628 12.4417 4.27946 11.2683C5.97897 9.83686 9.0515 7.62432 10.0759 7.09424C10.9627 6.63542 12.395 6.1335 13.5557 5.87485C14.4754 5.6698 17.2257 5.69628 18.0285 5.91775C19.5845 6.34706 21.1897 7.18492 22.1665 8.07773C23.0642 8.89814 24.1738 10.8402 24.5214 12.1993C24.9385 13.8301 24.7476 15.2407 23.8229 17.36C23.4208 18.2816 23.4263 18.6224 23.8452 18.7276C24.2291 18.824 24.4778 18.5497 24.9996 17.4552C25.6155 16.1631 25.8654 15.1338 25.8634 13.896C25.8617 12.7189 25.6998 11.9616 25.2009 10.7964C24.9992 10.3251 24.8567 9.93939 24.8842 9.93939C25.1834 9.93939 27.136 11.5208 28.6072 12.9546L29.8481 14.1638L28.2514 15.7132C27.3733 16.5654 26.1928 17.7088 25.6283 18.2541C24.7494 19.1031 24.5993 19.2967 24.5842 19.6007C24.5574 20.1397 24.8176 20.1095 25.7894 19.4613C27.2512 18.4863 30.3375 15.4752 30.8377 14.5359C30.998 14.235 30.9099 14.0664 30.0648 13.0557C28.7794 11.5185 27.3441 10.2646 25.3605 8.94603C24.6381 8.46592 23.6732 7.73983 23.2162 7.33253C21.6589 5.94496 20.4085 5.25107 18.6061 4.77387C17.766 4.55147 17.3256 4.50359 15.841 4.47315C14.2611 4.44085 13.9657 4.46318 13.0364 4.68547ZM14.2829 8.48721C12.3221 8.87976 10.5432 10.4537 9.97215 12.301C9.28844 14.5135 9.83026 16.6791 11.4735 18.3014C13.5443 20.3458 16.8998 20.4704 18.9348 18.5783C19.323 18.2173 19.4692 18.1334 19.5073 18.2494C19.5354 18.3351 20.0099 18.8727 20.5618 19.444C21.1137 20.0153 21.755 20.7398 21.9869 21.0541C22.2189 21.3683 23.1512 22.3759 24.0589 23.2931C25.6205 24.8711 26.813 25.8323 27.2091 25.8323C27.5079 25.8323 27.8697 25.3669 27.7831 25.0939C27.6824 24.7768 21.1206 18.0741 20.5231 17.6781C20.2644 17.5067 20.0659 17.3431 20.0818 17.3145C20.3507 16.8318 20.7755 15.7923 20.8721 15.3809C21.1654 14.1317 20.9733 12.5021 20.39 11.2898C20.0214 10.5238 18.9211 9.43196 18.1001 9.0175C16.9726 8.44836 15.4994 8.24373 14.2829 8.48721ZM16.1125 9.73216C18.0744 10.0983 19.5708 11.8078 19.7108 13.8429C19.8006 15.1491 19.2811 16.4309 18.2975 17.3299C16.8346 18.6668 14.8719 19.0256 13.3775 18.2291C11.6131 17.2887 10.7046 15.6836 10.8313 13.7308C10.9058 12.5831 11.2089 11.8397 11.912 11.0803C12.9806 9.92609 14.5143 9.43393 16.1125 9.73216ZM3.79145 21.6984C2.95079 22.1717 3.61954 23.0536 6.0255 24.6447C9.5473 26.9737 11.9143 27.8318 15.2178 27.9772C16.3971 28.0291 16.7267 28.0041 17.8195 27.7796C18.5078 27.6382 19.5595 27.327 20.1567 27.088C21.2908 26.6342 23.1554 25.6334 23.4894 25.2995C23.7622 25.0266 23.7311 24.6853 23.398 24.2963L23.1123 23.9627L22.0735 24.5986C19.8362 25.9684 18.1089 26.5736 16.0331 26.7149C14.8467 26.7957 13.292 26.5982 11.8702 26.1861C10.3201 25.737 7.74755 24.2808 5.69186 22.6889C5.23158 22.3325 4.75604 21.965 4.63492 21.8723C4.31197 21.625 4.02653 21.5661 3.79145 21.6984Z" fill="#3C0483"/>
</svg>
