<svg width="24" height="24" viewBox="0 0 24 24" fill="none" xmlns="http://www.w3.org/2000/svg">
<path d="M9.11621 15.5H7.61622C6.22065 15.5 5.52287 15.5 4.95507 15.6722C3.67667 16.06 2.67625 17.0605 2.28845 18.3389C2.11621 18.9067 2.11621 19.6044 2.11621 21M14.6162 7.5C14.6162 9.98528 12.6015 12 10.1162 12C7.63093 12 5.61621 9.98528 5.61621 7.5C5.61621 5.01472 7.63093 3 10.1162 3C12.6015 3 14.6162 5.01472 14.6162 7.5ZM11.1162 21L14.2176 20.1139C14.3661 20.0715 14.4403 20.0502 14.5096 20.0184C14.5711 19.9902 14.6296 19.9558 14.6841 19.9158C14.7455 19.8707 14.8002 19.8161 14.9094 19.7068L21.3663 13.25C22.0566 12.5597 22.0566 11.4403 21.3662 10.75C20.6759 10.0596 19.5566 10.0596 18.8662 10.75L12.4094 17.2068C12.3002 17.3161 12.2456 17.3707 12.2004 17.4321C12.1604 17.4866 12.126 17.5451 12.0978 17.6066C12.066 17.6759 12.0447 17.7501 12.0023 17.8987L11.1162 21Z" stroke="black" stroke-width="2" stroke-linecap="round" stroke-linejoin="round"/>
</svg>
