<svg width="40" height="40" viewBox="0 0 40 40" fill="none" xmlns="http://www.w3.org/2000/svg">
<path d="M4 4C4 1.79086 5.79086 0 8 0H24L36 12V36C36 38.2091 34.2091 40 32 40H8C5.79086 40 4 38.2091 4 36V4Z" fill="#DD2590"/>
<path opacity="0.3" d="M24 0L36 12H28C25.7909 12 24 10.2091 24 8V0Z" fill="white"/>
<g clip-path="url(#clip0_23_3766)">
<path d="M17.2002 28V20.237C17.2002 19.9159 17.2002 19.7554 17.2586 19.6252C17.3101 19.5105 17.393 19.4126 17.4977 19.343C17.6165 19.264 17.7748 19.2376 18.0915 19.1848L23.9582 18.207C24.3855 18.1358 24.5991 18.1002 24.7657 18.162C24.9118 18.2163 25.0343 18.3201 25.1118 18.4553C25.2002 18.6094 25.2002 18.826 25.2002 19.2592V26.6667M17.2002 28C17.2002 29.1046 16.3048 30 15.2002 30C14.0956 30 13.2002 29.1046 13.2002 28C13.2002 26.8954 14.0956 26 15.2002 26C16.3048 26 17.2002 26.8954 17.2002 28ZM25.2002 26.6667C25.2002 27.7713 24.3048 28.6667 23.2002 28.6667C22.0956 28.6667 21.2002 27.7713 21.2002 26.6667C21.2002 25.5621 22.0956 24.6667 23.2002 24.6667C24.3048 24.6667 25.2002 25.5621 25.2002 26.6667Z" stroke="white" stroke-width="1.5" stroke-linecap="round" stroke-linejoin="round"/>
</g>
<defs>
<clipPath id="clip0_23_3766">
<rect width="16" height="16" fill="white" transform="translate(12 16)"/>
</clipPath>
</defs>
</svg>
