<svg width="40" height="40" viewBox="0 0 40 40" fill="none" xmlns="http://www.w3.org/2000/svg">
<path d="M4 4C4 1.79086 5.79086 0 8 0H24L36 12V36C36 38.2091 34.2091 40 32 40H8C5.79086 40 4 38.2091 4 36V4Z" fill="#7F56D9"/>
<path opacity="0.3" d="M24 0L36 12H28C25.7909 12 24 10.2091 24 8V0Z" fill="white"/>
<path d="M20.6668 20.6667L19.9231 19.1793C19.7091 18.7512 19.6021 18.5372 19.4424 18.3808C19.3012 18.2425 19.131 18.1373 18.9442 18.0729C18.7329 18 18.4936 18 18.015 18H15.4668C14.7201 18 14.3467 18 14.0615 18.1453C13.8106 18.2732 13.6067 18.4771 13.4788 18.728C13.3335 19.0132 13.3335 19.3866 13.3335 20.1333V20.6667M13.3335 20.6667H23.4668C24.5869 20.6667 25.147 20.6667 25.5748 20.8847C25.9511 21.0764 26.2571 21.3824 26.4488 21.7587C26.6668 22.1865 26.6668 22.7466 26.6668 23.8667V26.8C26.6668 27.9201 26.6668 28.4802 26.4488 28.908C26.2571 29.2843 25.9511 29.5903 25.5748 29.782C25.147 30 24.5869 30 23.4668 30H16.5335C15.4134 30 14.8533 30 14.4255 29.782C14.0492 29.5903 13.7432 29.2843 13.5515 28.908C13.3335 28.4802 13.3335 27.9201 13.3335 26.8V20.6667Z" stroke="white" stroke-width="1.5" stroke-linecap="round" stroke-linejoin="round"/>
</svg>
