<svg width="40" height="40" viewBox="0 0 40 40" fill="none" xmlns="http://www.w3.org/2000/svg">
<path d="M4 4C4 1.79086 5.79086 0 8 0H24L36 12V36C36 38.2091 34.2091 40 32 40H8C5.79086 40 4 38.2091 4 36V4Z" fill="#155EEF"/>
<path opacity="0.3" d="M24 0L36 12H28C25.7909 12 24 10.2091 24 8V0Z" fill="white"/>
<path d="M13.3335 24H26.6668M13.3335 20.6666H16.6668M23.3335 20.6666H26.6668M13.3335 27.3333H16.6668M23.3335 27.3333H26.6668M16.6668 30.6666V17.3333M23.3335 30.6666V17.3333M16.5335 30.6666H23.4668C24.5869 30.6666 25.147 30.6666 25.5748 30.4487C25.9511 30.2569 26.2571 29.951 26.4488 29.5746C26.6668 29.1468 26.6668 28.5868 26.6668 27.4666V20.5333C26.6668 19.4132 26.6668 18.8532 26.4488 18.4253C26.2571 18.049 25.9511 17.743 25.5748 17.5513C25.147 17.3333 24.5869 17.3333 23.4668 17.3333H16.5335C15.4134 17.3333 14.8533 17.3333 14.4255 17.5513C14.0492 17.743 13.7432 18.049 13.5515 18.4253C13.3335 18.8532 13.3335 19.4132 13.3335 20.5333V27.4666C13.3335 28.5868 13.3335 29.1468 13.5515 29.5746C13.7432 29.951 14.0492 30.2569 14.4255 30.4487C14.8533 30.6666 15.4134 30.6666 16.5335 30.6666Z" stroke="white" stroke-width="1.5" stroke-linecap="round" stroke-linejoin="round"/>
</svg>
