<svg width="614" height="122" viewBox="0 0 614 122" fill="none" xmlns="http://www.w3.org/2000/svg">
<path d="M0.133484 121.011V76.365H17.7258C29.6601 76.365 36.2456 80.8172 36.2456 90.9274V91.0511C36.2456 101.13 29.7529 105.582 17.8495 105.582H10.0272V121.011H0.133484ZM10.0272 97.5747H17.5094C23.1983 97.5747 25.8572 95.596 25.8572 91.082V90.9274C25.8572 86.3825 23.1983 84.4037 17.5094 84.4037H10.0272V97.5747Z" fill="white"/>
<path d="M41.8727 121.011V76.365H59.6505C70.8737 76.365 78.1703 78.9622 78.1703 88.2684V88.3921C78.1703 94.6685 74.9549 97.853 70.6882 99.368C74.3983 100.512 76.4698 102.398 77.0573 108.612L77.4901 113.065C78.1085 119.217 78.3867 120.052 78.8505 121.011H68.6476C68.2766 119.959 67.9983 118.444 67.8437 116.868L67.1945 110.437C66.6379 104.5 64.9375 103.758 59.6196 103.758H51.7664V121.011H41.8727ZM51.7664 96.1834H59.5268C65.2775 96.1834 67.8437 94.6375 67.8437 90.2472V90.1235C67.8437 85.7332 65.2775 84.1873 59.5268 84.1873H51.7664V96.1834Z" fill="white"/>
<path d="M104.42 122C92.238 122 85.6834 116.713 85.6834 103.449V76.365H95.5771V103.356C95.5771 110.684 98.5452 113.776 104.42 113.776C110.325 113.776 113.293 110.684 113.293 103.356V76.365H123.187V103.449C123.187 116.713 116.601 122 104.42 122ZM91.9906 70.6452V62.823H100.524V70.6452H91.9906ZM108.377 70.6452V62.823H116.91V70.6452H108.377Z" fill="white"/>
<path d="M131.658 121.011V76.365H163.689V84.5583H141.552V94.4211H161.494V102.614H141.552V121.011H131.658Z" fill="white"/>
<path d="M169.564 121.011V76.365H187.156C199.09 76.365 205.676 80.8172 205.676 90.9274V91.0511C205.676 101.13 199.183 105.582 187.28 105.582H179.457V121.011H169.564ZM179.457 97.5747H186.94C192.628 97.5747 195.287 95.596 195.287 91.082V90.9274C195.287 86.3825 192.628 84.4037 186.94 84.4037H179.457V97.5747Z" fill="white"/>
<path d="M232.327 122C218.198 122 209.262 113.157 209.262 99.0588V98.2549C209.262 84.1564 218.198 75.3448 232.327 75.3448C246.457 75.3448 255.423 84.1564 255.423 98.2549V99.0588C255.423 113.157 246.457 122 232.327 122ZM232.327 113.807C240.18 113.807 245.003 108.365 245.003 99.1516V98.1622C245.003 88.9177 240.18 83.538 232.327 83.538C224.505 83.538 219.682 88.9177 219.682 98.1622V99.1516C219.682 108.365 224.505 113.807 232.327 113.807Z" fill="white"/>
<path d="M262.318 121.011V76.365H280.095C291.319 76.365 298.615 78.9622 298.615 88.2684V88.3921C298.615 94.6685 295.4 97.853 291.133 99.368C294.843 100.512 296.915 102.398 297.502 108.612L297.935 113.065C298.553 119.217 298.832 120.052 299.295 121.011H289.092C288.721 119.959 288.443 118.444 288.289 116.868L287.639 110.437C287.083 104.5 285.382 103.758 280.064 103.758H272.211V121.011H262.318ZM272.211 96.1834H279.972C285.722 96.1834 288.289 94.6375 288.289 90.2472V90.1235C288.289 85.7332 285.722 84.1873 279.972 84.1873H272.211V96.1834Z" fill="white"/>
<path d="M316.022 121.011V84.5892H301.521V76.365H340.416V84.5892H325.916V121.011H316.022Z" fill="white"/>
<path d="M335.686 121.011L352.32 76.365H364.656L381.321 121.011H370.747L366.944 110.313H349.506L345.734 121.011H335.686ZM352.165 102.243H364.285L358.225 85.3003H358.163L352.165 102.243Z" fill="white"/>
<path d="M385.927 121.011V76.365H395.821V112.817H415.732V121.011H385.927Z" fill="white"/>
<g clip-path="url(#clip0_115_9857)">
<path d="M0.133484 1.16058H18.3455L30.5324 39.8123H30.6024L42.7546 1.16058H61.0013V51.9923H49.4409V29.7446L49.6495 13.3756H49.5802L36.6962 51.9923H24.4386L11.5199 13.3756H11.4506L11.6592 29.7446V51.9923H0.133484V1.16058ZM69.3817 1.16058H81.6039V51.9923H69.3817V1.16058ZM102.742 51.9054C99.8744 51.0725 97.4428 49.9109 95.4464 48.4202C93.4501 46.9303 91.86 45.17 90.6764 43.1401C89.4927 41.1102 88.7031 38.8866 88.3083 36.4693H100.983C101.262 37.7134 101.72 38.8221 102.359 39.7958C102.997 40.7699 103.815 41.5736 104.813 42.2073C105.812 42.8406 106.995 43.316 108.365 43.633C109.735 43.9497 111.278 44.108 112.997 44.108C114.018 44.108 114.976 44.0613 115.869 43.9672C116.763 43.8738 117.593 43.7268 118.359 43.5272C119.125 43.328 119.816 43.0756 120.431 42.7702C121.046 42.4656 121.568 42.1015 121.998 41.679C122.427 41.2565 122.758 40.7761 122.99 40.2358C123.222 39.6962 123.339 39.0862 123.339 38.4054V38.3701C123.339 37.3376 123.129 36.4693 122.711 35.7652C122.294 35.0611 121.667 34.4628 120.831 33.9699C119.996 33.477 118.986 33.0608 117.802 32.72C116.618 32.3804 115.26 32.0812 113.728 31.8225L105.858 30.3439C103.304 29.8747 100.995 29.2235 98.9289 28.3903C96.8625 27.5577 95.1159 26.5071 93.6882 25.2397C92.2606 23.9726 91.1751 22.4885 90.4324 20.7866C89.689 19.0854 89.318 17.1431 89.318 14.9607V14.8903C89.318 13.3887 89.562 11.9805 90.0492 10.666C90.5371 9.35191 91.2386 8.13741 92.156 7.02251C93.0726 5.90833 94.1812 4.92258 95.4818 4.0656C96.7817 3.20936 98.2555 2.48154 99.904 1.88322C101.552 1.28455 103.334 0.821585 105.249 0.492513C107.164 0.164171 109.189 0 111.325 0C114.598 0 117.535 0.351691 120.135 1.0558C122.735 1.75991 124.986 2.78689 126.89 4.13601C128.794 5.48587 130.314 7.11079 131.452 9.01153C132.589 10.9126 133.355 13.072 133.75 15.4886H121.18C120.854 14.292 120.379 13.2946 119.752 12.4967C119.125 11.6992 118.377 11.0535 117.506 10.5606C116.636 10.0677 115.631 9.70397 114.494 9.46902C113.356 9.2348 112.114 9.11733 110.768 9.11733C109.886 9.11733 109.044 9.16439 108.244 9.25815C107.443 9.35191 106.706 9.49273 106.032 9.68025C105.359 9.8685 104.738 10.1089 104.17 10.4019C103.6 10.6959 103.125 11.0418 102.742 11.4405C102.359 11.84 102.057 12.2975 101.836 12.8134C101.615 13.33 101.506 13.8932 101.506 14.5032V14.5736C101.506 15.3478 101.656 16.0464 101.958 16.6681C102.26 17.2901 102.73 17.8417 103.368 18.3226C104.006 18.8038 104.813 19.2146 105.788 19.5546C106.764 19.895 107.901 20.1941 109.201 20.4524L117.036 21.9307C120.031 22.4473 122.677 23.1102 124.975 23.9197C127.274 24.7293 129.212 25.7325 130.79 26.9295C132.369 28.1261 133.559 29.5581 134.36 31.2242C135.16 32.8908 135.561 34.8736 135.561 37.1734V37.2789C135.561 39.837 135.009 42.1015 133.907 44.073C132.804 46.0441 131.237 47.7107 129.206 49.0714C127.174 50.433 124.761 51.4538 121.963 52.1341C119.165 52.8145 116.061 53.1549 112.649 53.1549C108.911 53.1549 105.609 52.7379 102.742 51.9054ZM153.347 51.9063C150.479 51.0734 148.048 49.9118 146.051 48.4212C144.055 46.9312 142.465 45.1709 141.281 43.1411C140.097 41.1112 139.308 38.8876 138.913 36.4702H151.588C151.866 37.7143 152.325 38.823 152.963 39.7967C153.602 40.7708 154.42 41.5745 155.418 42.2082C156.416 42.8415 157.6 43.3169 158.97 43.6339C160.34 43.9506 161.883 44.1089 163.601 44.1089C164.623 44.1089 165.58 44.0622 166.474 43.9681C167.368 43.8747 168.198 43.7277 168.964 43.5281C169.73 43.3289 170.421 43.0765 171.036 42.7711C171.65 42.4665 172.173 42.1024 172.602 41.6799C173.032 41.2575 173.363 40.777 173.595 40.2367C173.827 39.6971 173.943 39.0871 173.943 38.4064V38.371C173.943 37.3385 173.734 36.4702 173.316 35.7661C172.899 35.062 172.272 34.4637 171.436 33.9708C170.6 33.478 169.591 33.0617 168.407 32.7209C167.223 32.3813 165.865 32.0821 164.333 31.8235L156.463 30.3448C153.909 29.8757 151.599 29.2245 149.534 28.3912C147.467 27.5587 145.721 26.508 144.293 25.2406C142.865 23.9735 141.78 22.4894 141.037 20.7875C140.294 19.0864 139.923 17.144 139.923 14.9616V14.8912C139.923 13.3896 140.167 11.9814 140.654 10.6669C141.142 9.35284 141.843 8.13834 142.761 7.02343C143.677 5.90926 144.786 4.9235 146.087 4.06653C147.386 3.21029 148.86 2.48246 150.509 1.88415C152.157 1.28547 153.939 0.822512 155.853 0.49344C157.769 0.165099 159.794 0.000927468 161.93 0.000927468C165.203 0.000927468 168.14 0.352618 170.74 1.05673C173.339 1.76084 175.591 2.78782 177.495 4.13694C179.398 5.48679 180.919 7.11172 182.057 9.01246C183.194 10.9136 183.96 13.073 184.355 15.4895H171.785C171.459 14.2929 170.984 13.2955 170.357 12.4976C169.73 11.7001 168.981 11.0544 168.111 10.5615C167.241 10.0686 166.236 9.70489 165.099 9.46995C163.961 9.23573 162.719 9.11826 161.373 9.11826C160.491 9.11826 159.649 9.16532 158.849 9.25908C158.048 9.35284 157.311 9.49366 156.637 9.68118C155.964 9.86943 155.343 10.1098 154.774 10.4028C154.205 10.6969 153.73 11.0427 153.347 11.4415C152.963 11.8409 152.662 12.2984 152.441 12.8143C152.22 13.3309 152.11 13.8942 152.11 14.5042V14.5746C152.11 15.3487 152.261 16.0474 152.563 16.669C152.865 17.2911 153.334 17.8427 153.973 18.3235C154.611 18.8047 155.418 19.2155 156.393 19.5555C157.368 19.8959 158.506 20.1951 159.806 20.4534L167.641 21.9316C170.636 22.4482 173.282 23.1111 175.58 23.9206C177.878 24.7302 179.816 25.7335 181.395 26.9304C182.973 28.1271 184.164 29.559 184.965 31.2252C185.765 32.8917 186.166 34.8745 186.166 37.1744V37.2798C186.166 39.8379 185.614 42.1024 184.511 44.0739C183.409 46.0451 181.842 47.7116 179.811 49.0724C177.779 50.4339 175.365 51.4547 172.568 52.1351C169.77 52.8155 166.666 53.1559 163.254 53.1559C159.516 53.1559 156.214 52.7389 153.347 51.9063ZM192.87 1.16372H205.092V51.9954H192.87V1.16372ZM232.411 52.313C229.88 51.7501 227.553 50.9227 225.429 49.8315C223.305 48.7403 221.395 47.4145 219.701 45.8535C218.007 44.2931 216.572 42.5332 215.401 40.5734C214.228 38.6143 213.334 36.4607 212.72 34.1138C212.104 31.7672 211.797 29.2558 211.797 26.5805V26.5101C211.797 22.497 212.487 18.8656 213.869 15.615C215.249 12.3648 217.2 9.57787 219.719 7.25467C222.237 4.9311 225.255 3.142 228.772 1.88628C232.289 0.630915 236.183 0.0030519 240.455 0.0030519C243.287 0.0030519 245.968 0.284332 248.499 0.84762C251.028 1.41091 253.356 2.23286 255.48 3.31201C257.604 4.39153 259.502 5.70562 261.173 7.25467C262.845 8.80335 264.273 10.5582 265.456 12.5173C266.64 14.4771 267.539 16.6358 268.155 18.9944C268.77 21.3529 269.078 23.8582 269.078 26.5101V26.5805C269.078 30.6173 268.392 34.2604 267.023 37.5107C265.653 40.7612 263.709 43.5478 261.191 45.8713C258.672 48.1945 255.654 49.9898 252.137 51.2572C248.62 52.5243 244.726 53.158 240.455 53.158C237.622 53.158 234.941 52.8763 232.411 52.313ZM244.877 42.6678C246.247 42.3395 247.517 41.8466 248.69 41.1892C249.862 40.5325 250.924 39.7284 251.876 38.7781C252.828 37.8277 253.629 36.7423 254.278 35.5216C254.928 34.3017 255.427 32.9405 255.776 31.4385C256.124 29.9369 256.299 28.3174 256.299 26.5805V26.5101C256.299 23.9286 255.91 21.6171 255.132 19.5752C254.353 17.5336 253.269 15.797 251.876 14.3655C250.483 12.9343 248.817 11.8485 246.879 11.109C244.94 10.3699 242.799 10.0003 240.455 10.0003C238.875 10.0003 237.402 10.1649 236.032 10.4932C234.663 10.8219 233.386 11.3203 232.202 11.9894C231.018 12.6581 229.956 13.4622 229.016 14.4005C228.076 15.3395 227.28 16.4191 226.631 17.639C225.981 18.8597 225.475 20.2089 225.116 21.6875C224.756 23.1658 224.576 24.7735 224.576 26.5101V26.5805C224.576 29.1854 224.971 31.5148 225.76 33.568C226.549 35.622 227.646 37.3585 229.051 38.7781C230.455 40.1983 232.12 41.2833 234.048 42.0341C235.974 42.7857 238.11 43.1607 240.455 43.1607C242.033 43.1607 243.507 42.9969 244.877 42.6678ZM275.782 1.16507H289.468L311.788 36.4374H311.857L311.579 24.4686V1.16507H323.105V51.9968H309.35L287.099 17.6395H287.03L287.308 29.6787V51.9968H275.782V1.16507ZM403.824 1.16487H416.047V51.9966H403.824V1.16487ZM398.796 1.16578H383.927L368.986 20.6148H360.468V1.16507H348.246V51.9973H360.468V32.5476H368.986L383.927 51.9966H398.796L379.514 26.5812L398.796 1.16578ZM441.188 1.16487H443.122L448.948 10.89H448.964L448.94 7.34963V1.16487H450.475V13.0258H448.549L442.732 3.32545H442.707L442.74 6.86512V13.0258H441.188V1.16487ZM454.874 13.0871C454.5 12.9755 454.175 12.8069 453.898 12.5822C453.623 12.3574 453.407 12.0852 453.253 11.7649C453.098 11.4446 453.022 11.079 453.022 10.6682V10.6025C453.022 10.3019 453.059 10.029 453.135 9.7853C453.211 9.54159 453.325 9.32414 453.476 9.13224C453.628 8.94106 453.816 8.7725 454.041 8.6273C454.266 8.48209 454.529 8.35367 454.833 8.2413C455.136 8.12893 455.473 8.02896 455.844 7.9414C456.215 7.85384 456.623 7.77722 457.067 7.71155C457.436 7.65099 457.731 7.59115 457.953 7.53059C458.175 7.47076 458.346 7.40509 458.465 7.33358C458.584 7.26207 458.664 7.17232 458.705 7.06214C458.745 6.95268 458.766 6.8104 458.766 6.63527V6.59441C458.766 6.35362 458.721 6.14566 458.631 5.96981C458.542 5.79468 458.419 5.65239 458.262 5.54294C458.104 5.43349 457.915 5.3525 457.693 5.30069C457.471 5.24888 457.225 5.22261 456.954 5.22261C456.661 5.22261 456.393 5.25545 456.149 5.32112C455.906 5.38679 455.694 5.48822 455.515 5.62467C455.337 5.76185 455.2 5.93697 455.105 6.15077C455.011 6.36456 454.957 6.61922 454.947 6.91474H453.419C453.419 6.41637 453.513 5.98659 453.699 5.62467C453.886 5.26348 454.141 4.96358 454.464 4.7257C454.786 4.4871 455.162 4.31051 455.593 4.19595C456.023 4.08067 456.475 4.02302 456.946 4.02302C457.471 4.02302 457.942 4.06972 458.359 4.16312C458.776 4.25579 459.127 4.4134 459.411 4.63522C459.696 4.85704 459.912 5.15038 460.062 5.51449C460.211 5.8786 460.285 6.32881 460.285 6.86512L460.269 10.1757C460.269 10.4931 460.271 10.7806 460.277 11.0382C460.282 11.2957 460.293 11.538 460.309 11.7649C460.326 11.9926 460.347 12.2071 460.374 12.41C460.402 12.6121 460.439 12.8178 460.488 13.0258H458.945C458.934 12.9434 458.923 12.8645 458.912 12.7879C458.901 12.7113 458.892 12.6347 458.883 12.5574C458.875 12.4807 458.867 12.4012 458.859 12.3195C458.851 12.237 458.844 12.1495 458.838 12.0568C458.714 12.237 458.565 12.4005 458.392 12.5449C458.218 12.6902 458.019 12.8164 457.795 12.9229C457.569 13.0302 457.318 13.1119 457.039 13.1696C456.76 13.2272 456.444 13.2557 456.093 13.2557C455.654 13.2557 455.248 13.1995 454.874 13.0871ZM457.059 11.9867C457.265 11.951 457.455 11.8926 457.628 11.8102C457.801 11.7277 457.959 11.6285 458.099 11.5103C458.24 11.3928 458.359 11.2541 458.457 11.0958C458.554 10.9367 458.63 10.7572 458.685 10.5573C458.739 10.3574 458.766 10.1348 458.766 9.88818V8.30259C458.614 8.36826 458.469 8.42737 458.331 8.47917C458.193 8.53171 458.053 8.57768 457.912 8.61927C457.772 8.66013 457.628 8.701 457.482 8.74186C457.336 8.78345 457.176 8.82285 457.002 8.86153C456.716 8.93814 456.456 9.01038 456.226 9.07897C455.996 9.14756 455.793 9.21834 455.617 9.29277C455.441 9.36646 455.291 9.44162 455.166 9.51824C455.042 9.59485 454.94 9.68387 454.861 9.7853C454.783 9.88672 454.727 10.0006 454.695 10.1261C454.662 10.2523 454.646 10.3917 454.646 10.5449V10.5865C454.646 10.8324 454.687 11.0462 454.768 11.2271C454.849 11.4074 454.965 11.5584 455.113 11.6788C455.262 11.7992 455.447 11.8897 455.67 11.9495C455.892 12.0101 456.144 12.04 456.425 12.04C456.642 12.04 456.853 12.0225 457.059 11.9867ZM464.919 12.9725C464.683 12.9368 464.478 12.8791 464.305 12.7996C464.132 12.7208 463.988 12.6179 463.874 12.4917C463.761 12.3662 463.67 12.2115 463.602 12.0276C463.534 11.8445 463.487 11.6336 463.46 11.395C463.433 11.1571 463.42 10.8871 463.42 10.5865V5.57578H462.103V4.26163H463.42V1.52606H464.947V4.26163H466.783V5.57578H464.947V10.5449C464.947 10.7645 464.958 10.9491 464.979 11.0995C465.001 11.2505 465.05 11.3709 465.126 11.4614C465.202 11.5511 465.31 11.6161 465.451 11.654C465.591 11.6927 465.784 11.7117 466.027 11.7117H466.71V13.0258H465.743C465.429 13.0258 465.154 13.0083 464.919 12.9725ZM468.896 1.16487H470.432V3.08684H468.896V1.16487ZM468.896 4.26163H470.432V13.0258H468.896V4.26163ZM475.219 12.9229C474.705 12.7011 474.269 12.3917 473.911 11.9948C473.553 11.5978 473.28 11.1213 473.091 10.5661C472.901 10.01 472.806 9.39273 472.806 8.7134V8.55725C472.806 7.88959 472.901 7.27739 473.091 6.72137C473.28 6.16609 473.553 5.68961 473.911 5.29266C474.269 4.89572 474.705 4.58706 475.219 4.36816C475.734 4.14926 476.319 4.0398 476.975 4.0398C477.63 4.0398 478.216 4.14926 478.734 4.36816C479.25 4.58706 479.688 4.89572 480.046 5.29266C480.403 5.68961 480.675 6.16609 480.862 6.72137C481.049 7.27739 481.142 7.88959 481.142 8.55725V8.7134C481.142 9.39273 481.049 10.01 480.862 10.5661C480.675 11.1213 480.403 11.5978 480.046 11.9948C479.688 12.3917 479.25 12.7011 478.734 12.9229C478.216 13.1447 477.63 13.2557 476.975 13.2557C476.319 13.2557 475.734 13.1447 475.219 12.9229ZM478.08 11.7445C478.399 11.5913 478.666 11.3724 478.88 11.087C479.094 10.8025 479.255 10.4603 479.363 10.0604C479.471 9.66125 479.525 9.21469 479.525 8.72143V8.54922C479.525 8.0618 479.471 7.61815 479.363 7.21829C479.255 6.81915 479.094 6.47912 478.88 6.19965C478.666 5.92092 478.399 5.7042 478.08 5.55097C477.76 5.39774 477.391 5.32112 476.975 5.32112C476.558 5.32112 476.187 5.39774 475.865 5.55097C475.543 5.7042 475.278 5.92092 475.069 6.19965C474.861 6.47912 474.702 6.81915 474.594 7.21829C474.485 7.61815 474.431 8.0618 474.431 8.54922V8.72143C474.431 9.21469 474.485 9.66125 474.594 10.0604C474.702 10.4603 474.861 10.8025 475.069 11.087C475.278 11.3724 475.543 11.5913 475.865 11.7445C476.187 11.8977 476.558 11.9743 476.975 11.9743C477.391 11.9743 477.76 11.8977 478.08 11.7445ZM483.492 4.26163H485.027V5.35396C485.163 5.16205 485.314 4.98401 485.482 4.81983C485.65 4.65565 485.838 4.51774 486.047 4.40537C486.255 4.293 486.489 4.20398 486.746 4.13831C487.003 4.07264 487.288 4.0398 487.603 4.0398C488.107 4.0398 488.548 4.1208 488.927 4.28206C489.306 4.44332 489.626 4.679 489.886 4.98839C490.146 5.29777 490.341 5.67866 490.471 6.13034C490.601 6.58201 490.666 7.09789 490.666 7.67871V13.0258H489.13V8.00707C489.13 7.56343 489.087 7.17597 489 6.84469C488.914 6.51342 488.784 6.23541 488.611 6.0114C488.437 5.78666 488.223 5.6181 487.968 5.50573C487.714 5.39409 487.419 5.33717 487.083 5.33717C486.736 5.33717 486.437 5.39628 486.185 5.51449C485.933 5.63196 485.719 5.80417 485.543 6.03183C485.367 6.25876 485.237 6.53968 485.153 6.87388C485.069 7.20734 485.027 7.59626 485.027 8.03991V13.0258H483.492V4.26163ZM494.732 13.0871C494.358 12.9755 494.033 12.8069 493.757 12.5822C493.481 12.3574 493.265 12.0852 493.111 11.7649C492.956 11.4446 492.88 11.079 492.88 10.6682V10.6025C492.88 10.3019 492.918 10.029 492.993 9.7853C493.069 9.54159 493.183 9.32414 493.335 9.13224C493.486 8.94106 493.675 8.7725 493.899 8.6273C494.124 8.48209 494.388 8.35367 494.692 8.2413C494.995 8.12893 495.332 8.02896 495.703 7.9414C496.074 7.85384 496.482 7.77722 496.926 7.71155C497.294 7.65099 497.59 7.59115 497.811 7.53059C498.034 7.47076 498.205 7.40509 498.324 7.33358C498.443 7.26207 498.522 7.17232 498.563 7.06214C498.604 6.95268 498.624 6.8104 498.624 6.63527V6.59441C498.624 6.35362 498.579 6.14566 498.49 5.96981C498.401 5.79468 498.277 5.65239 498.12 5.54294C497.963 5.43349 497.774 5.3525 497.551 5.30069C497.329 5.24888 497.083 5.22261 496.812 5.22261C496.52 5.22261 496.251 5.25545 496.007 5.32112C495.764 5.38679 495.553 5.48822 495.374 5.62467C495.195 5.76185 495.058 5.93697 494.964 6.15077C494.869 6.36456 494.816 6.61922 494.805 6.91474H493.278C493.278 6.41637 493.372 5.98659 493.558 5.62467C493.745 5.26348 493.999 4.96358 494.322 4.7257C494.644 4.4871 495.021 4.31051 495.451 4.19595C495.882 4.08067 496.333 4.02302 496.804 4.02302C497.329 4.02302 497.8 4.06972 498.218 4.16312C498.635 4.25579 498.986 4.4134 499.27 4.63522C499.554 4.85704 499.771 5.15038 499.92 5.51449C500.069 5.8786 500.143 6.32881 500.143 6.86512L500.127 10.1757C500.127 10.4931 500.13 10.7806 500.135 11.0382C500.14 11.2957 500.151 11.538 500.168 11.7649C500.184 11.9926 500.205 12.2071 500.233 12.41C500.26 12.6121 500.298 12.8178 500.347 13.0258H498.803C498.792 12.9434 498.781 12.8645 498.77 12.7879C498.76 12.7113 498.75 12.6347 498.742 12.5574C498.734 12.4807 498.726 12.4012 498.718 12.3195C498.709 12.237 498.703 12.1495 498.697 12.0568C498.573 12.237 498.423 12.4005 498.25 12.5449C498.077 12.6902 497.878 12.8164 497.653 12.9229C497.428 13.0302 497.176 13.1119 496.897 13.1696C496.618 13.2272 496.303 13.2557 495.951 13.2557C495.512 13.2557 495.106 13.1995 494.732 13.0871ZM496.918 11.9867C497.123 11.951 497.313 11.8926 497.486 11.8102C497.66 11.7277 497.817 11.6285 497.958 11.5103C498.098 11.3928 498.218 11.2541 498.315 11.0958C498.412 10.9367 498.488 10.7572 498.543 10.5573C498.597 10.3574 498.624 10.1348 498.624 9.88818V8.30259C498.472 8.36826 498.327 8.42737 498.189 8.47917C498.052 8.53171 497.912 8.57768 497.771 8.61927C497.63 8.66013 497.486 8.701 497.341 8.74186C497.194 8.78345 497.035 8.82285 496.861 8.86153C496.574 8.93814 496.315 9.01038 496.085 9.07897C495.854 9.14756 495.652 9.21834 495.476 9.29277C495.299 9.36646 495.149 9.44162 495.024 9.51824C494.9 9.59485 494.798 9.68387 494.72 9.7853C494.641 9.88672 494.586 10.0006 494.553 10.1261C494.521 10.2523 494.505 10.3917 494.505 10.5449V10.5865C494.505 10.8324 494.545 11.0462 494.627 11.2271C494.708 11.4074 494.823 11.5584 494.972 11.6788C495.12 11.7992 495.306 11.8897 495.528 11.9495C495.751 12.0101 496.002 12.04 496.284 12.04C496.5 12.04 496.712 12.0225 496.918 11.9867ZM502.909 1.16487H504.444V13.0258H502.909V1.16487ZM509.729 13.1083C509.347 13.009 509 12.8667 508.689 12.6807C508.377 12.4946 508.105 12.2662 507.872 11.9948C507.639 11.7241 507.441 11.4198 507.279 11.0834C507.116 10.7463 506.993 10.3771 506.909 9.97429C506.826 9.5715 506.784 9.14318 506.784 8.68859V8.53244C506.784 7.84289 506.886 7.21975 507.092 6.66373C507.298 6.10844 507.582 5.63634 507.945 5.24742C508.308 4.8585 508.744 4.56006 509.254 4.35211C509.763 4.14415 510.323 4.0398 510.935 4.0398C511.385 4.0398 511.799 4.09307 512.178 4.1996C512.557 4.30687 512.899 4.46302 513.203 4.66806C513.506 4.8731 513.772 5.12411 514.002 5.41963C514.233 5.71515 514.422 6.04934 514.571 6.42148C514.72 6.79434 514.832 7.20223 514.905 7.64588C514.977 8.08952 515.006 8.56017 514.99 9.05854V9.06656H508.416V9.10743C508.433 9.39784 508.473 9.67293 508.538 9.93342C508.603 10.1932 508.689 10.4289 508.795 10.6398C508.9 10.8506 509.029 11.0396 509.18 11.2067C509.332 11.3738 509.5 11.5146 509.684 11.6292C509.868 11.7445 510.073 11.832 510.297 11.8926C510.522 11.9524 510.762 11.9824 511.016 11.9824C511.342 11.9824 511.63 11.9488 511.882 11.8802C512.134 11.8116 512.354 11.7131 512.544 11.584C512.733 11.4555 512.894 11.2979 513.024 11.1119C513.154 10.9258 513.251 10.7178 513.316 10.488H514.876C514.778 10.893 514.624 11.2651 514.413 11.6051C514.202 11.9444 513.934 12.237 513.608 12.4837C513.283 12.7303 512.902 12.9207 512.463 13.0543C512.024 13.1885 511.529 13.2557 510.976 13.2557C510.526 13.2557 510.11 13.2068 509.729 13.1083ZM509.98 5.41525C509.696 5.51667 509.447 5.67137 509.233 5.87933C509.019 6.08801 508.843 6.3507 508.705 6.66811C508.566 6.98552 508.476 7.36641 508.433 7.81006V7.81808H513.381V7.81006C513.365 7.55248 513.33 7.31023 513.275 7.0833C513.221 6.85564 513.143 6.64768 513.039 6.45869C512.937 6.2697 512.815 6.10115 512.674 5.95375C512.534 5.80563 512.375 5.68158 512.199 5.58016C512.022 5.47873 511.829 5.40066 511.618 5.34593C511.407 5.2912 511.176 5.26348 510.927 5.26348C510.58 5.26348 510.265 5.31455 509.98 5.41525ZM521.594 1.16487H523.187V13.0258H521.594V1.16487ZM526.236 4.26163H527.771V5.35396C527.907 5.16205 528.058 4.98401 528.227 4.81983C528.394 4.65565 528.582 4.51774 528.791 4.40537C529 4.293 529.233 4.20398 529.49 4.13831C529.747 4.07264 530.032 4.0398 530.347 4.0398C530.851 4.0398 531.292 4.1208 531.672 4.28206C532.051 4.44332 532.37 4.679 532.63 4.98839C532.89 5.29777 533.085 5.67866 533.216 6.13034C533.345 6.58201 533.41 7.09789 533.41 7.67871V13.0258H531.874V8.00707C531.874 7.56343 531.831 7.17597 531.745 6.84469C531.658 6.51342 531.528 6.23541 531.355 6.0114C531.181 5.78666 530.967 5.6181 530.712 5.50573C530.458 5.39409 530.163 5.33717 529.827 5.33717C529.48 5.33717 529.181 5.39628 528.929 5.51449C528.677 5.63196 528.463 5.80417 528.287 6.03183C528.111 6.25876 527.981 6.53968 527.897 6.87388C527.813 7.20734 527.771 7.59626 527.771 8.03991V13.0258H526.236V4.26163ZM536.175 1.16487H537.71V3.08684H536.175V1.16487ZM536.175 4.26163H537.71V13.0258H536.175V4.26163ZM542.446 12.9725C542.21 12.9368 542.005 12.8791 541.832 12.7996C541.659 12.7208 541.515 12.6179 541.401 12.4917C541.288 12.3662 541.197 12.2115 541.129 12.0276C541.061 11.8445 541.014 11.6336 540.987 11.395C540.96 11.1571 540.947 10.8871 540.947 10.5865V5.57578H539.63V4.26163H540.947V1.52606H542.474V4.26163H544.31V5.57578H542.474V10.5449C542.474 10.7645 542.485 10.9491 542.506 11.0995C542.528 11.2505 542.577 11.3709 542.653 11.4614C542.729 11.5511 542.837 11.6161 542.978 11.654C543.118 11.6927 543.311 11.7117 543.554 11.7117H544.237V13.0258H543.27C542.956 13.0258 542.681 13.0083 542.446 12.9725ZM546.424 1.16487H547.959V3.08684H546.424V1.16487ZM546.424 4.26163H547.959V13.0258H546.424V4.26163ZM552.128 13.0871C551.755 12.9755 551.43 12.8069 551.153 12.5822C550.878 12.3574 550.662 12.0852 550.507 11.7649C550.353 11.4446 550.276 11.079 550.276 10.6682V10.6025C550.276 10.3019 550.314 10.029 550.39 9.7853C550.465 9.54159 550.579 9.32414 550.731 9.13224C550.883 8.94106 551.071 8.7725 551.296 8.6273C551.521 8.48209 551.784 8.35367 552.088 8.2413C552.391 8.12893 552.728 8.02896 553.099 7.9414C553.47 7.85384 553.878 7.77722 554.322 7.71155C554.691 7.65099 554.986 7.59115 555.208 7.53059C555.43 7.47076 555.601 7.40509 555.72 7.33358C555.839 7.26207 555.919 7.17232 555.96 7.06214C556 6.95268 556.02 6.8104 556.02 6.63527V6.59441C556.02 6.35362 555.976 6.14566 555.886 5.96981C555.797 5.79468 555.674 5.65239 555.516 5.54294C555.359 5.43349 555.17 5.3525 554.948 5.30069C554.725 5.24888 554.479 5.22261 554.209 5.22261C553.916 5.22261 553.648 5.25545 553.404 5.32112C553.161 5.38679 552.949 5.48822 552.77 5.62467C552.592 5.76185 552.455 5.93697 552.36 6.15077C552.266 6.36456 552.212 6.61922 552.201 6.91474H550.674C550.674 6.41637 550.768 5.98659 550.954 5.62467C551.141 5.26348 551.396 4.96358 551.718 4.7257C552.04 4.4871 552.417 4.31051 552.847 4.19595C553.278 4.08067 553.729 4.02302 554.201 4.02302C554.725 4.02302 555.197 4.06972 555.614 4.16312C556.031 4.25579 556.382 4.4134 556.666 4.63522C556.951 4.85704 557.167 5.15038 557.317 5.51449C557.465 5.8786 557.54 6.32881 557.54 6.86512L557.524 10.1757C557.524 10.4931 557.526 10.7806 557.532 11.0382C557.537 11.2957 557.548 11.538 557.564 11.7649C557.581 11.9926 557.602 12.2071 557.629 12.41C557.657 12.6121 557.694 12.8178 557.743 13.0258H556.199C556.189 12.9434 556.178 12.8645 556.167 12.7879C556.156 12.7113 556.147 12.6347 556.138 12.5574C556.13 12.4807 556.122 12.4012 556.114 12.3195C556.106 12.237 556.099 12.1495 556.093 12.0568C555.969 12.237 555.82 12.4005 555.646 12.5449C555.473 12.6902 555.274 12.8164 555.049 12.9229C554.824 13.0302 554.572 13.1119 554.294 13.1696C554.014 13.2272 553.699 13.2557 553.348 13.2557C552.909 13.2557 552.502 13.1995 552.128 13.0871ZM554.314 11.9867C554.52 11.951 554.71 11.8926 554.883 11.8102C555.056 11.7277 555.213 11.6285 555.354 11.5103C555.495 11.3928 555.614 11.2541 555.711 11.0958C555.809 10.9367 555.885 10.7572 555.94 10.5573C555.994 10.3574 556.02 10.1348 556.02 9.88818V8.30259C555.869 8.36826 555.724 8.42737 555.586 8.47917C555.448 8.53171 555.308 8.57768 555.167 8.61927C555.026 8.66013 554.883 8.701 554.737 8.74186C554.59 8.78345 554.431 8.82285 554.257 8.86153C553.97 8.93814 553.711 9.01038 553.481 9.07897C553.251 9.14756 553.048 9.21834 552.872 9.29277C552.696 9.36646 552.546 9.44162 552.421 9.51824C552.297 9.59485 552.195 9.68387 552.116 9.7853C552.038 9.88672 551.982 10.0006 551.949 10.1261C551.917 10.2523 551.901 10.3917 551.901 10.5449V10.5865C551.901 10.8324 551.941 11.0462 552.023 11.2271C552.104 11.4074 552.219 11.5584 552.368 11.6788C552.517 11.7992 552.702 11.8897 552.925 11.9495C553.147 12.0101 553.399 12.04 553.68 12.04C553.897 12.04 554.108 12.0225 554.314 11.9867ZM562.174 12.9725C561.938 12.9368 561.733 12.8791 561.56 12.7996C561.387 12.7208 561.243 12.6179 561.129 12.4917C561.016 12.3662 560.925 12.2115 560.857 12.0276C560.789 11.8445 560.742 11.6336 560.715 11.395C560.687 11.1571 560.674 10.8871 560.674 10.5865V5.57578H559.358V4.26163H560.674V1.52606H562.202V4.26163H564.038V5.57578H562.202V10.5449C562.202 10.7645 562.213 10.9491 562.234 11.0995C562.256 11.2505 562.305 11.3709 562.381 11.4614C562.456 11.5511 562.565 11.6161 562.706 11.654C562.846 11.6927 563.039 11.7117 563.282 11.7117H563.965V13.0258H562.998C562.684 13.0258 562.409 13.0083 562.174 12.9725ZM566.152 1.16487H567.687V3.08684H566.152V1.16487ZM566.152 4.26163H567.687V13.0258H566.152V4.26163ZM569.57 4.26163H571.236L573.828 11.4979H573.836L576.502 4.26163H578.004L574.673 13.0338H572.918L569.57 4.26163ZM581.978 13.1083C581.596 13.009 581.25 12.8667 580.938 12.6807C580.627 12.4946 580.355 12.2662 580.121 11.9948C579.888 11.7241 579.691 11.4198 579.528 11.0834C579.366 10.7463 579.242 10.3771 579.159 9.97429C579.075 9.5715 579.033 9.14318 579.033 8.68859V8.53244C579.033 7.84289 579.135 7.21975 579.341 6.66373C579.547 6.10844 579.831 5.63634 580.194 5.24742C580.557 4.8585 580.993 4.56006 581.503 4.35211C582.012 4.14415 582.573 4.0398 583.185 4.0398C583.634 4.0398 584.049 4.09307 584.428 4.1996C584.807 4.30687 585.148 4.46302 585.452 4.66806C585.755 4.8731 586.021 5.12411 586.252 5.41963C586.482 5.71515 586.672 6.04934 586.82 6.42148C586.97 6.79434 587.081 7.20223 587.154 7.64588C587.227 8.08952 587.256 8.56017 587.239 9.05854V9.06656H580.666V9.10743C580.682 9.39784 580.723 9.67293 580.788 9.93342C580.853 10.1932 580.938 10.4289 581.044 10.6398C581.149 10.8506 581.278 11.0396 581.429 11.2067C581.581 11.3738 581.749 11.5146 581.933 11.6292C582.117 11.7445 582.322 11.832 582.547 11.8926C582.771 11.9524 583.011 11.9824 583.266 11.9824C583.591 11.9824 583.879 11.9488 584.131 11.8802C584.383 11.8116 584.604 11.7131 584.794 11.584C584.983 11.4555 585.143 11.2979 585.273 11.1119C585.403 10.9258 585.5 10.7178 585.565 10.488H587.125C587.028 10.893 586.873 11.2651 586.662 11.6051C586.451 11.9444 586.183 12.237 585.858 12.4837C585.533 12.7303 585.151 12.9207 584.712 13.0543C584.273 13.1885 583.778 13.2557 583.225 13.2557C582.776 13.2557 582.36 13.2068 581.978 13.1083ZM582.23 5.41525C581.945 5.51667 581.696 5.67137 581.483 5.87933C581.268 6.08801 581.092 6.3507 580.954 6.66811C580.816 6.98552 580.726 7.36641 580.682 7.81006V7.81808H585.63V7.81006C585.614 7.55248 585.579 7.31023 585.525 7.0833C585.471 6.85564 585.392 6.64768 585.289 6.45869C585.186 6.2697 585.064 6.10115 584.923 5.95375C584.783 5.80563 584.624 5.68158 584.448 5.58016C584.272 5.47873 584.078 5.40066 583.867 5.34593C583.656 5.2912 583.426 5.26348 583.177 5.26348C582.83 5.26348 582.514 5.31455 582.23 5.41525ZM594.168 5.57578H592.868V4.26163H594.168V3.70269C594.168 3.23789 594.214 2.84313 594.306 2.51988C594.398 2.19736 594.546 1.93541 594.749 1.73548C594.952 1.53554 595.218 1.39107 595.545 1.30059C595.873 1.21011 596.269 1.16487 596.736 1.16487H597.646V2.47902H596.825C596.592 2.47902 596.401 2.49799 596.252 2.53666C596.103 2.57461 595.989 2.64101 595.911 2.73368C595.832 2.82708 595.778 2.94893 595.748 3.09925C595.719 3.24956 595.703 3.44293 595.703 3.67861V4.26163H597.646V5.57578H595.703V13.0258H594.168V5.57578ZM601.193 13.0134C600.811 12.8521 600.493 12.6165 600.239 12.3071C599.984 11.9977 599.792 11.6161 599.662 11.1615C599.532 10.7069 599.467 10.1917 599.467 9.61674V4.26163H600.994V9.28839C600.994 9.73203 601.039 10.1195 601.128 10.4508C601.218 10.782 601.346 11.0586 601.514 11.2804C601.682 11.5022 601.893 11.6708 602.148 11.7853C602.403 11.9006 602.7 11.9583 603.042 11.9583C603.383 11.9583 603.683 11.8992 603.94 11.7817C604.197 11.6635 604.411 11.4913 604.581 11.2636C604.752 11.0367 604.881 10.7558 604.967 10.4223C605.054 10.0881 605.097 9.6992 605.097 9.25555V4.26163H606.617V13.0258H605.097V11.9415C604.962 12.1334 604.812 12.3114 604.646 12.4756C604.481 12.6398 604.293 12.7784 604.082 12.8901C603.87 13.0025 603.636 13.0915 603.379 13.1571C603.122 13.2228 602.836 13.2557 602.522 13.2557C602.018 13.2557 601.575 13.1747 601.193 13.0134ZM600.377 1.16487H601.921V3.06203H600.377V1.16487ZM604.196 1.16487H605.723V3.06203H604.196V1.16487ZM609.463 4.26163H610.998V5.84649C611.117 5.59475 611.259 5.36782 611.425 5.16497C611.59 4.96285 611.786 4.787 612.014 4.6396C612.242 4.49148 612.494 4.37619 612.774 4.29446C613.052 4.21201 613.365 4.17115 613.712 4.17115H613.866V5.69909H613.46C613.064 5.69909 612.713 5.75382 612.404 5.86327C612.095 5.97272 611.838 6.1369 611.632 6.35581C611.426 6.57544 611.269 6.85272 611.16 7.18983C611.052 7.52621 610.998 7.92462 610.998 8.38504V13.0258H609.463V4.26163ZM441.188 20.6507H442.781V25.9897L448.217 20.6507H450.15L444.268 26.4582L450.459 32.5116H448.217L442.781 27.2302V32.5116H441.188V20.6507ZM453.336 32.4992C452.954 32.338 452.636 32.1023 452.382 31.7929C452.127 31.4835 451.935 31.1019 451.805 30.6473C451.675 30.1927 451.61 29.6775 451.61 29.1026V23.7474H453.137V28.7742C453.137 29.2178 453.182 29.6053 453.271 29.9366C453.361 30.2679 453.489 30.5444 453.657 30.7662C453.825 30.9881 454.036 31.1566 454.291 31.2712C454.546 31.3865 454.843 31.4441 455.185 31.4441C455.526 31.4441 455.826 31.385 456.083 31.2675C456.34 31.1493 456.554 30.9771 456.724 30.7494C456.895 30.5225 457.024 30.2416 457.11 29.9081C457.197 29.5739 457.24 29.185 457.24 28.7414V23.7474H458.76V32.5116H457.24V31.4273C457.105 31.6192 456.955 31.7973 456.789 31.9614C456.624 32.1256 456.436 32.2643 456.225 32.3759C456.013 32.4883 455.779 32.5773 455.522 32.643C455.265 32.7086 454.979 32.7415 454.665 32.7415C454.161 32.7415 453.718 32.6605 453.336 32.4992ZM452.52 20.6507H454.064V22.5479H452.52V20.6507ZM456.339 20.6507H457.866V22.5479H456.339V20.6507ZM461.606 23.7474H463.142V24.8398C463.277 24.6479 463.429 24.4698 463.597 24.3056C463.765 24.1415 463.953 24.0036 464.162 23.8912C464.37 23.7788 464.603 23.6898 464.86 23.6241C465.118 23.5585 465.403 23.5256 465.718 23.5256C466.222 23.5256 466.663 23.6066 467.042 23.7679C467.421 23.9291 467.741 24.1648 468.001 24.4742C468.261 24.7836 468.455 25.1645 468.586 25.6162C468.716 26.0678 468.781 26.5837 468.781 27.1645V32.5116H467.245V27.4929C467.245 27.0492 467.202 26.6618 467.115 26.3305C467.029 25.9992 466.899 25.7212 466.725 25.4972C466.551 25.2725 466.338 25.1039 466.083 24.9915C465.829 24.8799 465.534 24.823 465.197 24.823C464.851 24.823 464.551 24.8821 464.299 25.0003C464.048 25.1178 463.834 25.29 463.658 25.5176C463.482 25.7446 463.352 26.0255 463.268 26.3597C463.184 26.6932 463.142 27.0821 463.142 27.5257V32.5116H461.606V23.7474ZM473.171 32.5525C472.729 32.427 472.35 32.2416 472.033 31.9979C471.717 31.7549 471.466 31.4507 471.282 31.0866C471.098 30.7224 470.984 30.3022 470.941 29.8257H472.468C472.511 30.138 472.591 30.4021 472.708 30.6181C472.824 30.8348 472.977 31.0143 473.167 31.1566C473.356 31.2989 473.582 31.4018 473.841 31.4645C474.101 31.5273 474.394 31.5587 474.719 31.5587C474.897 31.5587 475.069 31.5463 475.234 31.5222C475.4 31.4974 475.552 31.4616 475.69 31.4149C475.828 31.3689 475.953 31.3113 476.064 31.2427C476.174 31.1741 476.27 31.0917 476.348 30.9961C476.426 30.9005 476.486 30.794 476.526 30.6757C476.568 30.5583 476.588 30.4284 476.588 30.2854V30.2693C476.588 30.0285 476.543 29.8322 476.454 29.6819C476.364 29.5316 476.241 29.4039 476.084 29.3003C475.927 29.196 475.74 29.1084 475.523 29.0369C475.307 28.9661 475.071 28.9004 474.817 28.8399L473.549 28.5195C473.202 28.4378 472.884 28.3291 472.594 28.1948C472.304 28.0613 472.052 27.8913 471.839 27.6863C471.625 27.4805 471.457 27.2397 471.335 26.9631C471.213 26.6866 471.152 26.3677 471.152 26.0058V25.9817C471.152 25.6089 471.239 25.271 471.412 24.9667C471.585 24.6632 471.818 24.4056 472.111 24.1947C472.403 23.9846 472.752 23.8197 473.155 23.7022C473.559 23.5847 473.993 23.5256 474.459 23.5256C474.93 23.5256 475.361 23.5723 475.751 23.665C476.141 23.7584 476.483 23.9102 476.778 24.121C477.074 24.3319 477.313 24.6004 477.498 24.9259C477.682 25.252 477.798 25.6475 477.847 26.1131H476.311C476.284 25.9321 476.241 25.7694 476.181 25.6242C476.122 25.479 476.049 25.3542 475.962 25.2506C475.875 25.1462 475.777 25.0601 475.665 24.9915C475.554 24.9237 475.432 24.8675 475.3 24.823C475.167 24.7799 475.025 24.7478 474.874 24.7289C474.721 24.7099 474.562 24.7004 474.394 24.7004C474.15 24.7004 473.924 24.7274 473.715 24.7821C473.507 24.8369 473.327 24.9135 473.175 25.012C473.024 25.1105 472.903 25.2353 472.814 25.3863C472.724 25.5366 472.679 25.7103 472.679 25.9073V25.9321C472.679 26.1072 472.71 26.2619 472.773 26.3962C472.835 26.5304 472.925 26.6479 473.041 26.7493C473.157 26.8508 473.299 26.9369 473.468 27.0084C473.636 27.0792 473.828 27.1397 474.044 27.1886L475.312 27.5097C475.702 27.6023 476.067 27.7118 476.409 27.838C476.75 27.9643 477.047 28.1226 477.299 28.3145C477.551 28.5057 477.748 28.7443 477.892 29.0289C478.035 29.3134 478.107 29.6586 478.107 30.0635V30.0884C478.107 30.3788 478.067 30.6458 477.99 30.8895C477.911 31.1333 477.8 31.3522 477.656 31.5463C477.512 31.7411 477.336 31.9118 477.128 32.06C476.919 32.2073 476.688 32.3336 476.433 32.4379C476.179 32.5415 475.904 32.6182 475.608 32.6678C475.313 32.7167 475.001 32.7415 474.67 32.7415C474.112 32.7415 473.613 32.6787 473.171 32.5525ZM482.32 32.4584C482.083 32.4226 481.879 32.365 481.706 32.2854C481.533 32.2066 481.389 32.1037 481.275 31.9775C481.162 31.852 481.071 31.6973 481.003 31.5134C480.935 31.3303 480.888 31.1194 480.861 30.8808C480.833 30.6429 480.82 30.3729 480.82 30.0723V25.0616H479.504V23.7474H480.82V21.0119H482.348V23.7474H484.184V25.0616H482.348V30.0307C482.348 30.2503 482.359 30.435 482.38 30.5853C482.402 30.7363 482.451 30.8567 482.527 30.9472C482.602 31.0369 482.711 31.1019 482.851 31.1398C482.992 31.1785 483.185 31.1975 483.428 31.1975H484.111V32.5116H483.144C482.83 32.5116 482.555 32.4941 482.32 32.4584ZM486.297 20.6507H487.833V32.5116H486.297V20.6507ZM490.658 20.6507H492.193V22.5727H490.658V20.6507ZM490.658 23.7474H492.193V32.5116H490.658V23.7474ZM497.468 32.5977C497.099 32.5021 496.763 32.3613 496.46 32.1745C496.157 31.9884 495.887 31.7644 495.652 31.501C495.416 31.2383 495.218 30.9384 495.058 30.602C494.899 30.2649 494.777 29.8943 494.693 29.4886C494.609 29.0836 494.567 28.6538 494.567 28.1992V28.0431C494.567 27.3645 494.661 26.7457 494.851 26.1868C495.041 25.6286 495.313 25.1535 495.667 24.7617C496.023 24.3706 496.454 24.0663 496.964 23.8503C497.473 23.6336 498.047 23.5256 498.686 23.5256C499.233 23.5256 499.729 23.5979 500.173 23.7431C500.617 23.8883 501.003 24.0948 501.331 24.3633C501.658 24.6318 501.922 24.9565 502.123 25.3367C502.324 25.7176 502.459 26.143 502.53 26.6144H500.961C500.902 26.3181 500.805 26.0583 500.673 25.8336C500.54 25.6089 500.374 25.4206 500.173 25.2666C499.973 25.1134 499.746 24.9988 499.494 24.9222C499.243 24.8456 498.968 24.8069 498.67 24.8069C498.29 24.8069 497.95 24.877 497.646 25.0164C497.343 25.1557 497.084 25.3644 496.87 25.641C496.656 25.9175 496.488 26.2554 496.366 26.6552C496.245 27.0551 496.184 27.5177 496.184 28.0431V28.216C496.184 28.5604 496.211 28.8807 496.265 29.177C496.319 29.4725 496.396 29.741 496.497 29.9818C496.596 30.2226 496.721 30.435 496.87 30.6181C497.019 30.802 497.185 30.9581 497.366 31.0866C497.547 31.215 497.746 31.3098 497.963 31.3697C498.18 31.4302 498.415 31.4602 498.67 31.4602C498.968 31.4602 499.243 31.4208 499.494 31.3412C499.746 31.2617 499.973 31.1457 500.173 30.9917C500.374 30.8385 500.54 30.6488 500.673 30.4211C500.805 30.1942 500.902 29.9322 500.961 29.6367H502.53C502.459 30.1081 502.321 30.5335 502.115 30.9144C501.909 31.2945 501.641 31.6221 501.31 31.8958C500.98 32.1694 500.593 32.3788 500.149 32.524C499.704 32.6692 499.204 32.7415 498.646 32.7415C498.228 32.7415 497.836 32.6933 497.468 32.5977ZM504.789 20.6507H506.324V24.8398C506.46 24.6479 506.611 24.4698 506.779 24.3056C506.947 24.1415 507.135 24.0036 507.344 23.8912C507.552 23.7788 507.786 23.6898 508.043 23.6241C508.3 23.5585 508.585 23.5256 508.9 23.5256C509.404 23.5256 509.845 23.6066 510.224 23.7679C510.603 23.9291 510.923 24.1648 511.183 24.4742C511.443 24.7836 511.638 25.1645 511.768 25.6162C511.898 26.0678 511.963 26.5837 511.963 27.1645V32.5116H510.427V27.4929C510.427 27.0492 510.384 26.6618 510.297 26.3305C510.211 25.9992 510.081 25.7212 509.908 25.4972C509.734 25.2725 509.52 25.1039 509.265 24.9915C509.011 24.8799 508.716 24.823 508.38 24.823C508.033 24.823 507.734 24.8821 507.482 25.0003C507.23 25.1178 507.016 25.29 506.84 25.5176C506.664 25.7446 506.534 26.0255 506.45 26.3597C506.366 26.6932 506.324 27.0821 506.324 27.5257V32.5116H504.789V20.6507ZM517.146 32.5941C516.764 32.4948 516.417 32.3526 516.106 32.1665C515.794 31.9804 515.522 31.752 515.289 31.4806C515.056 31.2099 514.858 30.9056 514.696 30.5692C514.534 30.2321 514.41 29.8629 514.326 29.4601C514.243 29.0573 514.201 28.629 514.201 28.1744V28.0183C514.201 27.3287 514.303 26.7056 514.509 26.1495C514.715 25.5943 514.999 25.1222 515.362 24.7332C515.725 24.3443 516.161 24.0459 516.671 23.8379C517.18 23.63 517.74 23.5256 518.353 23.5256C518.802 23.5256 519.216 23.5789 519.595 23.6854C519.974 23.7927 520.316 23.9488 520.62 24.1539C520.923 24.3589 521.189 24.6099 521.419 24.9054C521.65 25.201 521.839 25.5352 521.988 25.9073C522.138 26.2802 522.249 26.6881 522.322 27.1317C522.395 27.5753 522.423 28.046 522.407 28.5444V28.5524H515.833V28.5932C515.85 28.8837 515.891 29.1587 515.955 29.4192C516.02 29.679 516.106 29.9147 516.212 30.1256C516.317 30.3364 516.446 30.5254 516.597 30.6925C516.749 30.8596 516.917 31.0005 517.101 31.115C517.285 31.2303 517.49 31.3179 517.714 31.3784C517.939 31.4383 518.179 31.4682 518.433 31.4682C518.759 31.4682 519.047 31.4346 519.299 31.366C519.551 31.2974 519.772 31.1989 519.961 31.0698C520.15 30.9414 520.311 30.7837 520.441 30.5977C520.571 30.4116 520.668 30.2036 520.733 29.9738H522.293C522.195 30.3788 522.041 30.7509 521.83 31.0909C521.619 31.4302 521.351 31.7228 521.025 31.9695C520.701 32.2161 520.319 32.4065 519.88 32.5401C519.441 32.6743 518.946 32.7415 518.393 32.7415C517.943 32.7415 517.527 32.6926 517.146 32.5941ZM517.398 24.9011C517.113 25.0025 516.864 25.1572 516.651 25.3651C516.436 25.5738 516.26 25.8365 516.122 26.1539C515.984 26.4713 515.893 26.8522 515.85 27.2959V27.3039H520.798V27.2959C520.782 27.0383 520.747 26.796 520.693 26.5691C520.638 26.3415 520.56 26.1335 520.456 25.9445C520.354 25.7555 520.232 25.587 520.091 25.4396C519.951 25.2914 519.792 25.1674 519.616 25.066C519.44 24.9645 519.246 24.8865 519.035 24.8317C518.824 24.777 518.594 24.7493 518.345 24.7493C517.997 24.7493 517.682 24.8004 517.398 24.9011ZM529.011 20.6507H530.604V32.5116H529.011V20.6507ZM533.653 23.7474H535.188V24.8398C535.324 24.6479 535.475 24.4698 535.644 24.3056C535.811 24.1415 535.999 24.0036 536.208 23.8912C536.417 23.7788 536.65 23.6898 536.907 23.6241C537.164 23.5585 537.45 23.5256 537.764 23.5256C538.268 23.5256 538.709 23.6066 539.089 23.7679C539.468 23.9291 539.787 24.1648 540.047 24.4742C540.307 24.7836 540.502 25.1645 540.633 25.6162C540.762 26.0678 540.827 26.5837 540.827 27.1645V32.5116H539.292V27.4929C539.292 27.0492 539.248 26.6618 539.162 26.3305C539.075 25.9992 538.945 25.7212 538.772 25.4972C538.598 25.2725 538.384 25.1039 538.129 24.9915C537.875 24.8799 537.58 24.823 537.244 24.823C536.897 24.823 536.598 24.8821 536.346 25.0003C536.094 25.1178 535.88 25.29 535.704 25.5176C535.528 25.7446 535.398 26.0255 535.314 26.3597C535.23 26.6932 535.188 27.0821 535.188 27.5257V32.5116H533.653V23.7474ZM545.367 32.4584C545.131 32.4226 544.927 32.365 544.754 32.2854C544.581 32.2066 544.437 32.1037 544.323 31.9775C544.21 31.852 544.119 31.6973 544.051 31.5134C543.983 31.3303 543.936 31.1194 543.909 30.8808C543.881 30.6429 543.868 30.3729 543.868 30.0723V25.0616H542.552V23.7474H543.868V21.0119H545.396V23.7474H547.232V25.0616H545.396V30.0307C545.396 30.2503 545.406 30.435 545.428 30.5853C545.45 30.7363 545.499 30.8567 545.575 30.9472C545.65 31.0369 545.759 31.1019 545.899 31.1398C546.04 31.1785 546.233 31.1975 546.476 31.1975H547.159V32.5116H546.192C545.878 32.5116 545.603 32.4941 545.367 32.4584ZM551.596 32.5941C551.214 32.4948 550.867 32.3526 550.556 32.1665C550.245 31.9804 549.972 31.752 549.739 31.4806C549.506 31.2099 549.308 30.9056 549.146 30.5692C548.984 30.2321 548.86 29.8629 548.776 29.4601C548.693 29.0573 548.651 28.629 548.651 28.1744V28.0183C548.651 27.3287 548.753 26.7056 548.959 26.1495C549.165 25.5943 549.449 25.1222 549.812 24.7332C550.175 24.3443 550.611 24.0459 551.121 23.8379C551.63 23.63 552.191 23.5256 552.803 23.5256C553.252 23.5256 553.667 23.5789 554.045 23.6854C554.424 23.7927 554.766 23.9488 555.07 24.1539C555.373 24.3589 555.639 24.6099 555.87 24.9054C556.1 25.201 556.29 25.5352 556.438 25.9073C556.588 26.2802 556.699 26.6881 556.772 27.1317C556.845 27.5753 556.873 28.046 556.857 28.5444V28.5524H550.284V28.5932C550.3 28.8837 550.341 29.1587 550.406 29.4192C550.471 29.679 550.556 29.9147 550.662 30.1256C550.767 30.3364 550.896 30.5254 551.047 30.6925C551.199 30.8596 551.367 31.0005 551.551 31.115C551.735 31.2303 551.94 31.3179 552.165 31.3784C552.389 31.4383 552.629 31.4682 552.883 31.4682C553.209 31.4682 553.497 31.4346 553.749 31.366C554.001 31.2974 554.222 31.1989 554.411 31.0698C554.601 30.9414 554.761 30.7837 554.891 30.5977C555.021 30.4116 555.118 30.2036 555.183 29.9738H556.743C556.645 30.3788 556.491 30.7509 556.28 31.0909C556.069 31.4302 555.801 31.7228 555.475 31.9695C555.151 32.2161 554.769 32.4065 554.33 32.5401C553.891 32.6743 553.396 32.7415 552.843 32.7415C552.393 32.7415 551.978 32.6926 551.596 32.5941ZM551.848 24.9011C551.563 25.0025 551.314 25.1572 551.101 25.3651C550.886 25.5738 550.71 25.8365 550.572 26.1539C550.434 26.4713 550.344 26.8522 550.3 27.2959V27.3039H555.248V27.2959C555.232 27.0383 555.197 26.796 555.143 26.5691C555.089 26.3415 555.01 26.1335 554.907 25.9445C554.804 25.7555 554.682 25.587 554.541 25.4396C554.401 25.2914 554.242 25.1674 554.066 25.066C553.89 24.9645 553.696 24.8865 553.485 24.8317C553.274 24.777 553.044 24.7493 552.795 24.7493C552.447 24.7493 552.132 24.8004 551.848 24.9011ZM559.164 20.6507H560.699V32.5116H559.164V20.6507ZM563.524 20.6507H565.059V32.5116H563.524V20.6507ZM567.884 20.6507H569.42V22.5727H567.884V20.6507ZM567.884 23.7474H569.42V32.5116H567.884V23.7474ZM574.525 31.9979C574.213 31.9191 573.921 31.8009 573.647 31.6448C573.373 31.4893 573.123 31.2916 572.896 31.0537C572.668 30.8151 572.472 30.5415 572.307 30.2321C572.141 29.9227 572.011 29.5769 571.917 29.193C571.822 28.81 571.775 28.3911 571.775 27.9365V27.8541C571.775 27.1645 571.877 26.5523 572.083 26.0182C572.289 25.4848 572.56 25.0331 572.896 24.6632C573.231 24.2932 573.624 24.0116 574.074 23.8175C574.523 23.6227 574.989 23.5256 575.471 23.5256C575.807 23.5256 576.123 23.5599 576.418 23.6285C576.713 23.6971 576.981 23.7956 577.222 23.924C577.463 24.0524 577.677 24.2071 577.864 24.3881C578.051 24.5691 578.204 24.769 578.323 24.9879V23.7474H579.867V31.485C579.867 32.0052 579.82 32.462 579.724 32.8568C579.63 33.2508 579.496 33.593 579.322 33.8834C579.149 34.1738 578.941 34.4175 578.697 34.6146C578.453 34.8116 578.181 34.9692 577.88 35.0867C577.58 35.2041 577.256 35.2881 576.909 35.3369C576.563 35.3866 576.194 35.4114 575.804 35.4114C575.268 35.4114 574.786 35.3537 574.358 35.2384C573.93 35.1239 573.562 34.948 573.253 34.7131C572.945 34.4774 572.696 34.1884 572.51 33.8462C572.323 33.504 572.205 33.1056 572.157 32.651H573.708C573.746 32.9027 573.815 33.1194 573.916 33.3004C574.016 33.4806 574.154 33.6339 574.33 33.7601C574.506 33.8863 574.718 33.9819 574.968 34.0476C575.217 34.1133 575.514 34.1461 575.862 34.1461C576.094 34.1461 576.318 34.1322 576.532 34.1052C576.746 34.0775 576.943 34.0286 577.125 33.9571C577.306 33.8863 577.473 33.7915 577.625 33.674C577.776 33.5558 577.902 33.4026 578.002 33.2136C578.103 33.0253 578.181 32.7962 578.238 32.5284C578.295 32.2599 578.323 31.9505 578.323 31.5995V30.6714C578.204 30.891 578.051 31.0895 577.864 31.2675C577.677 31.4456 577.463 31.5988 577.222 31.7272C576.981 31.8556 576.713 31.9534 576.418 32.0191C576.123 32.0848 575.807 32.1176 575.471 32.1176C575.152 32.1176 574.836 32.0775 574.525 31.9979ZM576.56 30.7619C576.772 30.7071 576.969 30.6254 577.154 30.5159C577.338 30.4065 577.505 30.2722 577.657 30.1132C577.809 29.9541 577.937 29.7666 578.043 29.5506C578.149 29.3339 578.23 29.0902 578.287 28.8194C578.344 28.5487 578.372 28.2518 578.372 27.9285V27.8541C578.372 27.5316 578.344 27.2302 578.287 26.9507C578.23 26.6713 578.149 26.4195 578.043 26.1948C577.937 25.9708 577.809 25.7738 577.657 25.6037C577.505 25.4337 577.338 25.2885 577.154 25.1681C576.969 25.0477 576.772 24.9565 576.56 24.893C576.349 24.8303 576.124 24.7989 575.886 24.7989C575.653 24.7989 575.431 24.8288 575.22 24.8894C575.008 24.9492 574.811 25.0397 574.627 25.1601C574.442 25.2805 574.276 25.4257 574.126 25.5957C573.978 25.765 573.849 25.9635 573.741 26.1911C573.633 26.4181 573.55 26.6713 573.493 26.9507C573.436 27.2302 573.407 27.5337 573.407 27.8628V27.9198C573.407 28.2488 573.436 28.5495 573.493 28.8238C573.55 29.0975 573.633 29.3426 573.741 29.5586C573.849 29.7753 573.978 29.9629 574.126 30.1212C574.276 30.2803 574.442 30.4145 574.627 30.524C574.811 30.6334 575.008 30.7144 575.22 30.7662C575.431 30.818 575.653 30.8443 575.886 30.8443C576.124 30.8443 576.349 30.8166 576.56 30.7619ZM585.146 32.5941C584.764 32.4948 584.418 32.3526 584.106 32.1665C583.795 31.9804 583.523 31.752 583.289 31.4806C583.056 31.2099 582.858 30.9056 582.696 30.5692C582.534 30.2321 582.41 29.8629 582.327 29.4601C582.243 29.0573 582.201 28.629 582.201 28.1744V28.0183C582.201 27.3287 582.303 26.7056 582.509 26.1495C582.715 25.5943 582.999 25.1222 583.362 24.7332C583.725 24.3443 584.161 24.0459 584.671 23.8379C585.18 23.63 585.741 23.5256 586.353 23.5256C586.802 23.5256 587.217 23.5789 587.596 23.6854C587.974 23.7927 588.316 23.9488 588.62 24.1539C588.923 24.3589 589.189 24.6099 589.419 24.9054C589.65 25.201 589.84 25.5352 589.988 25.9073C590.138 26.2802 590.249 26.6881 590.322 27.1317C590.395 27.5753 590.423 28.046 590.407 28.5444V28.5524H583.834V28.5932C583.85 28.8837 583.891 29.1587 583.956 29.4192C584.021 29.679 584.106 29.9147 584.212 30.1256C584.317 30.3364 584.446 30.5254 584.597 30.6925C584.749 30.8596 584.917 31.0005 585.101 31.115C585.285 31.2303 585.49 31.3179 585.715 31.3784C585.939 31.4383 586.179 31.4682 586.433 31.4682C586.759 31.4682 587.047 31.4346 587.299 31.366C587.551 31.2974 587.772 31.1989 587.961 31.0698C588.151 30.9414 588.311 30.7837 588.441 30.5977C588.571 30.4116 588.668 30.2036 588.733 29.9738H590.293C590.195 30.3788 590.041 30.7509 589.83 31.0909C589.619 31.4302 589.351 31.7228 589.025 31.9695C588.701 32.2161 588.319 32.4065 587.88 32.5401C587.441 32.6743 586.946 32.7415 586.393 32.7415C585.943 32.7415 585.528 32.6926 585.146 32.5941ZM585.398 24.9011C585.113 25.0025 584.864 25.1572 584.651 25.3651C584.436 25.5738 584.26 25.8365 584.122 26.1539C583.984 26.4713 583.893 26.8522 583.85 27.2959V27.3039H588.798V27.2959C588.782 27.0383 588.747 26.796 588.693 26.5691C588.639 26.3415 588.56 26.1335 588.457 25.9445C588.354 25.7555 588.232 25.587 588.091 25.4396C587.951 25.2914 587.792 25.1674 587.616 25.066C587.44 24.9645 587.246 24.8865 587.035 24.8317C586.824 24.777 586.594 24.7493 586.345 24.7493C585.998 24.7493 585.682 24.8004 585.398 24.9011ZM592.722 23.7474H594.257V24.8398C594.393 24.6479 594.544 24.4698 594.712 24.3056C594.88 24.1415 595.068 24.0036 595.277 23.8912C595.485 23.7788 595.719 23.6898 595.975 23.6241C596.233 23.5585 596.518 23.5256 596.833 23.5256C597.337 23.5256 597.778 23.6066 598.157 23.7679C598.536 23.9291 598.856 24.1648 599.116 24.4742C599.376 24.7836 599.571 25.1645 599.701 25.6162C599.831 26.0678 599.896 26.5837 599.896 27.1645V32.5116H598.36V27.4929C598.36 27.0492 598.317 26.6618 598.23 26.3305C598.144 25.9992 598.014 25.7212 597.841 25.4972C597.667 25.2725 597.453 25.1039 597.198 24.9915C596.944 24.8799 596.649 24.823 596.313 24.823C595.966 24.823 595.667 24.8821 595.415 25.0003C595.163 25.1178 594.949 25.29 594.773 25.5176C594.597 25.7446 594.467 26.0255 594.383 26.3597C594.299 26.6932 594.257 27.0821 594.257 27.5257V32.5116H592.722V23.7474ZM601.874 31.2551L606.879 25.0616H602.134V23.7474H608.675V24.9959L603.645 31.1975H608.789V32.5116H601.874V31.2551ZM442.914 51.985C442.532 51.8238 442.214 51.5881 441.959 51.2787C441.704 50.9693 441.512 50.5877 441.382 50.1331C441.252 49.6785 441.187 49.1634 441.187 48.5884V43.2333H442.715V48.26C442.715 48.7037 442.76 49.0911 442.848 49.4224C442.938 49.7537 443.066 50.0302 443.235 50.252C443.403 50.4739 443.613 50.6424 443.868 50.757C444.123 50.8723 444.421 50.9299 444.762 50.9299C445.103 50.9299 445.403 50.8708 445.66 50.7533C445.917 50.6351 446.131 50.4629 446.302 50.2353C446.472 50.0083 446.601 49.7274 446.688 49.3939C446.774 49.0597 446.818 48.6708 446.818 48.2272V43.2333H448.338V51.9974H446.818V50.9131C446.682 51.105 446.532 51.2831 446.367 51.4473C446.202 51.6114 446.013 51.7501 445.802 51.8617C445.591 51.9741 445.357 52.0631 445.1 52.1288C444.842 52.1945 444.556 52.2273 444.242 52.2273C443.738 52.2273 443.296 52.1463 442.914 51.985ZM451.175 43.2333H452.71V44.3256C452.846 44.1337 452.997 43.9556 453.166 43.7915C453.333 43.6273 453.521 43.4894 453.73 43.377C453.939 43.2646 454.172 43.1756 454.429 43.1099C454.686 43.0443 454.972 43.0114 455.286 43.0114C455.79 43.0114 456.231 43.0924 456.611 43.2537C456.99 43.415 457.309 43.6506 457.569 43.96C457.829 44.2694 458.024 44.6503 458.155 45.102C458.284 45.5536 458.349 46.0695 458.349 46.6503V51.9974H456.813V46.9787C456.813 46.5351 456.77 46.1476 456.684 45.8163C456.597 45.4851 456.467 45.207 456.294 44.983C456.12 44.7583 455.906 44.5897 455.651 44.4774C455.397 44.3657 455.102 44.3088 454.766 44.3088C454.419 44.3088 454.12 44.3679 453.868 44.4861C453.616 44.6036 453.402 44.7758 453.226 45.0035C453.05 45.2304 452.92 45.5113 452.836 45.8455C452.752 46.179 452.71 46.5679 452.71 47.0115V51.9974H451.175V43.2333ZM463.428 52.0959C463.102 52.0084 462.798 51.8785 462.513 51.7056C462.229 51.5334 461.972 51.3196 461.742 51.0649C461.512 50.8103 461.314 50.5147 461.149 50.1783C460.983 49.8412 460.853 49.4662 460.759 49.0525C460.664 48.6395 460.617 48.1914 460.617 47.7098V47.5289C460.617 47.0415 460.664 46.5927 460.759 46.1819C460.853 45.7711 460.983 45.3975 461.149 45.0604C461.314 44.724 461.512 44.4285 461.742 44.1738C461.972 43.9192 462.229 43.7039 462.513 43.5288C462.798 43.3537 463.102 43.2238 463.428 43.1384C463.753 43.0538 464.091 43.0114 464.443 43.0114C464.763 43.0114 465.061 43.0487 465.337 43.1223C465.613 43.196 465.867 43.2975 466.097 43.4259C466.327 43.555 466.532 43.7097 466.711 43.89C466.889 44.0709 467.04 44.2679 467.165 44.4817V40.1365H468.693V51.9974H467.165V50.757C467.04 50.9708 466.889 51.1678 466.711 51.3488C466.532 51.529 466.327 51.6837 466.097 51.8128C465.867 51.9413 465.613 52.0427 465.337 52.1164C465.061 52.1908 464.763 52.2273 464.443 52.2273C464.091 52.2273 463.753 52.1835 463.428 52.0959ZM465.41 50.8599C465.626 50.8022 465.826 50.7117 466.008 50.5884C466.189 50.4658 466.356 50.3126 466.507 50.1287C466.659 49.9456 466.786 49.7318 466.889 49.4881C466.992 49.2444 467.072 48.9693 467.129 48.6628C467.186 48.3556 467.214 48.0192 467.214 47.6522V47.5865C467.214 47.2195 467.186 46.8831 467.129 46.5759C467.072 46.2695 466.992 45.9944 466.889 45.7507C466.786 45.5069 466.659 45.2939 466.507 45.11C466.356 44.9268 466.189 44.7736 466.008 44.6503C465.826 44.527 465.628 44.4365 465.414 44.3789C465.2 44.3212 464.974 44.2928 464.736 44.2928C464.492 44.2928 464.263 44.3212 464.049 44.3789C463.835 44.4365 463.635 44.5241 463.448 44.6415C463.261 44.7598 463.094 44.9086 462.949 45.0896C462.802 45.2705 462.676 45.4821 462.57 45.7258C462.465 45.9696 462.385 46.2432 462.331 46.5475C462.277 46.8517 462.249 47.1896 462.249 47.5617V47.677C462.249 48.0491 462.277 48.3877 462.331 48.6913C462.385 48.9955 462.465 49.2677 462.57 49.5085C462.676 49.7493 462.802 49.9616 462.949 50.1455C463.094 50.3287 463.261 50.479 463.448 50.5972C463.635 50.7147 463.835 50.8022 464.049 50.8599C464.263 50.9175 464.492 50.946 464.736 50.946C464.969 50.946 465.193 50.9175 465.41 50.8599ZM475.89 40.1365H479.482C480.105 40.1365 480.689 40.1883 481.237 40.2927C481.784 40.3963 482.284 40.5524 482.736 40.7604C483.188 40.9691 483.593 41.2332 483.95 41.5535C484.308 41.8739 484.61 42.2518 484.856 42.6867C485.103 43.1223 485.292 43.6163 485.421 44.1694C485.551 44.7225 485.616 45.3413 485.616 46.0257V46.1491C485.616 46.8174 485.551 47.4275 485.421 47.9806C485.292 48.5337 485.103 49.0269 484.856 49.4596C484.61 49.8923 484.308 50.2681 483.95 50.5884C483.593 50.9088 483.188 51.1722 482.736 51.3772C482.284 51.583 481.784 51.7377 481.237 51.8413C480.689 51.9456 480.105 51.9974 479.482 51.9974H475.89V40.1365ZM479.449 50.6176C479.921 50.6176 480.36 50.5833 480.766 50.5147C481.172 50.4461 481.542 50.3367 481.875 50.1864C482.208 50.0361 482.502 49.8412 482.757 49.6034C483.011 49.3648 483.224 49.0802 483.394 48.7489C483.565 48.4176 483.696 48.0382 483.788 47.6113C483.88 47.1837 483.927 46.7022 483.927 46.1658V46.0097C483.927 45.4675 483.88 44.983 483.788 44.5554C483.696 44.1286 483.565 43.7477 483.394 43.4135C483.224 43.08 483.011 42.7955 482.757 42.5598C482.502 42.3241 482.208 42.1285 481.875 41.9724C481.542 41.8162 481.172 41.7024 480.766 41.6316C480.36 41.5601 479.921 41.5244 479.449 41.5244H477.483V50.6176H479.449ZM489.375 52.0587C489.002 51.9471 488.677 51.7785 488.4 51.5538C488.125 51.3291 487.909 51.0569 487.754 50.7366C487.6 50.4162 487.523 50.0507 487.523 49.6398V49.5742C487.523 49.2735 487.561 49.0006 487.637 48.7569C487.712 48.5132 487.826 48.2958 487.978 48.1039C488.13 47.9127 488.318 47.7441 488.542 47.5989C488.768 47.4537 489.031 47.3253 489.335 47.2129C489.638 47.1006 489.975 47.0006 490.346 46.913C490.717 46.8255 491.125 46.7489 491.569 46.6832C491.938 46.6226 492.233 46.5628 492.455 46.5022C492.677 46.4424 492.848 46.3767 492.967 46.3052C493.086 46.2337 493.165 46.144 493.207 46.0338C493.247 45.9243 493.267 45.782 493.267 45.6069V45.566C493.267 45.3253 493.223 45.1173 493.133 44.9414C493.044 44.7663 492.921 44.624 492.763 44.5146C492.606 44.4051 492.417 44.3241 492.195 44.2723C491.972 44.2205 491.726 44.1942 491.456 44.1942C491.163 44.1942 490.895 44.2271 490.651 44.2928C490.408 44.3584 490.196 44.4599 490.017 44.5963C489.839 44.7335 489.702 44.9086 489.607 45.1224C489.513 45.3362 489.459 45.5909 489.448 45.8864H487.921C487.921 45.388 488.015 44.9582 488.201 44.5963C488.388 44.2351 488.643 43.9352 488.965 43.6973C489.287 43.4587 489.664 43.2822 490.094 43.1676C490.525 43.0523 490.976 42.9947 491.448 42.9947C491.972 42.9947 492.444 43.0414 492.861 43.1348C493.278 43.2274 493.629 43.385 493.913 43.6069C494.198 43.8287 494.414 44.122 494.564 44.4861C494.712 44.8502 494.787 45.3004 494.787 45.8368L494.771 49.1473C494.771 49.4647 494.773 49.7522 494.779 50.0098C494.784 50.2674 494.795 50.5096 494.811 50.7366C494.828 50.9642 494.849 51.1787 494.876 51.3816C494.904 51.5837 494.941 51.7895 494.99 51.9974H493.446C493.435 51.915 493.425 51.8362 493.414 51.7596C493.403 51.6829 493.394 51.6063 493.385 51.529C493.377 51.4524 493.369 51.3728 493.361 51.2911C493.352 51.2087 493.346 51.1211 493.34 51.0284C493.216 51.2087 493.067 51.3721 492.893 51.5166C492.72 51.6618 492.521 51.788 492.296 51.8946C492.071 52.0018 491.819 52.0835 491.541 52.1412C491.261 52.1988 490.946 52.2273 490.594 52.2273C490.156 52.2273 489.749 52.1711 489.375 52.0587ZM491.561 50.9584C491.767 50.9226 491.957 50.8642 492.13 50.7818C492.303 50.6993 492.46 50.6001 492.601 50.4819C492.742 50.3644 492.861 50.2258 492.958 50.0674C493.056 49.9084 493.132 49.7289 493.186 49.5289C493.241 49.329 493.267 49.1064 493.267 48.8598V47.2742C493.116 47.3399 492.971 47.399 492.833 47.4508C492.695 47.5033 492.555 47.5493 492.414 47.5909C492.273 47.6318 492.13 47.6726 491.984 47.7135C491.837 47.7551 491.678 47.7945 491.504 47.8332C491.217 47.9098 490.958 47.982 490.728 48.0506C490.498 48.1192 490.295 48.19 490.119 48.2644C489.943 48.3381 489.793 48.4133 489.668 48.4899C489.544 48.5665 489.442 48.6555 489.363 48.7569C489.284 48.8584 489.229 48.9722 489.196 49.0977C489.164 49.2239 489.148 49.3633 489.148 49.5165V49.5581C489.148 49.804 489.188 50.0178 489.27 50.1988C489.351 50.379 489.466 50.5301 489.615 50.6505C489.764 50.7708 489.949 50.8613 490.172 50.9212C490.394 50.9817 490.646 51.0116 490.927 51.0116C491.144 51.0116 491.355 50.9941 491.561 50.9584ZM499.421 51.9442C499.184 51.9084 498.98 51.8508 498.807 51.7712C498.634 51.6924 498.49 51.5896 498.376 51.4633C498.263 51.3378 498.172 51.1831 498.104 50.9992C498.036 50.8161 497.989 50.6052 497.962 50.3666C497.934 50.1287 497.921 49.8587 497.921 49.5581V44.5474H496.605V43.2333H497.921V40.4977H499.449V43.2333H501.285V44.5474H499.449V49.5165C499.449 49.7362 499.459 49.9208 499.481 50.0711C499.503 50.2221 499.552 50.3425 499.628 50.433C499.703 50.5228 499.812 50.5877 499.952 50.6256C500.093 50.6643 500.286 50.6833 500.529 50.6833H501.212V51.9974H500.245C499.931 51.9974 499.656 51.9799 499.421 51.9442ZM505.649 52.0799C505.267 51.9807 504.921 51.8384 504.609 51.6523C504.298 51.4662 504.025 51.2378 503.792 50.9664C503.559 50.6957 503.361 50.3914 503.199 50.055C503.037 49.7179 502.913 49.3487 502.829 48.9459C502.746 48.5431 502.704 48.1148 502.704 47.6602V47.5041C502.704 46.8145 502.806 46.1914 503.012 45.6354C503.218 45.0801 503.502 44.608 503.865 44.2191C504.228 43.8301 504.664 43.5317 505.174 43.3237C505.683 43.1158 506.243 43.0114 506.856 43.0114C507.305 43.0114 507.72 43.0647 508.099 43.1712C508.477 43.2785 508.819 43.4347 509.123 43.6397C509.426 43.8447 509.692 44.0957 509.922 44.3913C510.153 44.6868 510.343 45.021 510.491 45.3931C510.641 45.766 510.752 46.1739 510.825 46.6175C510.898 47.0612 510.926 47.5318 510.91 48.0302V48.0382H504.337V48.0791C504.353 48.3695 504.394 48.6446 504.459 48.9051C504.524 49.1648 504.609 49.4005 504.715 49.6114C504.82 49.8223 504.949 50.0112 505.1 50.1783C505.252 50.3454 505.42 50.4863 505.604 50.6008C505.788 50.7161 505.993 50.8037 506.218 50.8642C506.442 50.9241 506.682 50.954 506.936 50.954C507.262 50.954 507.55 50.9204 507.802 50.8518C508.054 50.7833 508.275 50.6847 508.464 50.5556C508.654 50.4272 508.814 50.2696 508.944 50.0835C509.074 49.8974 509.171 49.6895 509.236 49.4596H510.796C510.698 49.8646 510.544 50.2367 510.333 50.5768C510.122 50.9161 509.854 51.2087 509.528 51.4553C509.204 51.7019 508.822 51.8924 508.383 52.0259C507.944 52.1602 507.449 52.2273 506.896 52.2273C506.446 52.2273 506.031 52.1784 505.649 52.0799ZM505.901 44.3869C505.616 44.4883 505.367 44.643 505.154 44.851C504.939 45.0596 504.763 45.3223 504.625 45.6397C504.487 45.9572 504.396 46.338 504.353 46.7817V46.7897H509.301V46.7817C509.285 46.5241 509.25 46.2819 509.196 46.0549C509.141 45.8273 509.063 45.6193 508.96 45.4303C508.857 45.2413 508.735 45.0728 508.594 44.9254C508.454 44.7773 508.295 44.6532 508.119 44.5518C507.943 44.4504 507.749 44.3723 507.538 44.3176C507.327 44.2628 507.097 44.2351 506.848 44.2351C506.5 44.2351 506.185 44.2862 505.901 44.3869ZM513.225 43.2333H514.76V44.3256C514.896 44.1337 515.047 43.9556 515.215 43.7915C515.383 43.6273 515.571 43.4894 515.78 43.377C515.988 43.2646 516.221 43.1756 516.478 43.1099C516.736 43.0443 517.021 43.0114 517.336 43.0114C517.84 43.0114 518.281 43.0924 518.66 43.2537C519.039 43.415 519.359 43.6506 519.619 43.96C519.879 44.2694 520.074 44.6503 520.204 45.102C520.334 45.5536 520.399 46.0695 520.399 46.6503V51.9974H518.863V46.9787C518.863 46.5351 518.82 46.1476 518.733 45.8163C518.647 45.4851 518.517 45.207 518.344 44.983C518.17 44.7583 517.956 44.5897 517.701 44.4774C517.447 44.3657 517.152 44.3088 516.816 44.3088C516.469 44.3088 516.169 44.3679 515.918 44.4861C515.666 44.6036 515.452 44.7758 515.276 45.0035C515.1 45.2304 514.97 45.5113 514.886 45.8455C514.802 46.179 514.76 46.5679 514.76 47.0115V51.9974H513.225V43.2333ZM525.05 51.8946C524.535 51.6727 524.099 51.3633 523.741 50.9664C523.384 50.5695 523.11 50.093 522.921 49.5377C522.731 48.9817 522.637 48.3644 522.637 47.685V47.5289C522.637 46.8612 522.731 46.249 522.921 45.693C523.11 45.1377 523.384 44.6612 523.741 44.2643C524.099 43.8674 524.535 43.5587 525.05 43.3398C525.564 43.1209 526.149 43.0114 526.804 43.0114C527.46 43.0114 528.047 43.1209 528.563 43.3398C529.081 43.5587 529.518 43.8674 529.875 44.2643C530.234 44.6612 530.506 45.1377 530.693 45.693C530.88 46.249 530.973 46.8612 530.973 47.5289V47.685C530.973 48.3644 530.88 48.9817 530.693 49.5377C530.506 50.093 530.234 50.5695 529.875 50.9664C529.518 51.3633 529.081 51.6727 528.563 51.8946C528.047 52.1164 527.46 52.2273 526.804 52.2273C526.149 52.2273 525.564 52.1164 525.05 51.8946ZM524.132 40.1365H525.675V42.0337H524.132V40.1365ZM527.909 50.7161C528.229 50.5629 528.496 50.344 528.71 50.0587C528.924 49.7741 529.085 49.4319 529.193 49.032C529.302 48.6329 529.356 48.1863 529.356 47.6931V47.5209C529.356 47.0334 529.302 46.5898 529.193 46.1899C529.085 45.7908 528.924 45.4508 528.71 45.1713C528.496 44.8926 528.229 44.6758 527.909 44.5226C527.59 44.3694 527.221 44.2928 526.804 44.2928C526.387 44.2928 526.018 44.3694 525.696 44.5226C525.373 44.6758 525.107 44.8926 524.9 45.1713C524.691 45.4508 524.532 45.7908 524.424 46.1899C524.316 46.5898 524.261 47.0334 524.261 47.5209V47.6931C524.261 48.1863 524.316 48.6329 524.424 49.032C524.532 49.4319 524.691 49.7741 524.9 50.0587C525.107 50.344 525.373 50.5629 525.696 50.7161C526.018 50.8694 526.387 50.946 526.804 50.946C527.221 50.946 527.59 50.8694 527.909 50.7161ZM527.951 40.1365H529.478V42.0337H527.951V40.1365ZM533.321 40.1365H534.856V46.9539L538.943 43.2333H540.828L536.245 47.3238L541.088 51.9974H538.951L534.856 48.0462V51.9974H533.321V40.1365ZM544.036 51.8946C543.522 51.6727 543.086 51.3633 542.728 50.9664C542.37 50.5695 542.097 50.093 541.908 49.5377C541.718 48.9817 541.623 48.3644 541.623 47.685V47.5289C541.623 46.8612 541.718 46.249 541.908 45.693C542.097 45.1377 542.37 44.6612 542.728 44.2643C543.086 43.8674 543.522 43.5587 544.036 43.3398C544.551 43.1209 545.135 43.0114 545.791 43.0114C546.446 43.0114 547.033 43.1209 547.55 43.3398C548.067 43.5587 548.505 43.8674 548.862 44.2643C549.22 44.6612 549.492 45.1377 549.679 45.693C549.866 46.249 549.959 46.8612 549.959 47.5289V47.685C549.959 48.3644 549.866 48.9817 549.679 49.5377C549.492 50.093 549.22 50.5695 548.862 50.9664C548.505 51.3633 548.067 51.6727 547.55 51.8946C547.033 52.1164 546.446 52.2273 545.791 52.2273C545.135 52.2273 544.551 52.1164 544.036 51.8946ZM546.896 50.7161C547.216 50.5629 547.483 50.344 547.696 50.0587C547.91 49.7741 548.072 49.4319 548.18 49.032C548.288 48.6329 548.342 48.1863 548.342 47.6931V47.5209C548.342 47.0334 548.288 46.5898 548.18 46.1899C548.072 45.7908 547.91 45.4508 547.696 45.1713C547.483 44.8926 547.216 44.6758 546.896 44.5226C546.576 44.3694 546.208 44.2928 545.791 44.2928C545.374 44.2928 545.004 44.3694 544.682 44.5226C544.36 44.6758 544.094 44.8926 543.886 45.1713C543.677 45.4508 543.519 45.7908 543.41 46.1899C543.302 46.5898 543.248 47.0334 543.248 47.5209V47.6931C543.248 48.1863 543.302 48.6329 543.41 49.032C543.519 49.4319 543.677 49.7741 543.886 50.0587C544.094 50.344 544.36 50.5629 544.682 50.7161C545.004 50.8694 545.374 50.946 545.791 50.946C546.208 50.946 546.576 50.8694 546.896 50.7161ZM552.306 43.2333H553.842V44.3256C553.977 44.1337 554.129 43.9556 554.297 43.7915C554.465 43.6273 554.653 43.4894 554.862 43.377C555.07 43.2646 555.303 43.1756 555.56 43.1099C555.818 43.0443 556.103 43.0114 556.418 43.0114C556.922 43.0114 557.363 43.0924 557.742 43.2537C558.121 43.415 558.441 43.6506 558.701 43.96C558.961 44.2694 559.155 44.6503 559.286 45.102C559.416 45.5536 559.481 46.0695 559.481 46.6503V51.9974H557.945V46.9787C557.945 46.5351 557.902 46.1476 557.815 45.8163C557.728 45.4851 557.599 45.207 557.425 44.983C557.251 44.7583 557.038 44.5897 556.783 44.4774C556.529 44.3657 556.234 44.3088 555.897 44.3088C555.551 44.3088 555.251 44.3679 554.999 44.4861C554.747 44.6036 554.534 44.7758 554.358 45.0035C554.182 45.2304 554.052 45.5113 553.968 45.8455C553.884 46.179 553.842 46.5679 553.842 47.0115V51.9974H552.306V43.2333ZM564.139 51.8946C563.625 51.6727 563.189 51.3633 562.832 50.9664C562.474 50.5695 562.2 50.093 562.011 49.5377C561.821 48.9817 561.727 48.3644 561.727 47.685V47.5289C561.727 46.8612 561.821 46.249 562.011 45.693C562.2 45.1377 562.474 44.6612 562.832 44.2643C563.189 43.8674 563.625 43.5587 564.139 43.3398C564.654 43.1209 565.239 43.0114 565.895 43.0114C566.55 43.0114 567.136 43.1209 567.654 43.3398C568.171 43.5587 568.608 43.8674 568.966 44.2643C569.323 44.6612 569.595 45.1377 569.782 45.693C569.969 46.249 570.062 46.8612 570.062 47.5289V47.685C570.062 48.3644 569.969 48.9817 569.782 49.5377C569.595 50.093 569.323 50.5695 568.966 50.9664C568.608 51.3633 568.171 51.6727 567.654 51.8946C567.136 52.1164 566.55 52.2273 565.895 52.2273C565.239 52.2273 564.654 52.1164 564.139 51.8946ZM567 50.7161C567.319 50.5629 567.586 50.344 567.8 50.0587C568.014 49.7741 568.175 49.4319 568.283 49.032C568.391 48.6329 568.446 48.1863 568.446 47.6931V47.5209C568.446 47.0334 568.391 46.5898 568.283 46.1899C568.175 45.7908 568.014 45.4508 567.8 45.1713C567.586 44.8926 567.319 44.6758 567 44.5226C566.68 44.3694 566.311 44.2928 565.895 44.2928C565.478 44.2928 565.107 44.3694 564.785 44.5226C564.463 44.6758 564.198 44.8926 563.989 45.1713C563.781 45.4508 563.622 45.7908 563.514 46.1899C563.405 46.5898 563.351 47.0334 563.351 47.5209V47.6931C563.351 48.1863 563.405 48.6329 563.514 49.032C563.622 49.4319 563.781 49.7741 563.989 50.0587C564.198 50.344 564.463 50.5629 564.785 50.7161C565.107 50.8694 565.478 50.946 565.895 50.946C566.311 50.946 566.68 50.8694 567 50.7161ZM572.412 43.2333H573.948V44.3256C574.083 44.1337 574.235 43.9556 574.403 43.7915C574.571 43.6273 574.759 43.4894 574.968 43.377C575.176 43.2646 575.409 43.1756 575.666 43.1099C575.924 43.0443 576.207 43.0114 576.516 43.0114C576.852 43.0114 577.159 43.0472 577.438 43.118C577.717 43.1895 577.97 43.2946 578.198 43.4347C578.425 43.574 578.623 43.744 578.79 43.944C578.958 44.1439 579.099 44.3752 579.213 44.6379C579.386 44.3475 579.58 44.1008 579.794 43.8987C580.008 43.6959 580.238 43.5273 580.485 43.3931C580.731 43.2595 580.994 43.1618 581.272 43.1019C581.552 43.0414 581.846 43.0114 582.154 43.0114C582.663 43.0114 583.108 43.0924 583.487 43.2537C583.866 43.415 584.184 43.6506 584.442 43.96C584.699 44.2694 584.891 44.6503 585.018 45.102C585.146 45.5536 585.209 46.0695 585.209 46.6503V51.9974H583.674V46.9787C583.674 46.5351 583.632 46.1476 583.547 45.8163C583.464 45.4851 583.335 45.207 583.162 44.983C582.988 44.7583 582.773 44.5897 582.516 44.4774C582.258 44.3657 581.962 44.3088 581.626 44.3088C581.28 44.3088 580.979 44.3679 580.725 44.4861C580.47 44.6036 580.258 44.7758 580.091 45.0035C579.923 45.2304 579.796 45.5113 579.713 45.8455C579.629 46.179 579.587 46.5679 579.587 47.0115V51.9974H578.051V46.9787C578.051 46.5351 578.008 46.1476 577.921 45.8163C577.835 45.4851 577.705 45.2085 577.531 44.9867C577.357 44.7649 577.144 44.5963 576.889 44.4817C576.635 44.3665 576.34 44.3088 576.003 44.3088C575.657 44.3088 575.357 44.3679 575.105 44.4861C574.854 44.6036 574.64 44.7758 574.464 45.0035C574.288 45.2304 574.158 45.5113 574.074 45.8455C573.99 46.179 573.948 46.5679 573.948 47.0115V51.9974H572.412V43.2333ZM587.976 40.1365H589.512V42.0585H587.976V40.1365ZM587.976 43.2333H589.512V51.9974H587.976V43.2333ZM594.797 52.0799C594.415 51.9807 594.068 51.8384 593.756 51.6523C593.445 51.4662 593.173 51.2378 592.94 50.9664C592.707 50.6957 592.509 50.3914 592.347 50.055C592.184 49.7179 592.061 49.3487 591.977 48.9459C591.893 48.5431 591.852 48.1148 591.852 47.6602V47.5041C591.852 46.8145 591.954 46.1914 592.16 45.6354C592.366 45.0801 592.65 44.608 593.013 44.2191C593.376 43.8301 593.812 43.5317 594.322 43.3237C594.83 43.1158 595.391 43.0114 596.003 43.0114C596.453 43.0114 596.867 43.0647 597.246 43.1712C597.625 43.2785 597.967 43.4347 598.271 43.6397C598.574 43.8447 598.84 44.0957 599.07 44.3913C599.3 44.6868 599.49 45.021 599.639 45.3931C599.788 45.766 599.9 46.1739 599.972 46.6175C600.045 47.0612 600.074 47.5318 600.058 48.0302V48.0382H593.484V48.0791C593.501 48.3695 593.541 48.6446 593.606 48.9051C593.671 49.1648 593.756 49.4005 593.863 49.6114C593.968 49.8223 594.096 50.0112 594.248 50.1783C594.4 50.3454 594.568 50.4863 594.752 50.6008C594.936 50.7161 595.141 50.8037 595.365 50.8642C595.59 50.9241 595.83 50.954 596.084 50.954C596.41 50.954 596.698 50.9204 596.95 50.8518C597.202 50.7833 597.422 50.6847 597.612 50.5556C597.801 50.4272 597.962 50.2696 598.091 50.0835C598.221 49.8974 598.319 49.6895 598.384 49.4596H599.944C599.846 49.8646 599.692 50.2367 599.481 50.5768C599.269 50.9161 599.002 51.2087 598.676 51.4553C598.351 51.7019 597.969 51.8924 597.531 52.0259C597.092 52.1602 596.597 52.2273 596.044 52.2273C595.594 52.2273 595.178 52.1784 594.797 52.0799ZM595.048 44.3869C594.764 44.4883 594.515 44.643 594.301 44.851C594.087 45.0596 593.911 45.3223 593.773 45.6397C593.634 45.9572 593.544 46.338 593.501 46.7817V46.7897H598.449V46.7817C598.433 46.5241 598.398 46.2819 598.343 46.0549C598.289 45.8273 598.211 45.6193 598.107 45.4303C598.005 45.2413 597.883 45.0728 597.742 44.9254C597.601 44.7773 597.443 44.6532 597.266 44.5518C597.09 44.4504 596.897 44.3723 596.685 44.3176C596.475 44.2628 596.244 44.2351 595.995 44.2351C595.648 44.2351 595.333 44.2862 595.048 44.3869Z" fill="white"/>
</g>
<defs>
<clipPath id="clip0_115_9857">
<rect width="613.733" height="53.158" fill="white" transform="translate(0.133484)"/>
</clipPath>
</defs>
</svg>
