<?xml version="1.0" encoding="UTF-8"?>
<svg width="254" height="65" viewBox="0 0 254 65" fill="none" xmlns="http://www.w3.org/2000/svg">
    <path d="M0 63.5818V42.4191H8.33901C13.9961 42.4191 17.1177 44.5295 17.1177 49.3219V49.3805C17.1177 54.1582 14.04 56.2686 8.39763 56.2686H4.68978V63.5818H0ZM4.68978 52.4728H8.23642C10.933 52.4728 12.1934 51.5349 12.1934 49.3952V49.3219C12.1934 47.1675 10.933 46.2296 8.23642 46.2296H4.68978V52.4728Z" fill="#3C0483"/>
    <path d="M19.785 63.5818V42.4191H28.212C33.5319 42.4191 36.9906 43.6502 36.9906 48.0615V48.1201C36.9906 51.0952 35.4665 52.6047 33.444 53.3229C35.2027 53.8651 36.1846 54.7591 36.463 57.7049L36.6682 59.8153C36.9613 62.7317 37.0932 63.1274 37.313 63.5818H32.4767C32.3009 63.0835 32.1689 62.3653 32.0957 61.6179L31.7879 58.5696C31.5241 55.7557 30.7181 55.404 28.1973 55.404H24.4748V63.5818H19.785ZM24.4748 51.8133H28.1533C30.8793 51.8133 32.0957 51.0806 32.0957 48.9995V48.9409C32.0957 46.8598 30.8793 46.127 28.1533 46.127H24.4748V51.8133Z" fill="#3C0483"/>
    <path d="M49.4332 64.0507C43.6589 64.0507 40.5519 61.5446 40.5519 55.2574V42.4191H45.2417V55.2134C45.2417 58.6868 46.6486 60.1524 49.4332 60.1524C52.2324 60.1524 53.6393 58.6868 53.6393 55.2134V42.4191H58.3291V55.2574C58.3291 61.5446 55.2075 64.0507 49.4332 64.0507ZM43.5417 39.7079V36H47.5866V39.7079H43.5417ZM51.3091 39.7079V36H55.354V39.7079H51.3091Z" fill="#3C0483"/>
    <path d="M62.3447 63.5818V42.4191H77.5279V46.3029H67.0345V50.978H76.4874V54.8617H67.0345V63.5818H62.3447Z" fill="#3C0483"/>
    <path d="M80.3125 63.5818V42.4191H88.6515C94.3085 42.4191 97.4302 44.5295 97.4302 49.3219V49.3805C97.4302 54.1582 94.3525 56.2686 88.7101 56.2686H85.0022V63.5818H80.3125ZM85.0022 52.4728H88.5489C91.2455 52.4728 92.5059 51.5349 92.5059 49.3952V49.3219C92.5059 47.1675 91.2455 46.2296 88.5489 46.2296H85.0022V52.4728Z" fill="#3C0483"/>
    <path d="M110.063 64.0507C103.366 64.0507 99.1302 59.8592 99.1302 53.1763V52.7953C99.1302 46.1123 103.366 41.9355 110.063 41.9355C116.761 41.9355 121.011 46.1123 121.011 52.7953V53.1763C121.011 59.8592 116.761 64.0507 110.063 64.0507ZM110.063 60.167C113.786 60.167 116.072 57.5876 116.072 53.2203V52.7513C116.072 48.3693 113.786 45.8192 110.063 45.8192C106.355 45.8192 104.069 48.3693 104.069 52.7513V53.2203C104.069 57.5876 106.355 60.167 110.063 60.167Z" fill="#3C0483"/>
    <path d="M124.279 63.5818V42.4191H132.706C138.026 42.4191 141.485 43.6502 141.485 48.0615V48.1201C141.485 51.0952 139.961 52.6047 137.938 53.3229C139.697 53.8651 140.679 54.7591 140.957 57.7049L141.162 59.8153C141.455 62.7317 141.587 63.1274 141.807 63.5818H136.971C136.795 63.0835 136.663 62.3653 136.59 61.6179L136.282 58.5696C136.018 55.7557 135.212 55.404 132.691 55.404H128.969V63.5818H124.279ZM128.969 51.8133H132.647C135.373 51.8133 136.59 51.0806 136.59 48.9995V48.9409C136.59 46.8598 135.373 46.127 132.647 46.127H128.969V51.8133Z" fill="#3C0483"/>
    <path d="M149.736 63.5818V46.3175H142.862V42.4191H161.299V46.3175H154.426V63.5818H149.736Z" fill="#3C0483"/>
    <path d="M159.057 63.5818L166.941 42.4191H172.789L180.688 63.5818H175.676L173.874 58.5109H165.608L163.82 63.5818H159.057ZM166.868 54.6858H172.613L169.741 46.6546H169.711L166.868 54.6858Z" fill="#3C0483"/>
    <path d="M182.872 63.5818V42.4191H187.562V59.698H197V63.5818H182.872Z" fill="#3C0483"/>
    <g clip-path="url(#clip0_41_5528)">
        <path d="M0 0.698648H11.1222L18.5647 23.9662H18.6075L26.0289 0.698648H37.1722V31.2983H30.1123V17.9056L30.2397 8.05186H30.1973L22.329 31.2983H14.8432L6.95373 8.05186H6.91142L7.0388 17.9056V31.2983H0V0.698648ZM42.2902 0.698648H49.7544V31.2983H42.2902V0.698648ZM62.6635 31.246C60.9122 30.7446 59.4272 30.0453 58.2081 29.148C56.9889 28.2511 56.0178 27.1914 55.2949 25.9695C54.5721 24.7475 54.0899 23.4089 53.8488 21.9538H61.5893C61.7594 22.7027 62.0393 23.3701 62.4294 23.9562C62.819 24.5426 63.3189 25.0264 63.9285 25.4079C64.5381 25.7892 65.261 26.0753 66.0976 26.2662C66.9342 26.4568 67.8765 26.5521 68.926 26.5521C69.5498 26.5521 70.1347 26.524 70.6804 26.4673C71.226 26.4111 71.7329 26.3226 72.201 26.2025C72.6687 26.0826 73.0905 25.9306 73.4661 25.7468C73.8416 25.5634 74.1607 25.3442 74.423 25.0899C74.6853 24.8356 74.8876 24.5463 75.0291 24.2211C75.171 23.8963 75.242 23.5291 75.242 23.1193V23.098C75.242 22.4765 75.1142 21.9538 74.8589 21.5299C74.6042 21.106 74.2211 20.7459 73.7107 20.4492C73.2003 20.1525 72.5836 19.9019 71.8608 19.6968C71.1379 19.4923 70.3083 19.3122 69.3726 19.1565L64.5667 18.2664C63.0068 17.984 61.5963 17.592 60.3348 17.0904C59.0729 16.5892 58.0062 15.9567 57.1343 15.1937C56.2625 14.431 55.5995 13.5376 55.146 12.5131C54.692 11.489 54.4654 10.3198 54.4654 9.00604V8.96366C54.4654 8.05972 54.6144 7.21199 54.9119 6.42072C55.2099 5.62966 55.6383 4.89855 56.1985 4.2274C56.7583 3.55669 57.4354 2.96329 58.2297 2.44741C59.0235 1.93197 59.9236 1.49383 60.9303 1.13366C61.9366 0.773271 63.0249 0.494577 64.1943 0.296483C65.3641 0.0988275 66.6009 0 67.9052 0C69.9041 0 71.6977 0.211711 73.2854 0.635571C74.873 1.05943 76.2483 1.67765 77.411 2.4898C78.5734 3.30238 79.5021 4.28055 80.1968 5.42475C80.8914 6.56918 81.3591 7.86909 81.6002 9.32383H73.9236C73.7248 8.60349 73.4343 8.00305 73.0517 7.52275C72.6687 7.04267 72.2116 6.65395 71.68 6.35725C71.1485 6.06054 70.5349 5.84159 69.8407 5.70015C69.1456 5.55916 68.387 5.48844 67.5649 5.48844C67.0263 5.48844 66.5123 5.51677 66.0235 5.57321C65.5343 5.62966 65.0842 5.71443 64.673 5.82731C64.2617 5.94063 63.8826 6.08536 63.5353 6.26171C63.1875 6.43872 62.8975 6.64692 62.6635 6.88696C62.4294 7.12744 62.2452 7.40284 62.1103 7.71338C61.9754 8.02436 61.9084 8.36345 61.9084 8.73064V8.77303C61.9084 9.23906 62.0005 9.65962 62.1848 10.0338C62.369 10.4083 62.656 10.7404 63.046 11.0298C63.4357 11.3195 63.9285 11.5668 64.524 11.7715C65.1195 11.9764 65.8141 12.1564 66.608 12.3119L71.3931 13.2018C73.2219 13.5128 74.8378 13.9118 76.2412 14.3992C77.6451 14.8865 78.8286 15.4904 79.7926 16.211C80.7566 16.9314 81.4834 17.7933 81.9727 18.7963C82.4615 19.7995 82.7061 20.9932 82.7061 22.3776V22.4411C82.7061 23.9811 82.3694 25.3442 81.6959 26.531C81.0224 27.7176 80.0654 28.7208 78.8251 29.54C77.5843 30.3596 76.1103 30.9741 74.4018 31.3837C72.6934 31.7933 70.7976 31.9982 68.7136 31.9982C66.4308 31.9982 64.4142 31.7471 62.6635 31.246ZM93.568 31.2465C91.8168 30.7451 90.3318 30.0459 89.1126 29.1485C87.8934 28.2516 86.9224 27.192 86.1995 25.97C85.4766 24.7481 84.9944 23.4095 84.7533 21.9543H92.4938C92.664 22.7032 92.9439 23.3706 93.334 23.9568C93.7236 24.5432 94.2235 25.027 94.8331 25.4085C95.4427 25.7897 96.1655 26.0759 97.0021 26.2667C97.8387 26.4573 98.7811 26.5527 99.8306 26.5527C100.454 26.5527 101.039 26.5246 101.585 26.4679C102.131 26.4117 102.637 26.3232 103.106 26.203C103.573 26.0831 103.995 25.9311 104.371 25.7473C104.746 25.5639 105.065 25.3448 105.328 25.0905C105.59 24.8361 105.792 24.5469 105.934 24.2217C106.076 23.8968 106.147 23.5296 106.147 23.1198V23.0985C106.147 22.477 106.019 21.9543 105.764 21.5305C105.509 21.1066 105.126 20.7464 104.615 20.4497C104.105 20.153 103.488 19.9024 102.765 19.6973C102.042 19.4929 101.213 19.3128 100.277 19.1571L95.4713 18.267C93.9114 17.9845 92.5009 17.5925 91.2394 17.0909C89.9774 16.5898 88.9108 15.9573 88.0389 15.1943C87.167 14.4316 86.5041 13.5382 86.0505 12.5137C85.5965 11.4896 85.37 10.3203 85.37 9.0066V8.96422C85.37 8.06027 85.519 7.21255 85.8165 6.42127C86.1144 5.63021 86.5429 4.89911 87.1031 4.22796C87.6629 3.55725 88.3399 2.96385 89.1342 2.44797C89.9281 1.93253 90.8281 1.49439 91.8349 1.13422C92.8412 0.773829 93.9295 0.495135 95.0988 0.297041C96.2687 0.0993859 97.5055 0.000558316 98.8098 0.000558316C100.809 0.000558316 102.602 0.212269 104.19 0.636129C105.778 1.05999 107.153 1.67821 108.316 2.49035C109.478 3.30294 110.407 4.28111 111.101 5.42531C111.796 6.56974 112.264 7.86965 112.505 9.32439H104.828C104.629 8.60404 104.339 8.00361 103.956 7.52331C103.573 7.04323 103.116 6.65451 102.585 6.3578C102.053 6.0611 101.439 5.84214 100.745 5.70071C100.05 5.55972 99.2915 5.489 98.4695 5.489C97.9309 5.489 97.4169 5.51733 96.9281 5.57377C96.4388 5.63021 95.9888 5.71499 95.5775 5.82787C95.1663 5.94119 94.7872 6.08592 94.4399 6.26227C94.0921 6.43928 93.8021 6.64748 93.568 6.88752C93.334 7.128 93.1497 7.4034 93.0148 7.71394C92.88 8.02492 92.813 8.364 92.813 8.7312V8.77359C92.813 9.23962 92.9051 9.66018 93.0893 10.0344C93.2736 10.4089 93.5605 10.7409 93.9506 11.0304C94.3403 11.32 94.8331 11.5673 95.4286 11.772C96.024 11.9769 96.7187 12.157 97.5126 12.3125L102.298 13.2024C104.126 13.5134 105.742 13.9124 107.146 14.3997C108.55 14.8871 109.733 15.491 110.697 16.2116C111.661 16.9319 112.388 17.7939 112.877 18.7969C113.366 19.8001 113.611 20.9937 113.611 22.3782V22.4417C113.611 23.9816 113.274 25.3448 112.6 26.5316C111.927 27.7182 110.97 28.7214 109.73 29.5406C108.489 30.3602 107.015 30.9746 105.306 31.3842C103.598 31.7938 101.702 31.9987 99.6182 31.9987C97.3354 31.9987 95.3188 31.7477 93.568 31.2465ZM117.705 0.700533H125.169V31.3002H117.705V0.700533ZM141.853 31.4914C140.307 31.1525 138.886 30.6544 137.589 29.9975C136.292 29.3407 135.126 28.5426 134.091 27.6028C133.056 26.6635 132.18 25.6041 131.465 24.4243C130.749 23.245 130.202 21.9486 129.827 20.5358C129.451 19.1232 129.264 17.6114 129.264 16.0009V15.9585C129.264 13.5427 129.685 11.3567 130.529 9.3999C131.372 7.44333 132.563 5.76568 134.102 4.36716C135.639 2.96842 137.483 1.89142 139.631 1.1355C141.778 0.379798 144.157 0.00183718 146.765 0.00183718C148.495 0.00183718 150.132 0.171162 151.678 0.51025C153.223 0.849338 154.644 1.34413 155.941 1.99376C157.239 2.64361 158.397 3.43467 159.418 4.36716C160.439 5.29943 161.311 6.35579 162.034 7.53513C162.757 8.71491 163.306 10.0144 163.682 11.4342C164.057 12.854 164.246 14.3621 164.246 15.9585V16.0009C164.246 18.431 163.827 20.6241 162.991 22.5806C162.154 24.5374 160.967 26.2149 159.429 27.6136C157.89 29.0121 156.048 30.0928 153.9 30.8558C151.752 31.6185 149.374 32 146.765 32C145.036 32 143.398 31.8305 141.853 31.4914ZM149.466 25.6851C150.302 25.4875 151.078 25.1908 151.794 24.795C152.51 24.3997 153.159 23.9157 153.74 23.3436C154.321 22.7715 154.811 22.1181 155.207 21.3833C155.604 20.6489 155.909 19.8295 156.122 18.9253C156.335 18.0214 156.441 17.0465 156.441 16.0009V15.9585C156.441 14.4045 156.204 13.013 155.728 11.7838C155.253 10.5549 154.591 9.50949 153.74 8.64771C152.89 7.78615 151.872 7.13257 150.689 6.68741C149.505 6.24247 148.197 6.02 146.765 6.02C145.801 6.02 144.901 6.11904 144.065 6.3167C143.228 6.51457 142.448 6.81457 141.725 7.21735C141.002 7.6199 140.354 8.10394 139.779 8.66879C139.205 9.23409 138.72 9.88393 138.323 10.6183C137.926 11.3532 137.617 12.1653 137.398 13.0554C137.178 13.9453 137.068 14.9132 137.068 15.9585V16.0009C137.068 17.569 137.309 18.9712 137.791 20.2072C138.273 21.4437 138.943 22.4891 139.801 23.3436C140.658 24.1986 141.676 24.8517 142.852 25.3037C144.029 25.7561 145.333 25.9818 146.765 25.9818C147.729 25.9818 148.629 25.8832 149.466 25.6851ZM168.34 0.70135H176.698L190.329 21.9346H190.371L190.201 14.7296V0.70135H197.24V31.301H188.84L175.251 10.6186H175.209L175.379 17.8659V31.301H168.34V0.70135ZM246.536 0.701226H254V31.3009H246.536V0.701226ZM243.465 0.701775H234.385L225.26 12.4097H220.058V0.70135H212.594V31.3013H220.058V19.593H225.26L234.385 31.3009H243.465L231.69 16.0013L243.465 0.701775Z" fill="#3C0483"/>
    </g>
    <defs>
        <clipPath id="clip0_41_5528">
            <rect width="254" height="32" fill="white"/>
        </clipPath>
    </defs>
</svg>
