<svg width="1080" height="491" viewBox="0 0 1080 491" fill="none" xmlns="http://www.w3.org/2000/svg">
<path d="M1060.05 0H1053.26V6.78848H1060.05V0Z" fill="#FCF334"/>
<path d="M1060.55 39.1738H1052.76V46.9588H1060.55V39.1738Z" fill="#FCF334"/>
<path d="M1061.04 78.3602H1052.26V87.1292H1061.04V78.3602Z" fill="#FCF334"/>
<path d="M1061.54 117.534H1051.76V127.299H1061.54V117.534Z" fill="#FCF334"/>
<path d="M1062.02 156.72H1051.26V167.47H1062.02V156.72Z" fill="#FCF334"/>
<path d="M1062.53 195.907H1050.77V207.653H1062.53V195.907Z" fill="#FCF334"/>
<path d="M1063.03 235.081H1050.28V247.823H1063.03V235.081Z" fill="#FCF334"/>
<path d="M1063.52 274.267H1049.78V287.994H1063.52V274.267Z" fill="#FCF334"/>
<path d="M1064.02 313.441H1049.28V328.164H1064.02V313.441Z" fill="#FCF334"/>
<path d="M1021.69 0H1014.9V6.78848H1021.69V0Z" fill="#FCF334"/>
<path d="M1022.18 39.1738H1014.4V46.9588H1022.18V39.1738Z" fill="#FCF334"/>
<path d="M1022.68 78.3602H1013.9V87.1292H1022.68V78.3602Z" fill="#FCF334"/>
<path d="M1023.18 117.534H1013.4V127.299H1023.18V117.534Z" fill="#FCF334"/>
<path d="M1023.68 156.72H1012.92V167.47H1023.68V156.72Z" fill="#FCF334"/>
<path d="M1024.18 195.907H1012.42V207.653H1024.18V195.907Z" fill="#FCF334"/>
<path d="M1024.67 235.081H1011.92V247.823H1024.67V235.081Z" fill="#FCF334"/>
<path d="M1025.16 274.267H1011.42V287.994H1025.16V274.267Z" fill="#FCF334"/>
<path d="M1025.66 313.441H1010.92V328.164H1025.66V313.441Z" fill="#FCF334"/>
<path d="M983.336 0H976.54V6.78848H983.336V0Z" fill="#FCF334"/>
<path d="M983.835 39.1738H976.041V46.9588H983.835V39.1738Z" fill="#FCF334"/>
<path d="M984.321 78.3602H975.542V87.1292H984.321V78.3602Z" fill="#FCF334"/>
<path d="M984.82 117.534H975.043V127.299H984.82V117.534Z" fill="#FCF334"/>
<path d="M985.319 156.72H974.557V167.47H985.319V156.72Z" fill="#FCF334"/>
<path d="M985.817 195.907H974.058V207.653H985.817V195.907Z" fill="#FCF334"/>
<path d="M986.316 235.081H973.559V247.823H986.316V235.081Z" fill="#FCF334"/>
<path d="M986.803 274.267H973.061V287.994H986.803V274.267Z" fill="#FCF334"/>
<path d="M987.301 313.441H972.562V328.164H987.301V313.441Z" fill="#FCF334"/>
<path d="M944.978 0H938.182V6.78848H944.978V0Z" fill="#FCF334"/>
<path d="M945.477 39.1738H937.683V46.9588H945.477V39.1738Z" fill="#FCF334"/>
<path d="M945.963 78.3602H937.184V87.1292H945.963V78.3602Z" fill="#FCF334"/>
<path d="M946.474 117.534H936.698V127.299H946.474V117.534Z" fill="#FCF334"/>
<path d="M946.961 156.72H936.199V167.47H946.961V156.72Z" fill="#FCF334"/>
<path d="M947.459 195.907H935.7V207.653H947.459V195.907Z" fill="#FCF334"/>
<path d="M947.958 235.081H935.201V247.823H947.958V235.081Z" fill="#FCF334"/>
<path d="M948.445 274.267H934.703V287.994H948.445V274.267Z" fill="#FCF334"/>
<path d="M948.956 313.441H934.216V328.164H948.956V313.441Z" fill="#FCF334"/>
<path d="M906.62 0H899.824V6.78848H906.62V0Z" fill="#FCF334"/>
<path d="M907.119 39.1738H899.325V46.9588H907.119V39.1738Z" fill="#FCF334"/>
<path d="M907.618 78.3602H898.839V87.1292H907.618V78.3602Z" fill="#FCF334"/>
<path d="M909.451 116.189H896.981V128.645H909.451V116.189Z" fill="#FCF334"/>
<path d="M908.603 156.72H897.841V167.47H908.603V156.72Z" fill="#FCF334"/>
<path d="M909.102 195.907H897.342V207.653H909.102V195.907Z" fill="#FCF334"/>
<path d="M910.935 233.748H895.509V249.156H910.935V233.748Z" fill="#FCF334"/>
<path d="M910.087 274.267H896.345V287.994H910.087V274.267Z" fill="#FCF334"/>
<path d="M910.598 313.441H895.858V328.164H910.598V313.441Z" fill="#FCF334"/>
<path d="M868.262 0H861.466V6.78848H868.262V0Z" fill="#FCF334"/>
<path d="M868.761 39.1738H860.967V46.9588H868.761V39.1738Z" fill="#FCF334"/>
<path d="M869.26 78.3602H860.481V87.1292H869.26V78.3602Z" fill="#FCF334"/>
<path d="M869.759 117.534H859.982V127.299H869.759V117.534Z" fill="#FCF334"/>
<path d="M870.245 156.72H859.483V167.47H870.245V156.72Z" fill="#FCF334"/>
<path d="M870.744 195.907H858.984V207.653H870.744V195.907Z" fill="#FCF334"/>
<path d="M871.242 235.081H858.486V247.823H871.242V235.081Z" fill="#FCF334"/>
<path d="M871.729 274.267H857.987V287.994H871.729V274.267Z" fill="#FCF334"/>
<path d="M872.24 313.441H857.5V328.164H872.24V313.441Z" fill="#FCF334"/>
<path d="M829.904 0H823.108V6.78848H829.904V0Z" fill="#FCF334"/>
<path d="M830.415 39.1738H822.622V46.9588H830.415V39.1738Z" fill="#FCF334"/>
<path d="M830.902 78.3602H822.123V87.1292H830.902V78.3602Z" fill="#FCF334"/>
<path d="M831.401 117.534H821.624V127.299H831.401V117.534Z" fill="#FCF334"/>
<path d="M831.887 156.72H821.125V167.47H831.887V156.72Z" fill="#FCF334"/>
<path d="M832.386 195.907H820.626V207.653H832.386V195.907Z" fill="#FCF334"/>
<path d="M832.897 235.081H820.14V247.823H832.897V235.081Z" fill="#FCF334"/>
<path d="M833.383 274.267H819.641V287.994H833.383V274.267Z" fill="#FCF334"/>
<path d="M833.882 313.441H819.143V328.164H833.882V313.441Z" fill="#FCF334"/>
<path d="M791.559 0H784.763V6.78848H791.559V0Z" fill="#FCF334"/>
<path d="M792.057 39.1738H784.264V46.9588H792.057V39.1738Z" fill="#FCF334"/>
<path d="M794.04 76.8779H782.281V88.6239H794.04V76.8779Z" fill="#FCF334"/>
<path d="M793.043 117.534H783.266V127.299H793.043V117.534Z" fill="#FCF334"/>
<path d="M793.529 156.72H782.767V167.47H793.529V156.72Z" fill="#FCF334"/>
<path d="M794.028 195.907H782.269V207.653H794.028V195.907Z" fill="#FCF334"/>
<path d="M797.008 232.602H779.288V250.302H797.008V232.602Z" fill="#FCF334"/>
<path d="M795.025 274.267H781.283V287.994H795.025V274.267Z" fill="#FCF334"/>
<path d="M795.524 313.441H780.785V328.164H795.524V313.441Z" fill="#FCF334"/>
<path d="M753.201 0H746.405V6.78848H753.201V0Z" fill="#FCF334"/>
<path d="M753.7 39.1738H745.906V46.9588H753.7V39.1738Z" fill="#FCF334"/>
<path d="M754.186 78.3602H745.407V87.1292H754.186V78.3602Z" fill="#FCF334"/>
<path d="M754.685 117.534H744.908V127.299H754.685V117.534Z" fill="#FCF334"/>
<path d="M755.171 156.72H744.409V167.47H755.171V156.72Z" fill="#FCF334"/>
<path d="M755.682 195.907H743.923V207.653H755.682V195.907Z" fill="#FCF334"/>
<path d="M756.181 235.081H743.424V247.823H756.181V235.081Z" fill="#FCF334"/>
<path d="M760.022 270.916H739.571V291.344H760.022V270.916Z" fill="#FCF334"/>
<path d="M757.166 313.441H742.427V328.164H757.166V313.441Z" fill="#FCF334"/>
<path d="M714.843 0H708.047V6.78848H714.843V0Z" fill="#FCF334"/>
<path d="M715.342 39.1738H707.548V46.9588H715.342V39.1738Z" fill="#FCF334"/>
<path d="M715.828 78.3602H707.049V87.1292H715.828V78.3602Z" fill="#FCF334"/>
<path d="M716.327 117.534H706.55V127.299H716.327V117.534Z" fill="#FCF334"/>
<path d="M717.823 155.724H705.066V168.466H717.823V155.724Z" fill="#FCF334"/>
<path d="M717.324 195.907H705.565V207.653H717.324V195.907Z" fill="#FCF334"/>
<path d="M717.823 235.081H705.066V247.823H717.823V235.081Z" fill="#FCF334"/>
<path d="M718.31 274.267H704.568V287.994H718.31V274.267Z" fill="#FCF334"/>
<path d="M718.808 313.441H704.069V328.164H718.808V313.441Z" fill="#FCF334"/>
<path d="M676.485 0H669.689V6.78848H676.485V0Z" fill="#FCF334"/>
<path d="M676.984 39.1738H669.19V46.9588H676.984V39.1738Z" fill="#FCF334"/>
<path d="M677.47 78.3602H668.691V87.1292H677.47V78.3602Z" fill="#FCF334"/>
<path d="M677.981 117.534H668.205V127.299H677.981V117.534Z" fill="#FCF334"/>
<path d="M678.468 156.72H667.706V167.47H678.468V156.72Z" fill="#FCF334"/>
<path d="M681.348 193.528H664.825V210.032H681.348V193.528Z" fill="#FCF334"/>
<path d="M679.465 235.081H666.708V247.823H679.465V235.081Z" fill="#FCF334"/>
<path d="M679.951 274.267H666.209V287.994H679.951V274.267Z" fill="#FCF334"/>
<path d="M682.446 311.46H663.728V330.157H682.446V311.46Z" fill="#FCF334"/>
<path d="M638.127 0H631.331V6.78848H638.127V0Z" fill="#FCF334"/>
<path d="M638.626 39.1738H630.832V46.9588H638.626V39.1738Z" fill="#FCF334"/>
<path d="M639.112 78.3602H630.333V87.1292H639.112V78.3602Z" fill="#FCF334"/>
<path d="M640.958 116.189H628.488V128.645H640.958V116.189Z" fill="#FCF334"/>
<path d="M640.11 156.72H629.348V167.47H640.11V156.72Z" fill="#FCF334"/>
<path d="M640.608 195.907H628.849V207.653H640.608V195.907Z" fill="#FCF334"/>
<path d="M641.107 235.081H628.351V247.823H641.107V235.081Z" fill="#FCF334"/>
<path d="M641.594 274.267H627.852V287.994H641.594V274.267Z" fill="#FCF334"/>
<path d="M642.092 313.441H627.353V328.164H642.092V313.441Z" fill="#FCF334"/>
<path d="M599.769 0H592.973V6.78848H599.769V0Z" fill="#FCF334"/>
<path d="M600.268 39.1738H592.474V46.9588H600.268V39.1738Z" fill="#FCF334"/>
<path d="M600.767 78.3602H591.988V87.1292H600.767V78.3602Z" fill="#FCF334"/>
<path d="M601.266 117.534H591.489V127.299H601.266V117.534Z" fill="#FCF334"/>
<path d="M601.752 156.72H590.99V167.47H601.752V156.72Z" fill="#FCF334"/>
<path d="M602.251 195.907H590.491V207.653H602.251V195.907Z" fill="#FCF334"/>
<path d="M602.749 235.081H589.992V247.823H602.749V235.081Z" fill="#FCF334"/>
<path d="M603.236 274.267H589.494V287.994H603.236V274.267Z" fill="#FCF334"/>
<path d="M603.747 313.441H589.007V328.164H603.747V313.441Z" fill="#FCF334"/>
<path d="M561.411 0H554.615V6.78848H561.411V0Z" fill="#FCF334"/>
<path d="M561.91 39.1738H554.116V46.9588H561.91V39.1738Z" fill="#FCF334"/>
<path d="M563.868 76.9028H552.171V88.5865H563.868V76.9028Z" fill="#FCF334"/>
<path d="M562.907 117.534H553.131V127.299H562.907V117.534Z" fill="#FCF334"/>
<path d="M563.394 156.72H552.632V167.47H563.394V156.72Z" fill="#FCF334"/>
<path d="M563.893 195.907H552.133V207.653H563.893V195.907Z" fill="#FCF334"/>
<path d="M564.391 235.081H551.635V247.823H564.391V235.081Z" fill="#FCF334"/>
<path d="M564.89 274.267H551.148V287.994H564.89V274.267Z" fill="#FCF334"/>
<path d="M565.389 313.441H550.649V328.164H565.389V313.441Z" fill="#FCF334"/>
<path d="M523.053 0H516.257V6.78848H523.053V0Z" fill="#FCF334"/>
<path d="M523.552 39.1738H515.771V46.9588H523.552V39.1738Z" fill="#FCF334"/>
<path d="M524.051 78.3602H515.272V87.1292H524.051V78.3602Z" fill="#FCF334"/>
<path d="M524.55 117.534H514.773V127.299H524.55V117.534Z" fill="#FCF334"/>
<path d="M523.664 158.091H515.646V166.1H523.664V158.091Z" fill="#FCF334"/>
<path d="M525.535 195.907H513.775V207.653H525.535V195.907Z" fill="#FCF334"/>
<path d="M526.046 235.081H513.289V247.823H526.046V235.081Z" fill="#FCF334"/>
<path d="M524.362 276.434H514.96V285.826H524.362V276.434Z" fill="#FCF334"/>
<path d="M527.031 313.441H512.292V328.164H527.031V313.441Z" fill="#FCF334"/>
<path d="M484.708 0H477.912V6.78848H484.708V0Z" fill="#FCF334"/>
<path d="M485.206 39.1738H477.413V46.9588H485.206V39.1738Z" fill="#FCF334"/>
<path d="M485.693 78.3602H476.914V87.1292H485.693V78.3602Z" fill="#FCF334"/>
<path d="M486.192 117.534H476.415V127.299H486.192V117.534Z" fill="#FCF334"/>
<path d="M486.678 156.72H475.916V167.47H486.678V156.72Z" fill="#FCF334"/>
<path d="M487.177 195.907H475.417V207.653H487.177V195.907Z" fill="#FCF334"/>
<path d="M487.688 235.081H474.931V247.823H487.688V235.081Z" fill="#FCF334"/>
<path d="M488.174 274.267H474.432V287.994H488.174V274.267Z" fill="#FCF334"/>
<path d="M488.673 313.441H473.934V328.164H488.673V313.441Z" fill="#FCF334"/>
<path d="M446.35 0H439.554V6.78848H446.35V0Z" fill="#FCF334"/>
<path d="M446.848 39.1738H439.055V46.9588H446.848V39.1738Z" fill="#FCF334"/>
<path d="M447.834 77.8619H438.057V87.6274H447.834V77.8619Z" fill="#FCF334"/>
<path d="M447.834 117.534H438.057V127.299H447.834V117.534Z" fill="#FCF334"/>
<path d="M448.32 156.72H437.558V167.47H448.32V156.72Z" fill="#FCF334"/>
<path d="M447.672 197.065H438.232V206.494H447.672V197.065Z" fill="#FCF334"/>
<path d="M449.33 235.081H436.573V247.823H449.33V235.081Z" fill="#FCF334"/>
<path d="M449.816 274.267H436.074V287.994H449.816V274.267Z" fill="#FCF334"/>
<path d="M450.315 313.441H435.576V328.164H450.315V313.441Z" fill="#FCF334"/>
<path d="M407.992 0H401.196V6.78848H407.992V0Z" fill="#FCF334"/>
<path d="M408.491 39.1738H400.697V46.9588H408.491V39.1738Z" fill="#FCF334"/>
<path d="M408.977 78.3602H400.198V87.1292H408.977V78.3602Z" fill="#FCF334"/>
<path d="M409.476 117.534H399.699V127.299H409.476V117.534Z" fill="#FCF334"/>
<path d="M409.975 156.72H399.213V167.47H409.975V156.72Z" fill="#FCF334"/>
<path d="M410.473 195.907H398.714V207.653H410.473V195.907Z" fill="#FCF334"/>
<path d="M410.972 235.081H398.215V247.823H410.972V235.081Z" fill="#FCF334"/>
<path d="M411.459 274.267H397.717V287.994H411.459V274.267Z" fill="#FCF334"/>
<path d="M414.376 311.024H394.798V330.58H414.376V311.024Z" fill="#FCF334"/>
<path d="M370.806 0H364.01V6.78848H370.806V0Z" fill="#FCF334"/>
<path d="M372.664 37.8162H362.152V48.3165H372.664V37.8162Z" fill="#FCF334"/>
<path d="M371.791 78.3602H363.012V87.1292H371.791V78.3602Z" fill="#FCF334"/>
<path d="M372.29 117.534H362.514V127.299H372.29V117.534Z" fill="#FCF334"/>
<path d="M372.789 156.72H362.027V167.47H372.789V156.72Z" fill="#FCF334"/>
<path d="M373.288 195.907H361.528V207.653H373.288V195.907Z" fill="#FCF334"/>
<path d="M373.786 235.081H361.03V247.823H373.786V235.081Z" fill="#FCF334"/>
<path d="M374.273 274.267H360.531V287.994H374.273V274.267Z" fill="#FCF334"/>
<path d="M374.772 313.441H360.032V328.164H374.772V313.441Z" fill="#FCF334"/>
<path d="M332.448 0H325.652V6.78848H332.448V0Z" fill="#FCF334"/>
<path d="M332.947 39.1738H325.153V46.9588H332.947V39.1738Z" fill="#FCF334"/>
<path d="M333.433 78.3602H324.654V87.1292H333.433V78.3602Z" fill="#FCF334"/>
<path d="M333.932 117.534H324.156V127.299H333.932V117.534Z" fill="#FCF334"/>
<path d="M334.431 156.72H323.669V167.47H334.431V156.72Z" fill="#FCF334"/>
<path d="M334.93 195.907H323.17V207.653H334.93V195.907Z" fill="#FCF334"/>
<path d="M338.134 232.365H319.953V250.526H338.134V232.365Z" fill="#FCF334"/>
<path d="M335.915 274.267H322.173V287.994H335.915V274.267Z" fill="#FCF334"/>
<path d="M336.414 313.441H321.674V328.164H336.414V313.441Z" fill="#FCF334"/>
<path d="M294.09 0H287.294V6.78848H294.09V0Z" fill="#FCF334"/>
<path d="M294.589 39.1738H286.795V46.9588H294.589V39.1738Z" fill="#FCF334"/>
<path d="M295.075 78.3602H286.296V87.1292H295.075V78.3602Z" fill="#FCF334"/>
<path d="M295.574 117.534H285.798V127.299H295.574V117.534Z" fill="#FCF334"/>
<path d="M296.073 156.72H285.311V167.47H296.073V156.72Z" fill="#FCF334"/>
<path d="M296.572 195.907H284.812V207.653H296.572V195.907Z" fill="#FCF334"/>
<path d="M297.071 235.081H284.314V247.823H297.071V235.081Z" fill="#FCF334"/>
<path d="M297.557 274.267H283.815V287.994H297.557V274.267Z" fill="#FCF334"/>
<path d="M298.056 313.441H283.316V328.164H298.056V313.441Z" fill="#FCF334"/>
<path d="M256.892 0H250.096V6.78848H256.892V0Z" fill="#FCF334"/>
<path d="M257.391 39.1738H249.597V46.9588H257.391V39.1738Z" fill="#FCF334"/>
<path d="M257.89 78.3602H249.111V87.1292H257.89V78.3602Z" fill="#FCF334"/>
<path d="M258.388 117.534H248.612V127.299H258.388V117.534Z" fill="#FCF334"/>
<path d="M258.875 156.72H248.113V167.47H258.875V156.72Z" fill="#FCF334"/>
<path d="M259.374 195.907H247.614V207.653H259.374V195.907Z" fill="#FCF334"/>
<path d="M259.872 235.081H247.115V247.823H259.872V235.081Z" fill="#FCF334"/>
<path d="M260.359 274.267H246.617V287.994H260.359V274.267Z" fill="#FCF334"/>
<path d="M260.858 313.441H246.118V328.164H260.858V313.441Z" fill="#FCF334"/>
<path d="M218.534 0H211.738V6.78848H218.534V0Z" fill="#FCF334"/>
<path d="M219.033 39.1738H211.251V46.9588H219.033V39.1738Z" fill="#FCF334"/>
<path d="M219.532 78.3602H210.753V87.1292H219.532V78.3602Z" fill="#FCF334"/>
<path d="M220.03 117.534H210.254V127.299H220.03V117.534Z" fill="#FCF334"/>
<path d="M220.517 156.72H209.755V167.47H220.517V156.72Z" fill="#FCF334"/>
<path d="M221.016 195.907H209.256V207.653H221.016V195.907Z" fill="#FCF334"/>
<path d="M221.514 235.081H208.758V247.823H221.514V235.081Z" fill="#FCF334"/>
<path d="M222.001 274.267H208.259V287.994H222.001V274.267Z" fill="#FCF334"/>
<path d="M222.512 313.441H207.772V328.164H222.512V313.441Z" fill="#FCF334"/>
<path d="M180.176 0H173.38V6.78848H180.176V0Z" fill="#FCF334"/>
<path d="M180.675 39.1738H172.881V46.9588H180.675V39.1738Z" fill="#FCF334"/>
<path d="M181.174 78.3602H172.395V87.1292H181.174V78.3602Z" fill="#FCF334"/>
<path d="M181.673 117.534H171.896V127.299H181.673V117.534Z" fill="#FCF334"/>
<path d="M182.159 156.72H171.397V167.47H182.159V156.72Z" fill="#FCF334"/>
<path d="M182.658 195.907H170.898V207.653H182.658V195.907Z" fill="#FCF334"/>
<path d="M183.157 235.081H170.4V247.823H183.157V235.081Z" fill="#FCF334"/>
<path d="M183.655 274.267H169.913V287.994H183.655V274.267Z" fill="#FCF334"/>
<path d="M184.154 313.441H169.415V328.164H184.154V313.441Z" fill="#FCF334"/>
<path d="M141.831 0H135.035V6.78848H141.831V0Z" fill="#FCF334"/>
<path d="M142.329 39.1738H134.536V46.9588H142.329V39.1738Z" fill="#FCF334"/>
<path d="M142.816 78.3602H134.037V87.1292H142.816V78.3602Z" fill="#FCF334"/>
<path d="M143.315 117.534H133.538V127.299H143.315V117.534Z" fill="#FCF334"/>
<path d="M143.801 156.72H133.039V167.47H143.801V156.72Z" fill="#FCF334"/>
<path d="M144.3 195.907H132.541V207.653H144.3V195.907Z" fill="#FCF334"/>
<path d="M144.811 235.081H132.054V247.823H144.811V235.081Z" fill="#FCF334"/>
<path d="M145.297 274.267H131.555V287.994H145.297V274.267Z" fill="#FCF334"/>
<path d="M145.796 313.441H131.057V328.164H145.796V313.441Z" fill="#FCF334"/>
<path d="M103.473 0H96.6765V6.78848H103.473V0Z" fill="#FCF334"/>
<path d="M103.972 39.1738H96.1777V46.9588H103.972V39.1738Z" fill="#FCF334"/>
<path d="M104.458 78.3602H95.679V87.1292H104.458V78.3602Z" fill="#FCF334"/>
<path d="M106.304 116.189H93.8335V128.645H106.304V116.189Z" fill="#FCF334"/>
<path d="M105.443 156.72H94.6814V167.47H105.443V156.72Z" fill="#FCF334"/>
<path d="M105.942 195.907H94.1826V207.653H105.942V195.907Z" fill="#FCF334"/>
<path d="M107.787 233.748H92.3618V249.156H107.787V233.748Z" fill="#FCF334"/>
<path d="M106.939 274.267H93.1973V287.994H106.939V274.267Z" fill="#FCF334"/>
<path d="M107.438 313.441H92.6987V328.164H107.438V313.441Z" fill="#FCF334"/>
<path d="M65.1148 0H58.3186V6.78848H65.1148V0Z" fill="#FCF334"/>
<path d="M65.6136 39.1738H57.8198V46.9588H65.6136V39.1738Z" fill="#FCF334"/>
<path d="M66.1 78.3602H57.321V87.1292H66.1V78.3602Z" fill="#FCF334"/>
<path d="M66.5988 117.534H56.8223V127.299H66.5988V117.534Z" fill="#FCF334"/>
<path d="M67.0849 156.72H56.3232V167.47H67.0849V156.72Z" fill="#FCF334"/>
<path d="M67.5962 195.907H55.8369V207.653H67.5962V195.907Z" fill="#FCF334"/>
<path d="M68.0953 235.081H55.3384V247.823H68.0953V235.081Z" fill="#FCF334"/>
<path d="M68.5814 274.267H54.8394V287.994H68.5814V274.267Z" fill="#FCF334"/>
<path d="M69.0804 313.441H54.3408V328.164H69.0804V313.441Z" fill="#FCF334"/>
<path d="M26.7569 0H19.9607V6.78848H26.7569V0Z" fill="#FCF334"/>
<path d="M27.2557 39.1738H19.4619V46.9588H27.2557V39.1738Z" fill="#FCF334"/>
<path d="M27.7421 78.3602H18.9631V87.1292H27.7421V78.3602Z" fill="#FCF334"/>
<path d="M28.2409 117.534H18.4644V127.299H28.2409V117.534Z" fill="#FCF334"/>
<path d="M28.7397 156.72H17.978V167.47H28.7397V156.72Z" fill="#FCF334"/>
<path d="M29.2383 195.907H17.479V207.653H29.2383V195.907Z" fill="#FCF334"/>
<path d="M29.7373 235.081H16.9805V247.823H29.7373V235.081Z" fill="#FCF334"/>
<path d="M30.2235 274.267H16.4814V287.994H30.2235V274.267Z" fill="#FCF334"/>
<path d="M30.7225 313.441H15.9829V328.164H30.7225V313.441Z" fill="#FCF334"/>
</svg>
