<svg width="3800" height="1000" viewBox="0 0 3800 1000" fill="none" xmlns="http://www.w3.org/2000/svg">
<g clip-path="url(#clip0_4443_21448)">
<path d="M9.24764 611V332.799H149.504C225.605 332.799 270.495 359.193 270.495 423.734V424.12C270.495 488.468 226.183 514.863 150.275 514.863H74.5594V611H9.24764ZM74.5594 463.615H146.422C184.568 463.615 202.1 452.248 202.1 424.12V423.734C202.1 395.413 184.568 384.046 146.422 384.046H74.5594V463.615ZM302.669 611V405.432H365.284V445.698C376.651 420.074 402.66 402.156 436.953 402.156H442.733V460.147H426.357C389.366 460.147 365.669 473.248 365.669 513.129V611H302.669ZM558.136 616.972C501.494 616.972 472.017 584.798 472.017 527.771V405.432H535.017V514.863C535.017 551.468 551.201 569.771 582.797 569.771C614.201 569.771 630.384 551.468 630.384 514.863V405.432H693.384V611H630.384V584.22C616.705 603.294 593.008 616.972 558.136 616.972ZM501.687 377.881V332.799H554.283V377.881H501.687ZM611.311 377.881V332.799H663.907V377.881H611.311ZM766.017 611V451.285H729.026V405.432H766.017V397.533C766.017 348.019 789.136 332.799 847.319 332.799H884.888V377.303H853.677C833.64 377.303 829.017 381.734 829.017 398.496V405.432H884.888V451.285H829.017V611H766.017ZM1054.43 617.165C1018.4 617.165 992.97 603.294 980.255 585.569V675.156H917.255V405.432H980.255V430.67C992.97 412.753 1018.4 399.074 1054.43 399.074C1112.81 399.074 1159.43 438.377 1159.43 507.734V508.312C1159.43 577.67 1112.81 617.165 1054.43 617.165ZM1035.93 571.697C1068.11 571.697 1093.54 551.083 1093.54 508.312V507.734C1093.54 465.156 1068.11 444.542 1035.93 444.542C1003.57 444.542 977.943 465.156 977.943 507.734V508.312C977.943 551.083 1003.57 571.697 1035.93 571.697ZM1311.63 617.165C1235.34 617.165 1186.98 573.239 1186.98 507.541V507.156C1186.98 441.652 1235.34 398.111 1311.63 398.111C1387.92 398.111 1436.09 441.652 1436.09 507.156V507.541C1436.09 573.239 1387.92 617.165 1311.63 617.165ZM1311.63 571.119C1348.24 571.119 1370.97 547.615 1370.97 507.541V507.156C1370.97 467.276 1348.24 443.964 1311.63 443.964C1274.83 443.964 1252.1 467.276 1252.1 507.156V507.541C1252.1 547.615 1274.83 571.119 1311.63 571.119ZM1472.41 611V405.432H1535.02V445.698C1546.39 420.074 1572.4 402.156 1606.69 402.156H1612.47V460.147H1596.1C1559.11 460.147 1535.41 473.248 1535.41 513.129V611H1472.41ZM1744.44 611C1687.22 611 1670.84 596.358 1670.84 545.496V451.285H1633.85V405.432H1670.84V338.771H1733.84V405.432H1785.86V451.285H1733.84V536.441C1733.84 558.596 1738.66 563.606 1761.78 563.606H1784.9V611H1744.44ZM1898.57 617.165C1846.74 617.165 1811.1 593.468 1811.1 553.395V553.202C1811.1 506.193 1853.87 490.973 1927.08 482.881C1966.77 478.835 1972.74 475.753 1972.74 462.459V462.074C1972.74 445.312 1956.75 437.413 1929.39 437.413C1900.68 437.413 1882.96 447.624 1881.8 469.202H1820.92C1822.08 423.156 1863.69 397.34 1929.2 397.34C1994.9 397.34 2035.16 413.909 2034.78 472.285L2034.01 544.918C2033.81 574.009 2035.35 592.119 2040.36 611H1977.75C1976.59 604.257 1975.82 599.44 1975.44 590.963C1960.6 607.917 1935.75 617.165 1898.57 617.165ZM1916.48 576.321C1948.27 576.321 1972.55 564.762 1972.55 535.092V508.119C1959.45 512.551 1946.54 515.441 1930.55 518.138C1890.09 526.23 1876.02 532.009 1876.02 549.541V549.927C1876.22 566.881 1890.86 576.321 1916.48 576.321ZM2084.87 611V332.799H2147.87V611H2084.87Z" fill="white"/>
<path d="M6.25741 839V721.197H69.0747C98.3622 721.197 110.926 733.924 110.926 751.137V751.301C110.926 763.293 104.073 772.185 95.67 776.346V776.427C108.397 780.343 117.942 788.746 117.942 804.654V804.818C117.942 827.252 100.565 839 70.5431 839H6.25741ZM33.9133 818.442H68.0957C82.8618 818.442 89.062 813.302 89.062 803.839V803.675C89.062 794.294 82.8618 788.991 68.0957 788.991H33.9133V818.442ZM33.9133 768.514H65.7299C77.0696 768.514 83.3513 763.782 83.3513 755.053V754.972C83.3513 746.243 77.0696 741.756 65.7299 741.756H33.9133V768.514ZM181.33 841.611C149.269 841.611 129.2 823.092 129.2 795.109V794.946C129.2 766.638 151.227 748.772 180.922 748.772C214.125 748.772 232.971 770.064 232.889 802.044V802.125H156.366V802.207C158.487 815.586 168.685 823.092 182.064 823.092C193.078 823.092 201.154 819.665 204.744 812.731H231.665C226.199 829.7 208.578 841.611 181.33 841.611ZM180.922 766.475C167.788 766.475 158.65 773.001 156.448 785.646V785.728H205.152V785.646C203.683 774.306 194.709 766.475 180.922 766.475ZM286.732 839C262.503 839 255.569 832.8 255.569 811.263V771.369H239.905V751.953H255.569V723.726H282.245V751.953H304.272V771.369H282.245V807.428C282.245 816.81 284.285 818.931 294.075 818.931H303.864V839H286.732ZM351.997 841.611C330.052 841.611 314.959 831.576 314.959 814.607V814.526C314.959 794.62 333.07 788.175 364.071 784.749C380.877 783.036 383.406 781.73 383.406 776.101V775.938C383.406 768.84 376.635 765.496 365.05 765.496C352.894 765.496 345.389 769.819 344.9 778.956H319.12C319.609 759.459 337.231 748.527 364.968 748.527C392.788 748.527 409.838 755.543 409.675 780.262L409.348 811.018C409.267 823.336 409.92 831.005 412.041 839H385.527C385.037 836.145 384.711 834.105 384.548 830.516C378.266 837.695 367.742 841.611 351.997 841.611ZM359.584 824.315C373.045 824.315 383.324 819.421 383.324 806.857V795.436C377.777 797.312 372.311 798.536 365.54 799.678C348.408 803.104 342.452 805.552 342.452 812.976V813.139C342.534 820.318 348.734 824.315 359.584 824.315ZM429.581 805.389V783.036H487.34V805.389H429.581ZM537.43 839L485.79 721.197H516.056L556.112 812.486H556.194L595.353 721.197H623.417L571.776 839H537.43ZM667.878 841.611C635.817 841.611 615.748 823.092 615.748 795.109V794.946C615.748 766.638 637.775 748.772 667.47 748.772C700.674 748.772 719.519 770.064 719.437 802.044V802.125H642.914V802.207C645.036 815.586 655.233 823.092 668.612 823.092C679.626 823.092 687.702 819.665 691.292 812.731H718.214C712.748 829.7 695.126 841.611 667.878 841.611ZM667.47 766.475C654.336 766.475 645.199 773.001 642.996 785.646V785.728H691.7V785.646C690.231 774.306 681.257 766.475 667.47 766.475ZM736.161 839V751.953H762.675V769.004C767.488 758.153 778.502 750.566 793.023 750.566H795.471V775.122H788.536C772.873 775.122 762.838 780.67 762.838 797.557V839H736.161ZM851.19 841.611C822.229 841.611 804.608 831.25 802.242 811.997H828.837C830.632 821.786 839.443 824.887 851.843 824.887C863.591 824.887 871.015 821.95 871.015 815.586V815.423C871.015 809.06 864.978 807.02 854.29 805.633L836.587 803.104C815.05 800.331 804.037 791.52 804.037 776.264V776.101C804.037 759.948 822.229 748.853 848.417 748.853C874.278 748.853 891.41 757.093 894.428 775.938H867.914C866.038 767.861 858.206 765.496 848.254 765.496C837.403 765.496 830.632 768.759 830.632 774.306V774.47C830.632 779.935 835.527 782.383 845.724 783.688L863.672 786.217C884.394 788.909 897.528 795.599 897.61 812.731V812.894C897.61 830.76 880.315 841.611 851.19 841.611ZM913.845 839V751.953H940.521V839H913.845ZM913.845 742.979V721.197H940.521V742.979H913.845ZM1010.19 841.611C977.885 841.611 957.409 823.01 957.409 795.191V795.028C957.409 767.29 977.885 748.853 1010.19 748.853C1042.5 748.853 1062.89 767.29 1062.89 795.028V795.191C1062.89 823.01 1042.5 841.611 1010.19 841.611ZM1010.19 822.113C1025.69 822.113 1035.32 812.16 1035.32 795.191V795.028C1035.32 778.141 1025.69 768.269 1010.19 768.269C994.61 768.269 984.983 778.141 984.983 795.028V795.191C984.983 812.16 994.61 822.113 1010.19 822.113ZM1079.94 839V751.953H1106.62V762.722C1112.58 754.645 1122.53 749.261 1137.13 749.261C1161.2 749.261 1173.6 762.885 1173.6 787.033V839H1146.92V792.499C1146.92 776.999 1140.07 769.248 1126.77 769.248C1113.47 769.248 1106.62 776.999 1106.62 792.499V839H1079.94Z" fill="#FCF334"/>
<g clip-path="url(#clip1_4443_21448)">
<path d="M0 2.73983H43.4639L72.5484 93.986H72.7155L101.717 2.73983H145.264V122.74H117.675V70.2189L118.172 31.5763H118.007L87.2586 122.74H58.0053L27.1742 31.5763H27.0089L27.5067 70.2189V122.74H0V2.73983ZM165.264 2.73983H194.433V122.74H165.264V2.73983ZM244.88 122.535C238.036 120.568 232.233 117.826 227.469 114.307C222.704 110.79 218.91 106.634 216.085 101.842C213.26 97.0502 211.376 91.8008 210.433 86.0942H240.682C241.347 89.031 242.441 91.6484 243.965 93.9471C245.488 96.2466 247.441 98.144 249.824 99.6399C252.206 101.135 255.031 102.257 258.3 103.006C261.569 103.753 265.252 104.127 269.353 104.127C271.791 104.127 274.076 104.017 276.209 103.795C278.341 103.574 280.322 103.227 282.152 102.756C283.979 102.286 285.628 101.69 287.095 100.969C288.563 100.25 289.81 99.3902 290.835 98.3929C291.86 97.3955 292.65 96.2613 293.203 94.9857C293.758 93.712 294.035 92.2719 294.035 90.6648V90.5813C294.035 88.144 293.536 86.0942 292.538 84.432C291.543 82.7697 290.046 81.3573 288.051 80.1937C286.056 79.0302 283.647 78.0475 280.822 77.2431C277.997 76.4413 274.755 75.735 271.098 75.1244L252.318 71.6338C246.222 70.5262 240.71 68.9889 235.78 67.0218C230.848 65.0564 226.68 62.576 223.273 59.584C219.866 56.5929 217.275 53.0893 215.503 49.0715C213.729 45.0555 212.843 40.4702 212.843 35.3182V35.152C212.843 31.6071 213.425 28.2826 214.588 25.1796C215.752 22.0773 217.427 19.2102 219.616 16.5782C221.804 13.948 224.449 11.6209 227.553 9.59779C230.656 7.57643 234.173 5.85824 238.107 4.44578C242.04 3.03247 246.292 1.93954 250.862 1.16269C255.434 0.387563 260.267 0 265.364 0C273.176 0 280.184 0.830247 286.389 2.49246C292.593 4.15468 297.968 6.5791 302.512 9.76401C307.054 12.9506 310.683 16.7867 313.398 21.2738C316.112 25.7618 317.94 30.8595 318.882 36.5644H288.883C288.106 33.7395 286.971 31.3849 285.476 29.5013C283.979 27.6186 282.193 26.0942 280.116 24.9307C278.038 23.7671 275.64 22.9084 272.928 22.3538C270.211 21.8009 267.247 21.5235 264.034 21.5235C261.929 21.5235 259.921 21.6346 258.011 21.856C256.099 22.0773 254.34 22.4098 252.733 22.8525C251.126 23.2969 249.644 23.8644 248.287 24.556C246.928 25.2502 245.795 26.0666 244.88 27.008C243.965 27.9511 243.245 29.0311 242.718 30.2489C242.191 31.4684 241.929 32.7982 241.929 34.2382V34.4044C241.929 36.232 242.289 37.8813 243.009 39.3489C243.729 40.8173 244.851 42.1195 246.375 43.2547C247.898 44.3906 249.824 45.3604 252.151 46.1631C254.478 46.9666 257.192 47.6729 260.295 48.2826L278.994 51.7724C286.141 52.992 292.456 54.5569 297.94 56.468C303.426 58.3791 308.051 60.7475 311.818 63.5733C315.585 66.3982 318.426 69.7786 320.338 73.712C322.248 77.6462 323.204 82.3271 323.204 87.7564V88.0053C323.204 94.0444 321.888 99.3902 319.256 104.044C316.624 108.698 312.884 112.632 308.037 115.844C303.188 119.059 297.428 121.468 290.752 123.075C284.076 124.681 276.667 125.484 268.523 125.484C259.602 125.484 251.722 124.5 244.88 122.535ZM365.651 122.537C358.807 120.571 353.004 117.828 348.24 114.309C343.475 110.792 339.681 106.636 336.856 101.844C334.031 97.0524 332.146 91.803 331.204 86.0964H361.453C362.118 89.0332 363.212 91.6506 364.736 93.9493C366.259 96.2488 368.212 98.1461 370.594 99.6421C372.977 101.137 375.801 102.259 379.071 103.008C382.34 103.755 386.023 104.129 390.124 104.129C392.561 104.129 394.847 104.019 396.98 103.797C399.112 103.576 401.093 103.229 402.922 102.758C404.75 102.288 406.398 101.692 407.866 100.971C409.333 100.252 410.581 99.3924 411.605 98.3951C412.63 97.3977 413.421 96.2635 413.974 94.9879C414.528 93.7141 414.806 92.2741 414.806 90.667V90.5835C414.806 88.1461 414.306 86.0964 413.309 84.4342C412.313 82.7719 410.816 81.3595 408.822 80.1959C406.827 79.0324 404.417 78.0497 401.592 77.2453C398.768 76.4435 395.526 75.7372 391.869 75.1266L373.089 71.6359C366.993 70.5284 361.481 68.991 356.551 67.0239C351.619 65.0586 347.451 62.5782 344.044 59.5862C340.637 56.5951 338.046 53.0915 336.273 49.0737C334.499 45.0577 333.614 40.4724 333.614 35.3204V35.1542C333.614 31.6093 334.196 28.2848 335.359 25.1817C336.523 22.0795 338.197 19.2124 340.387 16.5804C342.574 13.9502 345.22 11.6231 348.324 9.59998C351.426 7.57862 354.944 5.86042 358.878 4.44797C362.81 3.03466 367.063 1.94173 371.633 1.16488C376.204 0.389753 381.038 0.0021895 386.135 0.0021895C393.946 0.0021895 400.955 0.832436 407.16 2.49465C413.364 4.15687 418.738 6.58129 423.282 9.7662C427.824 12.9528 431.454 16.7889 434.168 21.276C436.883 25.764 438.711 30.8617 439.653 36.5666H409.654C408.877 33.7417 407.742 31.3871 406.247 29.5035C404.75 27.6208 402.964 26.0964 400.886 24.9328C398.809 23.7693 396.411 22.9106 393.698 22.356C390.982 21.8031 388.017 21.5257 384.805 21.5257C382.7 21.5257 380.692 21.6368 378.781 21.8582C376.869 22.0795 375.111 22.412 373.504 22.8546C371.897 23.2991 370.415 23.8666 369.058 24.5582C367.699 25.2524 366.565 26.0688 365.651 27.0102C364.736 27.9533 364.016 29.0333 363.489 30.2511C362.962 31.4706 362.7 32.8004 362.7 34.2404V34.4066C362.7 36.2342 363.06 37.8835 363.78 39.3511C364.5 40.8195 365.621 42.1217 367.146 43.2568C368.669 44.3928 370.594 45.3626 372.921 46.1653C375.249 46.9688 377.963 47.6751 381.065 48.2848L399.765 51.7746C406.912 52.9942 413.226 54.5591 418.711 56.4702C424.197 58.3813 428.822 60.7497 432.589 63.5755C436.356 66.4004 439.196 69.7808 441.108 73.7141C443.019 77.6483 443.975 82.3293 443.975 87.7586V88.0075C443.975 94.0466 442.659 99.3924 440.027 104.047C437.395 108.7 433.655 112.634 428.808 115.847C423.959 119.061 418.199 121.471 411.523 123.077C404.846 124.683 397.438 125.487 389.294 125.487C380.373 125.487 372.493 124.502 365.651 122.537ZM459.975 2.74722H489.144V122.747H459.975V2.74722ZM554.341 123.497C548.301 122.168 542.748 120.215 537.679 117.639C532.609 115.063 528.052 111.933 524.009 108.248C519.964 104.564 516.542 100.409 513.746 95.7827C510.947 91.1578 508.813 86.0738 507.347 80.5334C505.878 74.9938 505.144 69.065 505.144 62.7494V62.5832C505.144 53.1094 506.793 44.5365 510.089 36.8628C513.385 29.1899 518.039 22.6108 524.05 17.1263C530.06 11.641 537.264 7.41742 545.657 4.45299C554.049 1.48942 563.344 0.0072047 573.538 0.0072047C580.297 0.0072047 586.696 0.67123 592.735 2.001C598.772 3.33078 604.328 5.27118 609.397 7.81876C614.466 10.3672 618.995 13.4694 622.984 17.1263C626.973 20.7823 630.38 24.9249 633.205 29.5499C636.03 34.1765 638.176 39.2725 639.646 44.8405C641.113 50.4085 641.849 56.3227 641.849 62.5832V62.7494C641.849 72.2792 640.212 80.8796 636.945 88.5525C633.676 96.2263 629.035 102.805 623.025 108.29C617.014 113.774 609.812 118.012 601.418 121.004C593.025 123.996 583.732 125.492 573.538 125.492C566.779 125.492 560.38 124.827 554.341 123.497ZM584.092 100.727C587.361 99.952 590.393 98.7885 593.192 97.2365C595.989 95.6863 598.523 93.7881 600.795 91.5445C603.067 89.3009 604.979 86.7387 606.529 83.857C608.079 80.9769 609.271 77.7636 610.103 74.2178C610.933 70.6729 611.35 66.8498 611.35 62.7494V62.5832C611.35 56.489 610.422 51.0321 608.565 46.2116C606.708 41.3921 604.119 37.2925 600.795 33.913C597.472 30.5343 593.495 27.9712 588.87 26.2254C584.243 24.4805 579.132 23.6081 573.538 23.6081C569.769 23.6081 566.252 23.9965 562.984 24.7716C559.715 25.5476 556.668 26.7241 553.843 28.3036C551.018 29.8823 548.482 31.7805 546.238 33.9956C543.995 36.2125 542.097 38.761 540.547 41.641C538.995 44.5227 537.789 47.7076 536.931 51.1983C536.072 54.6881 535.643 58.4836 535.643 62.5832V62.7494C535.643 68.8987 536.585 74.3978 538.468 79.245C540.352 84.0938 542.969 88.1934 546.322 91.5445C549.673 94.8973 553.648 97.4587 558.247 99.2312C562.844 101.005 567.941 101.891 573.538 101.891C577.305 101.891 580.822 101.504 584.092 100.727ZM657.849 2.75042H690.51L743.778 86.0188H743.943L743.278 57.7637V2.75042H770.787V122.75H737.961L684.858 41.642H684.693L685.356 70.0633V122.75H657.849V2.75042ZM963.427 2.74994H992.596V122.75H963.427V2.74994ZM951.427 2.75209H915.942L880.285 48.6659H859.956V2.75042H830.788V122.752H859.956V76.8361H880.285L915.942 122.75H951.427L905.41 62.751L951.427 2.75209Z" fill="white"/>
</g>
</g>
<defs>
<clipPath id="clip0_4443_21448">
<rect width="3800" height="1000" fill="white"/>
</clipPath>
<clipPath id="clip1_4443_21448">
<rect width="992.596" height="125.492" fill="white"/>
</clipPath>
</defs>
</svg>
